{
.appVersion = "926";
copyright = "Copyright (c) 2011, Cyreal (www.cyreal.org) with Reserved Font Name \"Adamina\"";
customParameters = (
{
name = licenseURL;
value = "http://scripts.sil.org/OFL";
},
{
name = trademark;
value = "Adamina is a trademark of Cyreal (www.cyreal.org).";
},
{
name = license;
value = "This Font Software is licensed under the SIL Open Font License, Version 1.1. This license is available with a FAQ at: http://scripts.sil.org/OFL";
},
{
name = fsType;
value = (
);
},
{
name = "Use Typo Metrics";
value = 1;
},
{
name = "Disable Last Change";
value = 1;
},
{
name = "Use Line Breaks";
value = 1;
},
{
name = vendorID;
value = CYRE;
}
);
date = "2011-08-25 04:05:45 +0000";
designer = "Cyreal (www.cyreal.org)";
designerURL = "http://cyreal.org";
disablesAutomaticAlignment = 1;
familyName = Adamina;
fontMaster = (
{
alignmentZones = (
"{816, 16}",
"{795, 22}",
"{538, 17}",
"{0, -21}",
"{-290, -16}"
);
ascender = 816;
capHeight = 795;
customParameters = (
{
name = winAscent;
value = 1072;
},
{
name = winDescent;
value = 290;
},
{
name = typoAscender;
value = 916;
},
{
name = hheaAscender;
value = 916;
},
{
name = typoDescender;
value = -273;
},
{
name = hheaDescender;
value = -273;
},
{
name = hheaLineGap;
value = 0;
},
{
name = typoLineGap;
value = 0;
}
);
descender = -290;
id = UUID0;
xHeight = 538;
}
);
glyphs = (
{
glyphname = A;
layers = (
{
anchors = (
{
name = top;
position = "{370, 830}";
}
);
layerId = UUID0;
paths = (
{
closed = 1;
nodes = (
"122 44 LINE",
"211 293 LINE",
"471 293 LINE",
"559 46 LINE",
"476 34 LINE",
"472 22 OFFCURVE",
"472 10 OFFCURVE",
"476 -2 CURVE",
"518 -1 OFFCURVE",
"568 0 OFFCURVE",
"618 0 CURVE SMOOTH",
"668 0 OFFCURVE",
"717 -1 OFFCURVE",
"759 -3 CURVE",
"761 9 OFFCURVE",
"762 22 OFFCURVE",
"759 34 CURVE",
"678 44 LINE",
"388 825 LINE",
"353 825 LINE",
"95 135 LINE SMOOTH",
"83 103 OFFCURVE",
"72 72 OFFCURVE",
"55 46 CURVE",
"-11 34 LINE",
"-15 22 OFFCURVE",
"-15 10 OFFCURVE",
"-11 -2 CURVE",
"31 -1 OFFCURVE",
"64 0 OFFCURVE",
"97 0 CURVE SMOOTH",
"129 0 OFFCURVE",
"161 -1 OFFCURVE",
"203 -3 CURVE",
"205 9 OFFCURVE",
"206 22 OFFCURVE",
"203 34 CURVE"
);
},
{
closed = 1;
nodes = (
"344 674 LINE",
"354 633 OFFCURVE",
"367 589 OFFCURVE",
"380 551 CURVE SMOOTH",
"453 343 LINE",
"229 343 LINE",
"304 551 LINE SMOOTH",
"318 590 OFFCURVE",
"333 634 OFFCURVE",
"343 674 CURVE"
);
}
);
width = 740;
}
);
leftKerningGroup = A;
rightKerningGroup = A;
unicode = 0041;
},
{
glyphname = AE;
layers = (
{
layerId = UUID0;
paths = (
{
closed = 1;
nodes = (
"464 293 LINE",
"464 0 LINE",
"944 0 LINE",
"945 232 LINE",
"933 234 OFFCURVE",
"920 235 OFFCURVE",
"908 232 CURVE",
"861 51 LINE",
"561 51 LINE",
"561 395 LINE",
"722 391 LINE",
"744 287 LINE",
"756 283 OFFCURVE",
"768 283 OFFCURVE",
"780 287 CURVE",
"778 329 OFFCURVE",
"777 373 OFFCURVE",
"777 417 CURVE SMOOTH",
"777 461 OFFCURVE",
"778 504 OFFCURVE",
"781 546 CURVE",
"769 548 OFFCURVE",
"756 549 OFFCURVE",
"744 546 CURVE",
"721 448 LINE",
"561 445 LINE",
"561 745 LINE",
"831 745 LINE",
"878 564 LINE",
"890 561 OFFCURVE",
"903 562 OFFCURVE",
"915 564 CURVE",
"914 796 LINE",
"436 796 LINE",
"-2 46 LINE",
"-78 34 LINE",
"-82 22 OFFCURVE",
"-82 10 OFFCURVE",
"-78 -2 CURVE",
"-36 -1 OFFCURVE",
"0 0 OFFCURVE",
"35 0 CURVE SMOOTH",
"70 0 OFFCURVE",
"104 -1 OFFCURVE",
"146 -3 CURVE",
"148 9 OFFCURVE",
"149 22 OFFCURVE",
"146 34 CURVE",
"65 44 LINE",
"205 293 LINE"
);
},
{
closed = 1;
nodes = (
"464 751 LINE",
"464 343 LINE",
"233 343 LINE"
);
}
);
width = 1000;
}
);
rightKerningGroup = E;
unicode = 00C6;
},
{
glyphname = B;
layers = (
{
layerId = UUID0;
paths = (
{
closed = 1;
nodes = (
"50 787 OFFCURVE",
"49 774 OFFCURVE",
"52 762 CURVE",
"133 752 LINE",
"133 163 LINE SMOOTH",
"133 126 OFFCURVE",
"133 84 OFFCURVE",
"129 46 CURVE",
"46 35 LINE",
"42 23 OFFCURVE",
"42 11 OFFCURVE",
"46 -1 CURVE",
"59 -1 OFFCURVE",
"71 0 OFFCURVE",
"84 0 CURVE SMOOTH",
"185 0 OFFCURVE",
"272 -13 OFFCURVE",
"356 -13 CURVE SMOOTH",
"555 -13 OFFCURVE",
"653 78 OFFCURVE",
"653 222 CURVE SMOOTH",
"653 330 OFFCURVE",
"578 419 OFFCURVE",
"450 438 CURVE",
"450 441 LINE",
"562 474 OFFCURVE",
"612 530 OFFCURVE",
"612 613 CURVE SMOOTH",
"612 722 OFFCURVE",
"536 807 OFFCURVE",
"353 807 CURVE SMOOTH",
"326 807 LINE SMOOTH",
"257 807 OFFCURVE",
"147 799 OFFCURVE",
"52 799 CURVE"
);
},
{
closed = 1;
nodes = (
"320 406 LINE SMOOTH",
"461 406 OFFCURVE",
"534 319 OFFCURVE",
"534 221 CURVE SMOOTH",
"534 99 OFFCURVE",
"490 33 OFFCURVE",
"321 33 CURVE",
"289 35 OFFCURVE",
"268 39 OFFCURVE",
"240 44 CURVE",
"240 406 LINE"
);
},
{
closed = 1;
nodes = (
"425 765 OFFCURVE",
"496 711 OFFCURVE",
"496 607 CURVE SMOOTH",
"496 509 OFFCURVE",
"444 456 OFFCURVE",
"318 456 CURVE SMOOTH",
"240 456 LINE",
"240 633 LINE SMOOTH",
"240 670 OFFCURVE",
"240 720 OFFCURVE",
"244 758 CURVE",
"272 764 OFFCURVE",
"299 765 OFFCURVE",
"327 765 CURVE SMOOTH"
);
}
);
width = 702;
}
);
leftKerningGroup = I;
unicode = 0042;
},
{
glyphname = C;
layers = (
{
layerId = UUID0;
paths = (
{
closed = 1;
nodes = (
"632 89 OFFCURVE",
"537 46 OFFCURVE",
"439 46 CURVE SMOOTH",
"281 46 OFFCURVE",
"177 199 OFFCURVE",
"177 412 CURVE SMOOTH",
"177 607 OFFCURVE",
"278 771 OFFCURVE",
"450 771 CURVE SMOOTH",
"502 771 OFFCURVE",
"561 765 OFFCURVE",
"613 731 CURVE",
"645 564 LINE",
"657 561 OFFCURVE",
"690 562 OFFCURVE",
"702 564 CURVE",
"702 756 LINE",
"626 797 OFFCURVE",
"548 816 OFFCURVE",
"462 816 CURVE SMOOTH",
"194 816 OFFCURVE",
"53 600 OFFCURVE",
"53 395 CURVE SMOOTH",
"53 192 OFFCURVE",
"174 -20 OFFCURVE",
"440 -20 CURVE SMOOTH",
"553 -20 OFFCURVE",
"646 39 OFFCURVE",
"722 110 CURVE",
"717 125 OFFCURVE",
"711 138 OFFCURVE",
"696 148 CURVE"
);
}
);
width = 761;
}
);
leftKerningGroup = O;
rightKerningGroup = C;
unicode = 0043;
},
{
glyphname = D;
layers = (
{
layerId = UUID0;
paths = (
{
closed = 1;
nodes = (
"74 -1 OFFCURVE",
"103 -1 OFFCURVE",
"132 -1 CURVE SMOOTH",
"219 -1 OFFCURVE",
"309 -4 OFFCURVE",
"418 -4 CURVE SMOOTH",
"655 -4 OFFCURVE",
"779 186 OFFCURVE",
"779 418 CURVE SMOOTH",
"779 648 OFFCURVE",
"651 809 OFFCURVE",
"381 809 CURVE SMOOTH",
"334 809 OFFCURVE",
"211 798 OFFCURVE",
"99 798 CURVE SMOOTH",
"83 798 OFFCURVE",
"67 798 OFFCURVE",
"52 799 CURVE",
"50 787 OFFCURVE",
"49 774 OFFCURVE",
"52 762 CURVE",
"133 752 LINE",
"133 163 LINE SMOOTH",
"133 126 OFFCURVE",
"133 84 OFFCURVE",
"129 46 CURVE",
"46 34 LINE",
"42 22 OFFCURVE",
"42 10 OFFCURVE",
"46 -2 CURVE"
);
},
{
closed = 1;
nodes = (
"314 44 OFFCURVE",
"273 47 OFFCURVE",
"240 47 CURVE",
"240 633 LINE SMOOTH",
"240 670 OFFCURVE",
"240 716 OFFCURVE",
"244 754 CURVE",
"276 760 OFFCURVE",
"308 762 OFFCURVE",
"340 762 CURVE SMOOTH",
"352 762 OFFCURVE",
"365 762 OFFCURVE",
"377 761 CURVE SMOOTH",
"564 753 OFFCURVE",
"662 621 OFFCURVE",
"662 412 CURVE SMOOTH",
"662 163 OFFCURVE",
"566 44 OFFCURVE",
"380 44 CURVE SMOOTH"
);
}
);
width = 835;
}
);
leftKerningGroup = I;
rightKerningGroup = D;
unicode = 0044;
},
{
glyphname = Eth;
layers = (
{
layerId = UUID0;
paths = (
{
closed = 1;
nodes = (
"75 -1 OFFCURVE",
"104 -1 OFFCURVE",
"133 -1 CURVE SMOOTH",
"220 -1 OFFCURVE",
"310 -4 OFFCURVE",
"419 -4 CURVE SMOOTH",
"656 -4 OFFCURVE",
"780 186 OFFCURVE",
"780 418 CURVE SMOOTH",
"780 648 OFFCURVE",
"652 809 OFFCURVE",
"382 809 CURVE SMOOTH",
"335 809 OFFCURVE",
"212 798 OFFCURVE",
"100 798 CURVE SMOOTH",
"84 798 OFFCURVE",
"68 798 OFFCURVE",
"53 799 CURVE",
"51 787 OFFCURVE",
"50 774 OFFCURVE",
"53 762 CURVE",
"134 752 LINE",
"134 437 LINE",
"47 437 LINE",
"47 387 LINE",
"134 387 LINE",
"134 163 LINE SMOOTH",
"134 126 OFFCURVE",
"134 84 OFFCURVE",
"130 46 CURVE",
"47 34 LINE",
"43 22 OFFCURVE",
"43 10 OFFCURVE",
"47 -2 CURVE"
);
},
{
closed = 1;
nodes = (
"448 437 LINE",
"241 437 LINE",
"241 633 LINE SMOOTH",
"241 670 OFFCURVE",
"241 716 OFFCURVE",
"245 754 CURVE",
"277 760 OFFCURVE",
"309 762 OFFCURVE",
"341 762 CURVE SMOOTH",
"353 762 OFFCURVE",
"366 762 OFFCURVE",
"378 761 CURVE SMOOTH",
"565 753 OFFCURVE",
"663 621 OFFCURVE",
"663 412 CURVE SMOOTH",
"663 163 OFFCURVE",
"567 44 OFFCURVE",
"381 44 CURVE SMOOTH",
"315 44 OFFCURVE",
"274 47 OFFCURVE",
"241 47 CURVE",
"241 387 LINE",
"448 387 LINE"
);
}
);
width = 836;
}
);
leftKerningGroup = I;
rightKerningGroup = D;
unicode = 00D0;
},
{
glyphname = E;
layers = (
{
anchors = (
{
name = top;
position = "{364, 830}";
}
);
layerId = UUID0;
paths = (
{
closed = 1;
nodes = (
"133 162 LINE SMOOTH",
"133 124 OFFCURVE",
"132 82 OFFCURVE",
"129 44 CURVE",
"46 33 LINE",
"42 21 OFFCURVE",
"42 9 OFFCURVE",
"46 -3 CURVE",
"189 0 LINE",
"623 0 LINE",
"624 232 LINE",
"612 234 OFFCURVE",
"599 235 OFFCURVE",
"587 232 CURVE",
"540 51 LINE",
"240 51 LINE",
"240 394 LINE",
"401 391 LINE",
"423 287 LINE",
"435 283 OFFCURVE",
"447 283 OFFCURVE",
"459 287 CURVE",
"457 329 OFFCURVE",
"456 373 OFFCURVE",
"456 417 CURVE SMOOTH",
"456 461 OFFCURVE",
"457 504 OFFCURVE",
"460 546 CURVE",
"448 548 OFFCURVE",
"435 549 OFFCURVE",
"423 546 CURVE",
"400 448 LINE",
"240 445 LINE",
"240 745 LINE",
"510 745 LINE",
"557 564 LINE",
"569 561 OFFCURVE",
"582 562 OFFCURVE",
"594 564 CURVE",
"593 796 LINE",
"189 796 LINE",
"52 799 LINE",
"48 787 OFFCURVE",
"48 775 OFFCURVE",
"52 763 CURVE",
"133 752 LINE"
);
}
);
width = 679;
}
);
leftKerningGroup = I;
rightKerningGroup = E;
unicode = 0045;
},
{
glyphname = F;
layers = (
{
layerId = UUID0;
paths = (
{
closed = 1;
nodes = (
"133 163 LINE SMOOTH",
"133 126 OFFCURVE",
"133 84 OFFCURVE",
"129 46 CURVE",
"46 34 LINE",
"42 22 OFFCURVE",
"42 10 OFFCURVE",
"46 -2 CURVE",
"88 -1 OFFCURVE",
"139 0 OFFCURVE",
"189 0 CURVE SMOOTH",
"239 0 OFFCURVE",
"289 -1 OFFCURVE",
"331 -3 CURVE",
"333 9 OFFCURVE",
"334 22 OFFCURVE",
"331 34 CURVE",
"240 44 LINE",
"240 399 LINE",
"401 396 LINE",
"423 292 LINE",
"435 288 OFFCURVE",
"447 288 OFFCURVE",
"459 292 CURVE",
"457 334 OFFCURVE",
"456 378 OFFCURVE",
"456 422 CURVE SMOOTH",
"456 466 OFFCURVE",
"457 509 OFFCURVE",
"460 551 CURVE",
"448 553 OFFCURVE",
"435 554 OFFCURVE",
"423 551 CURVE",
"400 453 LINE",
"240 450 LINE",
"240 745 LINE",
"510 745 LINE",
"557 564 LINE",
"569 561 OFFCURVE",
"582 562 OFFCURVE",
"594 564 CURVE",
"593 796 LINE",
"189 796 LINE",
"52 799 LINE",
"48 787 OFFCURVE",
"48 775 OFFCURVE",
"52 763 CURVE",
"133 752 LINE"
);
}
);
width = 622;
}
);
leftKerningGroup = I;
unicode = 0046;
},
{
glyphname = G;
layers = (
{
layerId = UUID0;
paths = (
{
closed = 1;
nodes = (
"689 -18 LINE",
"701 -20 OFFCURVE",
"714 -21 OFFCURVE",
"726 -18 CURVE",
"736 92 LINE",
"736 193 LINE SMOOTH",
"736 230 OFFCURVE",
"736 272 OFFCURVE",
"740 310 CURVE",
"823 322 LINE",
"827 334 OFFCURVE",
"827 346 OFFCURVE",
"823 358 CURVE",
"780 356 OFFCURVE",
"733 355 OFFCURVE",
"685 355 CURVE SMOOTH",
"637 355 OFFCURVE",
"589 356 OFFCURVE",
"548 359 CURVE",
"546 347 OFFCURVE",
"545 334 OFFCURVE",
"548 322 CURVE",
"629 312 LINE",
"629 99 LINE",
"573 67 OFFCURVE",
"506 46 OFFCURVE",
"438 46 CURVE SMOOTH",
"280 46 OFFCURVE",
"176 199 OFFCURVE",
"176 412 CURVE SMOOTH",
"176 607 OFFCURVE",
"283 771 OFFCURVE",
"455 771 CURVE SMOOTH",
"510 771 OFFCURVE",
"577 765 OFFCURVE",
"632 731 CURVE",
"664 564 LINE",
"676 561 OFFCURVE",
"709 562 OFFCURVE",
"721 564 CURVE",
"721 756 LINE",
"642 797 OFFCURVE",
"557 816 OFFCURVE",
"467 816 CURVE SMOOTH",
"199 816 OFFCURVE",
"52 600 OFFCURVE",
"52 395 CURVE SMOOTH",
"52 192 OFFCURVE",
"173 -20 OFFCURVE",
"439 -20 CURVE SMOOTH",
"524 -20 OFFCURVE",
"600 18 OFFCURVE",
"663 64 CURVE"
);
}
);
width = 846;
}
);
leftKerningGroup = O;
unicode = 0047;
},
{
glyphname = H;
layers = (
{
layerId = UUID0;
paths = (
{
closed = 1;
nodes = (
"741 44 LINE",
"741 633 LINE SMOOTH",
"741 670 OFFCURVE",
"741 712 OFFCURVE",
"745 750 CURVE",
"828 762 LINE",
"832 774 OFFCURVE",
"832 786 OFFCURVE",
"828 798 CURVE",
"785 796 OFFCURVE",
"738 795 OFFCURVE",
"690 795 CURVE SMOOTH",
"642 795 OFFCURVE",
"594 796 OFFCURVE",
"553 799 CURVE",
"551 787 OFFCURVE",
"550 774 OFFCURVE",
"553 762 CURVE",
"634 752 LINE",
"634 532 LINE",
"634 437 LINE",
"240 437 LINE",
"240 633 LINE SMOOTH",
"240 670 OFFCURVE",
"240 712 OFFCURVE",
"244 750 CURVE",
"327 762 LINE",
"331 774 OFFCURVE",
"331 786 OFFCURVE",
"327 798 CURVE",
"284 796 OFFCURVE",
"237 795 OFFCURVE",
"189 795 CURVE SMOOTH",
"141 795 OFFCURVE",
"93 796 OFFCURVE",
"52 799 CURVE",
"50 787 OFFCURVE",
"49 774 OFFCURVE",
"52 762 CURVE",
"133 752 LINE",
"133 163 LINE SMOOTH",
"133 126 OFFCURVE",
"133 84 OFFCURVE",
"129 46 CURVE",
"46 34 LINE",
"42 22 OFFCURVE",
"42 10 OFFCURVE",
"46 -2 CURVE",
"88 -1 OFFCURVE",
"136 0 OFFCURVE",
"184 0 CURVE SMOOTH",
"232 0 OFFCURVE",
"279 -1 OFFCURVE",
"321 -3 CURVE",
"323 9 OFFCURVE",
"324 22 OFFCURVE",
"321 34 CURVE",
"240 44 LINE",
"240 387 LINE",
"634 387 LINE",
"634 163 LINE SMOOTH",
"634 126 OFFCURVE",
"634 84 OFFCURVE",
"630 46 CURVE",
"547 34 LINE",
"543 22 OFFCURVE",
"543 10 OFFCURVE",
"547 -2 CURVE",
"589 -1 OFFCURVE",
"637 0 OFFCURVE",
"685 0 CURVE SMOOTH",
"733 0 OFFCURVE",
"780 -1 OFFCURVE",
"822 -3 CURVE",
"824 9 OFFCURVE",
"825 22 OFFCURVE",
"822 34 CURVE"
);
}
);
width = 875;
}
);
leftKerningGroup = I;
rightKerningGroup = I;
unicode = 0048;
},
{
glyphname = I;
layers = (
{
anchors = (
{
name = top;
position = "{185, 831}";
}
);
layerId = UUID0;
paths = (
{
closed = 1;
nodes = (
"133 752 LINE",
"133 163 LINE SMOOTH",
"133 126 OFFCURVE",
"133 84 OFFCURVE",
"129 46 CURVE",
"46 34 LINE",
"42 22 OFFCURVE",
"42 10 OFFCURVE",
"46 -2 CURVE",
"88 -1 OFFCURVE",
"136 0 OFFCURVE",
"184 0 CURVE SMOOTH",
"232 0 OFFCURVE",
"279 -1 OFFCURVE",
"321 -3 CURVE",
"323 9 OFFCURVE",
"324 22 OFFCURVE",
"321 34 CURVE",
"240 44 LINE",
"240 633 LINE SMOOTH",
"240 670 OFFCURVE",
"240 712 OFFCURVE",
"244 750 CURVE",
"327 762 LINE",
"331 774 OFFCURVE",
"331 786 OFFCURVE",
"327 798 CURVE",
"284 796 OFFCURVE",
"237 795 OFFCURVE",
"189 795 CURVE SMOOTH",
"141 795 OFFCURVE",
"93 796 OFFCURVE",
"52 799 CURVE",
"50 787 OFFCURVE",
"49 774 OFFCURVE",
"52 762 CURVE"
);
}
);
width = 374;
}
);
leftKerningGroup = I;
rightKerningGroup = I;
unicode = 0049;
},
{
glyphname = J;
layers = (
{
layerId = UUID0;
paths = (
{
closed = 1;
nodes = (
"235 633 LINE SMOOTH",
"235 670 OFFCURVE",
"235 712 OFFCURVE",
"239 750 CURVE",
"322 763 LINE",
"326 775 OFFCURVE",
"326 787 OFFCURVE",
"322 799 CURVE",
"274 797 OFFCURVE",
"217 796 OFFCURVE",
"161 796 CURVE SMOOTH",
"117 796 OFFCURVE",
"74 797 OFFCURVE",
"37 799 CURVE",
"35 787 OFFCURVE",
"34 774 OFFCURVE",
"37 762 CURVE",
"128 752 LINE",
"128 50 LINE SMOOTH",
"128 -100 OFFCURVE",
"115 -188 OFFCURVE",
"52 -188 CURVE SMOOTH",
"25 -188 OFFCURVE",
"19 -167 OFFCURVE",
"12 -92 CURVE",
"-6 -88 OFFCURVE",
"-23 -86 OFFCURVE",
"-37 -86 CURVE SMOOTH",
"-67 -86 OFFCURVE",
"-86 -95 OFFCURVE",
"-91 -113 CURVE",
"-90 -199 OFFCURVE",
"-48 -229 OFFCURVE",
"43 -229 CURVE SMOOTH",
"149 -229 OFFCURVE",
"235 -112 OFFCURVE",
"235 78 CURVE SMOOTH"
);
}
);
width = 362;
}
);
unicode = 004A;
},
{
glyphname = K;
layers = (
{
layerId = UUID0;
paths = (
{
closed = 1;
nodes = (
"366 453 LINE",
"538 661 LINE SMOOTH",
"575 705 OFFCURVE",
"589 719 OFFCURVE",
"629 750 CURVE",
"696 762 LINE",
"700 774 OFFCURVE",
"700 786 OFFCURVE",
"696 798 CURVE",
"653 796 OFFCURVE",
"617 795 OFFCURVE",
"580 795 CURVE SMOOTH",
"543 795 OFFCURVE",
"506 796 OFFCURVE",
"465 799 CURVE",
"463 787 OFFCURVE",
"462 774 OFFCURVE",
"465 762 CURVE",
"546 752 LINE",
"293 437 LINE",
"240 437 LINE",
"240 633 LINE SMOOTH",
"240 670 OFFCURVE",
"240 712 OFFCURVE",
"244 750 CURVE",
"327 762 LINE",
"331 774 OFFCURVE",
"331 786 OFFCURVE",
"327 798 CURVE",
"284 796 OFFCURVE",
"237 795 OFFCURVE",
"189 795 CURVE SMOOTH",
"141 795 OFFCURVE",
"93 796 OFFCURVE",
"52 799 CURVE",
"50 787 OFFCURVE",
"49 774 OFFCURVE",
"52 762 CURVE",
"133 752 LINE",
"133 163 LINE SMOOTH",
"133 126 OFFCURVE",
"133 84 OFFCURVE",
"129 46 CURVE",
"46 34 LINE",
"42 22 OFFCURVE",
"42 10 OFFCURVE",
"46 -2 CURVE",
"88 -1 OFFCURVE",
"136 0 OFFCURVE",
"184 0 CURVE SMOOTH",
"232 0 OFFCURVE",
"279 -1 OFFCURVE",
"321 -3 CURVE",
"323 9 OFFCURVE",
"324 22 OFFCURVE",
"321 34 CURVE",
"240 44 LINE",
"240 386 LINE",
"297 386 LINE",
"465 155 LINE SMOOTH",
"497 110 OFFCURVE",
"524 74 OFFCURVE",
"536 49 CURVE",
"454 35 LINE",
"451 23 OFFCURVE",
"451 11 OFFCURVE",
"455 -1 CURVE",
"489 2 OFFCURVE",
"531 3 OFFCURVE",
"574 3 CURVE SMOOTH",
"640 3 OFFCURVE",
"710 1 OFFCURVE",
"760 0 CURVE",
"762 12 OFFCURVE",
"762 25 OFFCURVE",
"759 37 CURVE",
"681 45 LINE",
"662 64 OFFCURVE",
"616 120 OFFCURVE",
"597 147 CURVE"
);
}
);
width = 742;
}
);
leftKerningGroup = I;
unicode = 004B;
},
{
glyphname = L;
layers = (
{
layerId = UUID0;
paths = (
{
closed = 1;
nodes = (
"189 0 LINE",
"653 0 LINE",
"654 232 LINE",
"642 234 OFFCURVE",
"629 235 OFFCURVE",
"617 232 CURVE",
"570 51 LINE",
"240 51 LINE",
"240 633 LINE SMOOTH",
"240 670 OFFCURVE",
"240 712 OFFCURVE",
"244 750 CURVE",
"327 762 LINE",
"331 774 OFFCURVE",
"331 786 OFFCURVE",
"327 798 CURVE",
"284 796 OFFCURVE",
"237 795 OFFCURVE",
"189 795 CURVE SMOOTH",
"141 795 OFFCURVE",
"93 796 OFFCURVE",
"52 799 CURVE",
"50 787 OFFCURVE",
"49 774 OFFCURVE",
"52 762 CURVE",
"133 752 LINE",
"133 162 LINE SMOOTH",
"133 124 OFFCURVE",
"132 82 OFFCURVE",
"129 44 CURVE",
"46 33 LINE",
"42 21 OFFCURVE",
"42 9 OFFCURVE",
"46 -3 CURVE"
);
}
);
width = 679;
}
);
leftKerningGroup = I;
unicode = 004C;
},
{
glyphname = M;
layers = (
{
layerId = UUID0;
paths = (
{
closed = 1;
nodes = (
"808 163 LINE SMOOTH",
"808 126 OFFCURVE",
"808 84 OFFCURVE",
"804 46 CURVE",
"721 34 LINE",
"716 24 OFFCURVE",
"718 11 OFFCURVE",
"721 -2 CURVE",
"763 -1 OFFCURVE",
"811 0 OFFCURVE",
"859 0 CURVE SMOOTH",
"907 0 OFFCURVE",
"954 -1 OFFCURVE",
"996 -3 CURVE",
"998 9 OFFCURVE",
"999 22 OFFCURVE",
"996 34 CURVE",
"915 44 LINE",
"915 633 LINE SMOOTH",
"915 670 OFFCURVE",
"915 712 OFFCURVE",
"919 750 CURVE",
"1002 762 LINE",
"1006 774 OFFCURVE",
"1006 786 OFFCURVE",
"1002 798 CURVE",
"953 797 OFFCURVE",
"899 795 OFFCURVE",
"845 795 CURVE SMOOTH",
"822 795 OFFCURVE",
"798 795 OFFCURVE",
"775 796 CURVE",
"518 138 LINE",
"267 796 LINE",
"47 796 LINE",
"43 784 OFFCURVE",
"43 774 OFFCURVE",
"47 762 CURVE",
"130 750 LINE",
"134 712 OFFCURVE",
"134 670 OFFCURVE",
"134 633 CURVE SMOOTH",
"134 44 LINE",
"43 34 LINE",
"40 22 OFFCURVE",
"41 9 OFFCURVE",
"43 -3 CURVE",
"84 -1 OFFCURVE",
"124 0 OFFCURVE",
"164 0 CURVE SMOOTH",
"204 0 OFFCURVE",
"243 -1 OFFCURVE",
"286 -2 CURVE",
"290 10 OFFCURVE",
"290 22 OFFCURVE",
"286 34 CURVE",
"193 46 LINE",
"189 84 OFFCURVE",
"189 126 OFFCURVE",
"189 163 CURVE SMOOTH",
"189 713 LINE",
"480 -30 LINE",
"506 -30 LINE",
"808 738 LINE"
);
}
);
width = 1050;
}
);
leftKerningGroup = I;
rightKerningGroup = I;
unicode = 004D;
},
{
glyphname = N;
layers = (
{
anchors = (
{
name = top;
position = "{446, 830}";
}
);
layerId = UUID0;
paths = (
{
closed = 1;
nodes = (
"697 268 LINE SMOOTH",
"697 229 OFFCURVE",
"699 192 OFFCURVE",
"702 156 CURVE",
"682 189 OFFCURVE",
"663 226 OFFCURVE",
"645 250 CURVE SMOOTH",
"244 796 LINE",
"48 796 LINE",
"44 784 OFFCURVE",
"44 774 OFFCURVE",
"48 762 CURVE",
"131 750 LINE",
"135 712 OFFCURVE",
"135 670 OFFCURVE",
"135 633 CURVE SMOOTH",
"135 44 LINE",
"44 34 LINE",
"41 22 OFFCURVE",
"42 9 OFFCURVE",
"44 -3 CURVE",
"85 -1 OFFCURVE",
"125 0 OFFCURVE",
"165 0 CURVE SMOOTH",
"205 0 OFFCURVE",
"244 -1 OFFCURVE",
"287 -2 CURVE",
"291 10 OFFCURVE",
"291 22 OFFCURVE",
"287 34 CURVE",
"194 46 LINE",
"190 84 OFFCURVE",
"190 126 OFFCURVE",
"190 163 CURVE SMOOTH",
"190 593 LINE SMOOTH",
"190 630 OFFCURVE",
"189 667 OFFCURVE",
"185 704 CURVE",
"209 667 OFFCURVE",
"233 631 OFFCURVE",
"258 597 CURVE SMOOTH",
"699 0 LINE",
"752 0 LINE",
"752 749 LINE",
"843 759 LINE",
"846 771 OFFCURVE",
"845 784 OFFCURVE",
"843 796 CURVE",
"801 793 OFFCURVE",
"762 792 OFFCURVE",
"722 792 CURVE SMOOTH",
"682 792 OFFCURVE",
"642 793 OFFCURVE",
"600 795 CURVE",
"596 783 OFFCURVE",
"596 771 OFFCURVE",
"600 759 CURVE",
"693 747 LINE",
"697 709 OFFCURVE",
"697 667 OFFCURVE",
"697 630 CURVE SMOOTH"
);
}
);
width = 880;
}
);
leftKerningGroup = I;
rightKerningGroup = N;
unicode = 004E;
},
{
glyphname = O;
layers = (
{
anchors = (
{
name = top;
position = "{452, 830}";
}
);
layerId = UUID0;
paths = (
{
closed = 1;
nodes = (
"217 816 OFFCURVE",
"52 617 OFFCURVE",
"52 386 CURVE SMOOTH",
"52 186 OFFCURVE",
"184 -20 OFFCURVE",
"452 -20 CURVE SMOOTH",
"690 -20 OFFCURVE",
"853 173 OFFCURVE",
"853 408 CURVE SMOOTH",
"853 610 OFFCURVE",
"722 816 OFFCURVE",
"452 816 CURVE SMOOTH"
);
},
{
closed = 1;
nodes = (
"256 35 OFFCURVE",
"172 214 OFFCURVE",
"172 411 CURVE SMOOTH",
"172 597 OFFCURVE",
"258 761 OFFCURVE",
"451 761 CURVE SMOOTH",
"648 761 OFFCURVE",
"733 598 OFFCURVE",
"733 412 CURVE SMOOTH",
"733 216 OFFCURVE",
"647 35 OFFCURVE",
"451 35 CURVE SMOOTH"
);
}
);
width = 906;
}
);
leftKerningGroup = O;
rightKerningGroup = O;
unicode = 004F;
},
{
glyphname = Oslash;
layers = (
{
anchors = (
{
name = top;
position = "{452, 830}";
}
);
layerId = UUID0;
paths = (
{
closed = 1;
nodes = (
"746 881 LINE",
"667 760 LINE",
"609 795 OFFCURVE",
"537 816 OFFCURVE",
"452 816 CURVE SMOOTH",
"217 816 OFFCURVE",
"52 617 OFFCURVE",
"52 386 CURVE SMOOTH",
"52 262 OFFCURVE",
"102 135 OFFCURVE",
"205 57 CURVE",
"112 -84 LINE",
"167 -84 LINE",
"243 32 LINE",
"300 0 OFFCURVE",
"369 -20 OFFCURVE",
"452 -20 CURVE SMOOTH",
"690 -20 OFFCURVE",
"853 173 OFFCURVE",
"853 408 CURVE SMOOTH",
"853 531 OFFCURVE",
"804 656 OFFCURVE",
"704 734 CURVE",
"801 881 LINE"
);
},
{
closed = 1;
nodes = (
"172 597 OFFCURVE",
"258 761 OFFCURVE",
"451 761 CURVE SMOOTH",
"525 761 OFFCURVE",
"583 738 OFFCURVE",
"627 699 CURVE",
"252 129 LINE",
"197 200 OFFCURVE",
"172 303 OFFCURVE",
"172 411 CURVE SMOOTH"
);
},
{
closed = 1;
nodes = (
"382 35 OFFCURVE",
"327 57 OFFCURVE",
"284 95 CURVE",
"659 665 LINE",
"709 600 OFFCURVE",
"733 509 OFFCURVE",
"733 412 CURVE SMOOTH",
"733 216 OFFCURVE",
"647 35 OFFCURVE",
"451 35 CURVE SMOOTH"
);
}
);
width = 906;
}
);
leftKerningGroup = O;
rightKerningGroup = O;
unicode = 00D8;
},
{
glyphname = OE;
layers = (
{
layerId = UUID0;
paths = (
{
closed = 1;
nodes = (
"217 816 OFFCURVE",
"52 617 OFFCURVE",
"52 386 CURVE SMOOTH",
"52 186 OFFCURVE",
"184 -20 OFFCURVE",
"452 -20 CURVE SMOOTH",
"573 -20 OFFCURVE",
"676 36 OFFCURVE",
"746 124 CURVE",
"746 0 LINE",
"1226 0 LINE",
"1227 232 LINE",
"1215 234 OFFCURVE",
"1202 235 OFFCURVE",
"1190 232 CURVE",
"1143 51 LINE",
"843 51 LINE",
"843 394 LINE",
"1004 391 LINE",
"1026 287 LINE",
"1038 283 OFFCURVE",
"1050 283 OFFCURVE",
"1062 287 CURVE",
"1060 329 OFFCURVE",
"1059 373 OFFCURVE",
"1059 417 CURVE SMOOTH",
"1059 461 OFFCURVE",
"1060 504 OFFCURVE",
"1063 546 CURVE",
"1051 548 OFFCURVE",
"1038 549 OFFCURVE",
"1026 546 CURVE",
"1003 448 LINE",
"843 445 LINE",
"843 745 LINE",
"1113 745 LINE",
"1160 564 LINE",
"1172 561 OFFCURVE",
"1185 562 OFFCURVE",
"1197 564 CURVE",
"1196 796 LINE",
"746 796 LINE",
"746 683 LINE",
"681 762 OFFCURVE",
"582 816 OFFCURVE",
"452 816 CURVE SMOOTH"
);
},
{
closed = 1;
nodes = (
"256 35 OFFCURVE",
"172 214 OFFCURVE",
"172 411 CURVE SMOOTH",
"172 597 OFFCURVE",
"258 761 OFFCURVE",
"451 761 CURVE SMOOTH",
"657 761 OFFCURVE",
"746 598 OFFCURVE",
"746 412 CURVE SMOOTH",
"746 216 OFFCURVE",
"656 35 OFFCURVE",
"451 35 CURVE SMOOTH"
);
}
);
width = 1282;
}
);
leftKerningGroup = O;
rightKerningGroup = E;
unicode = 0152;
},
{
glyphname = P;
layers = (
{
layerId = UUID0;
paths = (
{
closed = 1;
nodes = (
"50 787 OFFCURVE",
"49 774 OFFCURVE",
"52 762 CURVE",
"133 752 LINE",
"133 163 LINE SMOOTH",
"133 126 OFFCURVE",
"133 84 OFFCURVE",
"129 46 CURVE",
"46 34 LINE",
"42 22 OFFCURVE",
"42 10 OFFCURVE",
"46 -2 CURVE",
"88 -1 OFFCURVE",
"139 0 OFFCURVE",
"189 0 CURVE SMOOTH",
"239 0 OFFCURVE",
"289 -1 OFFCURVE",
"331 -3 CURVE",
"333 9 OFFCURVE",
"334 22 OFFCURVE",
"331 34 CURVE",
"240 44 LINE",
"240 358 LINE",
"275 353 OFFCURVE",
"311 352 OFFCURVE",
"343 352 CURVE SMOOTH",
"497 352 OFFCURVE",
"632 448 OFFCURVE",
"632 578 CURVE SMOOTH",
"632 711 OFFCURVE",
"564 807 OFFCURVE",
"345 807 CURVE SMOOTH",
"207 807 OFFCURVE",
"139 798 OFFCURVE",
"52 799 CURVE"
);
},
{
closed = 1;
nodes = (
"240 633 LINE SMOOTH",
"240 670 OFFCURVE",
"242 720 OFFCURVE",
"246 758 CURVE",
"262 761 OFFCURVE",
"296 765 OFFCURVE",
"320 765 CURVE SMOOTH",
"465 765 OFFCURVE",
"511 690 OFFCURVE",
"511 583 CURVE SMOOTH",
"511 502 OFFCURVE",
"477 395 OFFCURVE",
"330 395 CURVE SMOOTH",
"305 395 OFFCURVE",
"271 395 OFFCURVE",
"240 399 CURVE"
);
}
);
width = 661;
}
);
leftKerningGroup = I;
unicode = 0050;
},
{
glyphname = Thorn;
layers = (
{
layerId = UUID0;
paths = (
{
closed = 1;
nodes = (
"133 520 LINE",
"133 163 LINE SMOOTH",
"133 126 OFFCURVE",
"133 84 OFFCURVE",
"129 46 CURVE",
"46 34 LINE",
"42 22 OFFCURVE",
"42 10 OFFCURVE",
"46 -2 CURVE",
"88 -1 OFFCURVE",
"136 0 OFFCURVE",
"184 0 CURVE SMOOTH",
"232 0 OFFCURVE",
"279 -1 OFFCURVE",
"321 -3 CURVE",
"323 9 OFFCURVE",
"324 22 OFFCURVE",
"321 34 CURVE",
"240 44 LINE",
"240 196 LINE",
"269 193 OFFCURVE",
"297 192 OFFCURVE",
"324 192 CURVE SMOOTH",
"478 192 OFFCURVE",
"613 288 OFFCURVE",
"613 418 CURVE SMOOTH",
"613 551 OFFCURVE",
"545 647 OFFCURVE",
"326 647 CURVE SMOOTH",
"293 647 OFFCURVE",
"265 646 OFFCURVE",
"240 645 CURVE",
"240 679 OFFCURVE",
"240 716 OFFCURVE",
"244 750 CURVE",
"327 762 LINE",
"331 774 OFFCURVE",
"331 786 OFFCURVE",
"327 798 CURVE",
"284 796 OFFCURVE",
"237 795 OFFCURVE",
"189 795 CURVE SMOOTH",
"141 795 OFFCURVE",
"93 796 OFFCURVE",
"52 799 CURVE",
"50 787 OFFCURVE",
"49 774 OFFCURVE",
"52 762 CURVE",
"133 752 LINE"
);
},
{
closed = 1;
nodes = (
"240 600 LINE",
"257 602 OFFCURVE",
"282 605 OFFCURVE",
"301 605 CURVE SMOOTH",
"446 605 OFFCURVE",
"492 530 OFFCURVE",
"492 423 CURVE SMOOTH",
"492 342 OFFCURVE",
"458 235 OFFCURVE",
"311 235 CURVE SMOOTH",
"291 235 OFFCURVE",
"265 235 OFFCURVE",
"240 237 CURVE"
);
}
);
width = 645;
}
);
leftKerningGroup = I;
unicode = 00DE;
},
{
glyphname = Q;
layers = (
{
layerId = UUID0;
paths = (
{
closed = 1;
nodes = (
"197 -129 OFFCURVE",
"207 -138 OFFCURVE",
"220 -145 CURVE",
"259 -117 OFFCURVE",
"293 -107 OFFCURVE",
"325 -107 CURVE SMOOTH",
"354 -107 OFFCURVE",
"380 -116 OFFCURVE",
"407 -127 CURVE",
"584 -212 LINE",
"623 -228 OFFCURVE",
"659 -235 OFFCURVE",
"690 -235 CURVE SMOOTH",
"770 -235 OFFCURVE",
"826 -203 OFFCURVE",
"863 -156 CURVE",
"851 -142 OFFCURVE",
"844 -135 OFFCURVE",
"832 -129 CURVE",
"802 -150 OFFCURVE",
"771 -161 OFFCURVE",
"736 -161 CURVE SMOOTH",
"698 -161 OFFCURVE",
"660 -152 OFFCURVE",
"623 -136 CURVE SMOOTH",
"447 -62 LINE SMOOTH",
"425 -53 OFFCURVE",
"405 -46 OFFCURVE",
"386 -42 CURVE",
"406 -33 OFFCURVE",
"426 -20 OFFCURVE",
"452 -20 CURVE SMOOTH",
"690 -20 OFFCURVE",
"853 173 OFFCURVE",
"853 408 CURVE SMOOTH",
"853 610 OFFCURVE",
"722 816 OFFCURVE",
"452 816 CURVE SMOOTH",
"217 816 OFFCURVE",
"52 617 OFFCURVE",
"52 386 CURVE SMOOTH",
"52 211 OFFCURVE",
"152 32 OFFCURVE",
"355 -10 CURVE",
"240 -63 OFFCURVE",
"217 -78 OFFCURVE",
"189 -117 CURVE"
);
},
{
closed = 1;
nodes = (
"256 35 OFFCURVE",
"172 214 OFFCURVE",
"172 411 CURVE SMOOTH",
"172 597 OFFCURVE",
"258 761 OFFCURVE",
"451 761 CURVE SMOOTH",
"648 761 OFFCURVE",
"733 598 OFFCURVE",
"733 412 CURVE SMOOTH",
"733 216 OFFCURVE",
"647 35 OFFCURVE",
"451 35 CURVE SMOOTH"
);
}
);
width = 906;
}
);
leftKerningGroup = O;
rightKerningGroup = O;
unicode = 0051;
},
{
glyphname = R;
layers = (
{
layerId = UUID0;
paths = (
{
closed = 1;
nodes = (
"50 787 OFFCURVE",
"49 774 OFFCURVE",
"52 762 CURVE",
"133 752 LINE",
"133 163 LINE SMOOTH",
"133 126 OFFCURVE",
"133 84 OFFCURVE",
"129 46 CURVE",
"46 34 LINE",
"42 22 OFFCURVE",
"42 10 OFFCURVE",
"46 -2 CURVE",
"88 -1 OFFCURVE",
"139 0 OFFCURVE",
"189 0 CURVE SMOOTH",
"239 0 OFFCURVE",
"289 -1 OFFCURVE",
"331 -3 CURVE",
"333 9 OFFCURVE",
"334 22 OFFCURVE",
"331 34 CURVE",
"240 44 LINE",
"240 368 LINE",
"275 364 OFFCURVE",
"311 362 OFFCURVE",
"343 362 CURVE SMOOTH",
"357 362 LINE",
"376 340 OFFCURVE",
"395 310 OFFCURVE",
"414 274 CURVE SMOOTH",
"565 0 LINE",
"735 0 LINE",
"737 12 OFFCURVE",
"738 25 OFFCURVE",
"735 37 CURVE",
"663 47 LINE",
"643 66 OFFCURVE",
"626 109 OFFCURVE",
"464 383 CURVE",
"558 417 OFFCURVE",
"627 489 OFFCURVE",
"627 578 CURVE SMOOTH",
"627 711 OFFCURVE",
"560 807 OFFCURVE",
"345 807 CURVE SMOOTH",
"207 807 OFFCURVE",
"139 798 OFFCURVE",
"52 799 CURVE"
);
},
{
closed = 1;
nodes = (
"240 633 LINE SMOOTH",
"240 670 OFFCURVE",
"242 720 OFFCURVE",
"246 758 CURVE",
"262 761 OFFCURVE",
"296 765 OFFCURVE",
"320 765 CURVE SMOOTH",
"461 765 OFFCURVE",
"506 690 OFFCURVE",
"506 583 CURVE SMOOTH",
"506 506 OFFCURVE",
"473 405 OFFCURVE",
"330 405 CURVE SMOOTH",
"305 405 OFFCURVE",
"271 405 OFFCURVE",
"240 409 CURVE"
);
}
);
width = 720;
}
);
leftKerningGroup = I;
unicode = 0052;
},
{
glyphname = S;
layers = (
{
layerId = UUID0;
paths = (
{
closed = 1;
nodes = (
"131 231 LINE",
"119 234 OFFCURVE",
"86 233 OFFCURVE",
"74 231 CURVE",
"74 39 LINE",
"147 -2 OFFCURVE",
"212 -20 OFFCURVE",
"304 -20 CURVE SMOOTH",
"472 -20 OFFCURVE",
"586 72 OFFCURVE",
"586 208 CURVE SMOOTH",
"586 273 OFFCURVE",
"549 329 OFFCURVE",
"464 392 CURVE",
"260 538 LINE SMOOTH",
"218 569 OFFCURVE",
"196 603 OFFCURVE",
"196 656 CURVE SMOOTH",
"196 736 OFFCURVE",
"255 772 OFFCURVE",
"322 772 CURVE SMOOTH",
"369 772 OFFCURVE",
"420 761 OFFCURVE",
"465 731 CURVE",
"497 564 LINE",
"509 561 OFFCURVE",
"542 562 OFFCURVE",
"554 564 CURVE",
"554 756 LINE",
"478 797 OFFCURVE",
"410 816 OFFCURVE",
"324 816 CURVE SMOOTH",
"206 816 OFFCURVE",
"87 755 OFFCURVE",
"87 631 CURVE SMOOTH",
"87 545 OFFCURVE",
"127 489 OFFCURVE",
"180 453 CURVE",
"404 291 LINE",
"465 239 OFFCURVE",
"468 211 OFFCURVE",
"468 168 CURVE SMOOTH",
"468 100 OFFCURVE",
"427 29 OFFCURVE",
"326 29 CURVE SMOOTH",
"266 29 OFFCURVE",
"212 35 OFFCURVE",
"163 69 CURVE"
);
}
);
width = 653;
}
);
unicode = 0053;
},
{
glyphname = T;
layers = (
{
layerId = UUID0;
paths = (
{
closed = 1;
nodes = (
"27 796 LINE",
"26 564 LINE",
"38 562 OFFCURVE",
"51 561 OFFCURVE",
"63 564 CURVE",
"110 745 LINE",
"320 745 LINE",
"320 163 LINE SMOOTH",
"320 126 OFFCURVE",
"320 84 OFFCURVE",
"316 46 CURVE",
"223 34 LINE",
"219 22 OFFCURVE",
"219 10 OFFCURVE",
"223 -2 CURVE",
"265 -1 OFFCURVE",
"321 0 OFFCURVE",
"376 0 CURVE SMOOTH",
"431 0 OFFCURVE",
"486 -1 OFFCURVE",
"528 -3 CURVE",
"530 9 OFFCURVE",
"531 22 OFFCURVE",
"528 34 CURVE",
"427 44 LINE",
"427 745 LINE",
"635 745 LINE",
"682 564 LINE",
"694 561 OFFCURVE",
"707 562 OFFCURVE",
"719 564 CURVE",
"718 796 LINE"
);
}
);
width = 746;
}
);
unicode = 0054;
},
{
glyphname = U;
layers = (
{
anchors = (
{
name = top;
position = "{448, 830}";
}
);
layerId = UUID0;
paths = (
{
closed = 1;
nodes = (
"644 254 LINE SMOOTH",
"644 112 OFFCURVE",
"600 44 OFFCURVE",
"444 44 CURVE SMOOTH",
"285 44 OFFCURVE",
"220 101 OFFCURVE",
"220 251 CURVE SMOOTH",
"220 633 LINE SMOOTH",
"220 670 OFFCURVE",
"220 712 OFFCURVE",
"224 750 CURVE",
"307 762 LINE",
"311 774 OFFCURVE",
"311 786 OFFCURVE",
"307 798 CURVE",
"264 796 OFFCURVE",
"217 795 OFFCURVE",
"169 795 CURVE SMOOTH",
"121 795 OFFCURVE",
"73 796 OFFCURVE",
"32 799 CURVE",
"30 787 OFFCURVE",
"29 774 OFFCURVE",
"32 762 CURVE",
"113 752 LINE",
"113 251 LINE SMOOTH",
"113 72 OFFCURVE",
"211 -20 OFFCURVE",
"411 -20 CURVE SMOOTH",
"633 -20 OFFCURVE",
"694 83 OFFCURVE",
"699 260 CURVE",
"699 633 LINE SMOOTH",
"699 670 OFFCURVE",
"699 712 OFFCURVE",
"703 750 CURVE",
"766 762 LINE",
"766 798 LINE",
"723 796 OFFCURVE",
"694 795 OFFCURVE",
"664 795 CURVE SMOOTH",
"634 795 OFFCURVE",
"604 796 OFFCURVE",
"563 799 CURVE",
"563 762 LINE",
"644 752 LINE"
);
}
);
width = 814;
}
);
leftKerningGroup = U;
rightKerningGroup = U;
unicode = 0055;
},
{
glyphname = V;
layers = (
{
layerId = UUID0;
paths = (
{
closed = 1;
nodes = (
"399 122 LINE",
"389 163 OFFCURVE",
"376 207 OFFCURVE",
"363 245 CURVE",
"180 750 LINE",
"263 762 LINE",
"267 774 OFFCURVE",
"267 786 OFFCURVE",
"263 798 CURVE",
"220 796 OFFCURVE",
"170 795 OFFCURVE",
"120 795 CURVE SMOOTH",
"70 795 OFFCURVE",
"19 796 OFFCURVE",
"-22 799 CURVE",
"-24 787 OFFCURVE",
"-25 774 OFFCURVE",
"-22 762 CURVE",
"59 752 LINE",
"355 -30 LINE",
"390 -30 LINE",
"648 661 LINE SMOOTH",
"660 693 OFFCURVE",
"671 724 OFFCURVE",
"688 750 CURVE",
"754 762 LINE",
"758 774 OFFCURVE",
"758 786 OFFCURVE",
"754 798 CURVE",
"711 796 OFFCURVE",
"678 795 OFFCURVE",
"646 795 CURVE SMOOTH",
"613 795 OFFCURVE",
"581 796 OFFCURVE",
"540 799 CURVE",
"538 787 OFFCURVE",
"537 774 OFFCURVE",
"540 762 CURVE",
"621 752 LINE",
"439 245 LINE SMOOTH",
"425 206 OFFCURVE",
"410 162 OFFCURVE",
"400 122 CURVE"
);
}
);
width = 745;
}
);
unicode = 0056;
},
{
glyphname = W;
layers = (
{
layerId = UUID0;
paths = (
{
closed = 1;
nodes = (
"788 146 LINE",
"776 204 OFFCURVE",
"759 260 OFFCURVE",
"742 315 CURVE",
"600 750 LINE",
"683 762 LINE",
"687 774 OFFCURVE",
"687 786 OFFCURVE",
"683 798 CURVE",
"640 796 OFFCURVE",
"591 795 OFFCURVE",
"542 795 CURVE SMOOTH",
"493 795 OFFCURVE",
"444 796 OFFCURVE",
"403 799 CURVE",
"401 787 OFFCURVE",
"400 774 OFFCURVE",
"403 762 CURVE",
"484 752 LINE",
"532 611 LINE",
"422 307 LINE SMOOTH",
"401 250 OFFCURVE",
"381 194 OFFCURVE",
"364 138 CURVE",
"362 138 LINE",
"349 195 OFFCURVE",
"334 253 OFFCURVE",
"319 307 CURVE",
"187 750 LINE",
"270 762 LINE",
"274 774 OFFCURVE",
"274 786 OFFCURVE",
"270 798 CURVE",
"227 796 OFFCURVE",
"176 795 OFFCURVE",
"125 795 CURVE SMOOTH",
"74 795 OFFCURVE",
"23 796 OFFCURVE",
"-18 799 CURVE",
"-20 787 OFFCURVE",
"-21 774 OFFCURVE",
"-18 762 CURVE",
"63 752 LINE",
"322 -30 LINE",
"349 -31 LINE",
"559 530 LINE",
"751 -30 LINE",
"777 -30 LINE",
"1004 661 LINE",
"1016 693 OFFCURVE",
"1027 724 OFFCURVE",
"1044 750 CURVE",
"1110 762 LINE",
"1110 798 LINE",
"1067 796 OFFCURVE",
"1034 795 OFFCURVE",
"1002 795 CURVE SMOOTH",
"969 795 OFFCURVE",
"937 796 OFFCURVE",
"896 799 CURVE",
"896 762 LINE",
"977 752 LINE",
"838 312 LINE SMOOTH",
"823 263 OFFCURVE",
"804 205 OFFCURVE",
"790 146 CURVE"
);
}
);
width = 1099;
}
);
unicode = 0057;
},
{
glyphname = X;
layers = (
{
layerId = UUID0;
paths = (
{
closed = 1;
nodes = (
"724 43 LINE",
"442 446 LINE",
"605 661 LINE SMOOTH",
"634 699 OFFCURVE",
"655 721 OFFCURVE",
"696 750 CURVE",
"759 762 LINE",
"763 774 OFFCURVE",
"763 786 OFFCURVE",
"759 798 CURVE",
"716 796 OFFCURVE",
"680 795 OFFCURVE",
"643 795 CURVE SMOOTH",
"606 795 OFFCURVE",
"569 796 OFFCURVE",
"528 799 CURVE",
"526 787 OFFCURVE",
"525 774 OFFCURVE",
"528 762 CURVE",
"609 752 LINE",
"412 489 LINE",
"278 682 LINE",
"265 699 OFFCURVE",
"254 715 OFFCURVE",
"239 743 CURVE",
"338 762 LINE",
"342 774 OFFCURVE",
"342 786 OFFCURVE",
"338 798 CURVE",
"295 796 OFFCURVE",
"236 795 OFFCURVE",
"176 795 CURVE SMOOTH",
"116 795 OFFCURVE",
"56 796 OFFCURVE",
"15 799 CURVE",
"13 787 OFFCURVE",
"12 774 OFFCURVE",
"15 762 CURVE",
"96 752 LINE",
"343 393 LINE",
"151 135 LINE SMOOTH",
"125 100 OFFCURVE",
"97 72 OFFCURVE",
"70 46 CURVE",
"-3 34 LINE",
"-7 22 OFFCURVE",
"-7 10 OFFCURVE",
"-3 -2 CURVE",
"39 -1 OFFCURVE",
"76 0 OFFCURVE",
"113 0 CURVE SMOOTH",
"149 0 OFFCURVE",
"185 -1 OFFCURVE",
"227 -3 CURVE",
"229 9 OFFCURVE",
"230 22 OFFCURVE",
"227 34 CURVE",
"146 44 LINE",
"374 347 LINE",
"507 155 LINE SMOOTH",
"528 126 OFFCURVE",
"557 87 OFFCURVE",
"575 47 CURVE",
"473 33 LINE",
"470 21 OFFCURVE",
"470 9 OFFCURVE",
"474 -3 CURVE",
"508 0 OFFCURVE",
"554 1 OFFCURVE",
"603 1 CURVE SMOOTH",
"678 1 OFFCURVE",
"758 -1 OFFCURVE",
"808 -2 CURVE",
"810 10 OFFCURVE",
"810 23 OFFCURVE",
"807 35 CURVE"
);
}
);
width = 794;
}
);
unicode = 0058;
},
{
glyphname = Y;
layers = (
{
anchors = (
{
name = top;
position = "{386, 830}";
}
);
layerId = UUID0;
paths = (
{
closed = 1;
nodes = (
"246 625 LINE SMOOTH",
"226 660 OFFCURVE",
"209 699 OFFCURVE",
"191 743 CURVE",
"289 762 LINE",
"293 774 OFFCURVE",
"293 786 OFFCURVE",
"289 798 CURVE",
"246 796 OFFCURVE",
"191 795 OFFCURVE",
"137 795 CURVE SMOOTH",
"82 795 OFFCURVE",
"28 796 OFFCURVE",
"-13 799 CURVE",
"-15 787 OFFCURVE",
"-16 774 OFFCURVE",
"-13 762 CURVE",
"58 752 LINE",
"297 344 LINE",
"297 163 LINE SMOOTH",
"297 126 OFFCURVE",
"297 84 OFFCURVE",
"293 46 CURVE",
"210 34 LINE",
"206 22 OFFCURVE",
"206 10 OFFCURVE",
"210 -2 CURVE",
"252 -1 OFFCURVE",
"300 0 OFFCURVE",
"348 0 CURVE SMOOTH",
"396 0 OFFCURVE",
"443 -1 OFFCURVE",
"485 -3 CURVE",
"487 9 OFFCURVE",
"488 22 OFFCURVE",
"485 34 CURVE",
"404 44 LINE",
"404 341 LINE",
"600 661 LINE",
"624 703 OFFCURVE",
"644 725 OFFCURVE",
"666 750 CURVE",
"728 762 LINE",
"732 774 OFFCURVE",
"732 786 OFFCURVE",
"728 798 CURVE",
"685 796 OFFCURVE",
"650 795 OFFCURVE",
"616 795 CURVE SMOOTH",
"581 795 OFFCURVE",
"547 796 OFFCURVE",
"506 799 CURVE",
"504 787 OFFCURVE",
"503 774 OFFCURVE",
"506 762 CURVE",
"587 752 LINE",
"378 399 LINE"
);
}
);
width = 707;
}
);
leftKerningGroup = Y;
rightKerningGroup = Y;
unicode = 0059;
},
{
glyphname = Z;
layers = (
{
layerId = UUID0;
paths = (
{
closed = 1;
nodes = (
"172 51 LINE",
"611 745 LINE",
"615 762 OFFCURVE",
"616 780 OFFCURVE",
"611 796 CURVE",
"67 796 LINE",
"66 564 LINE",
"78 562 OFFCURVE",
"91 561 OFFCURVE",
"103 564 CURVE",
"150 745 LINE",
"489 745 LINE",
"44 51 LINE",
"38 34 OFFCURVE",
"40 17 OFFCURVE",
"44 0 CURVE",
"624 0 LINE",
"625 232 LINE",
"613 234 OFFCURVE",
"600 235 OFFCURVE",
"588 232 CURVE",
"541 51 LINE"
);
}
);
width = 679;
}
);
unicode = 005A;
},
{
glyphname = a;
layers = (
{
anchors = (
{
name = top;
position = "{265, 570}";
}
);
layerId = UUID0;
paths = (
{
closed = 1;
nodes = (
"135 225 OFFCURVE",
"219 259 OFFCURVE",
"348 266 CURVE",
"348 110 LINE",
"305 62 OFFCURVE",
"252 38 OFFCURVE",
"214 38 CURVE SMOOTH",
"160 38 OFFCURVE",
"135 63 OFFCURVE",
"135 133 CURVE SMOOTH"
);
},
{
closed = 1;
nodes = (
"348 302 LINE",
"170 298 OFFCURVE",
"40 241 OFFCURVE",
"40 113 CURVE SMOOTH",
"40 33 OFFCURVE",
"89 -20 OFFCURVE",
"174 -20 CURVE SMOOTH",
"246 -20 OFFCURVE",
"305 13 OFFCURVE",
"359 75 CURVE",
"364 6 LINE",
"366 -4 OFFCURVE",
"370 -10 OFFCURVE",
"374 -14 CURVE",
"424 -7 OFFCURVE",
"475 -2 OFFCURVE",
"525 0 CURVE",
"527 13 OFFCURVE",
"528 25 OFFCURVE",
"525 38 CURVE",
"446 48 LINE",
"444 60 OFFCURVE",
"443 74 OFFCURVE",
"443 91 CURVE SMOOTH",
"443 373 LINE SMOOTH",
"443 512 OFFCURVE",
"391 554 OFFCURVE",
"265 554 CURVE SMOOTH",
"152 554 OFFCURVE",
"59 500 OFFCURVE",
"59 406 CURVE",
"64 387 OFFCURVE",
"79 378 OFFCURVE",
"105 378 CURVE SMOOTH",
"118 378 OFFCURVE",
"134 381 OFFCURVE",
"152 385 CURVE",
"166 485 OFFCURVE",
"207 515 OFFCURVE",
"264 515 CURVE SMOOTH",
"325 515 OFFCURVE",
"348 464 OFFCURVE",
"348 353 CURVE SMOOTH"
);
}
);
width = 534;
}
);
leftKerningGroup = a;
rightKerningGroup = a;
unicode = 0061;
},
{
glyphname = ae;
layers = (
{
layerId = UUID0;
paths = (
{
closed = 1;
nodes = (
"348 302 LINE",
"170 298 OFFCURVE",
"40 241 OFFCURVE",
"40 113 CURVE SMOOTH",
"40 33 OFFCURVE",
"89 -20 OFFCURVE",
"174 -20 CURVE SMOOTH",
"263 -20 OFFCURVE",
"336 16 OFFCURVE",
"383 78 CURVE",
"425 14 OFFCURVE",
"494 -20 OFFCURVE",
"586 -20 CURVE SMOOTH",
"667 -20 OFFCURVE",
"725 7 OFFCURVE",
"777 58 CURVE",
"771 75 OFFCURVE",
"767 81 OFFCURVE",
"754 89 CURVE",
"710 57 OFFCURVE",
"658 28 OFFCURVE",
"602 28 CURVE SMOOTH",
"481 28 OFFCURVE",
"439 132 OFFCURVE",
"444 282 CURVE",
"770 282 LINE",
"777 283 OFFCURVE",
"784 285 OFFCURVE",
"791 291 CURVE",
"791 431 OFFCURVE",
"741 554 OFFCURVE",
"582 554 CURVE SMOOTH",
"521 554 OFFCURVE",
"463 534 OFFCURVE",
"419 492 CURVE",
"393 538 OFFCURVE",
"343 554 OFFCURVE",
"265 554 CURVE SMOOTH",
"152 554 OFFCURVE",
"59 500 OFFCURVE",
"59 406 CURVE",
"64 387 OFFCURVE",
"79 378 OFFCURVE",
"105 378 CURVE SMOOTH",
"118 378 OFFCURVE",
"134 381 OFFCURVE",
"152 385 CURVE",
"166 485 OFFCURVE",
"207 515 OFFCURVE",
"264 515 CURVE SMOOTH",
"325 515 OFFCURVE",
"348 464 OFFCURVE",
"348 353 CURVE SMOOTH"
);
},
{
closed = 1;
nodes = (
"135 225 OFFCURVE",
"219 259 OFFCURVE",
"348 266 CURVE",
"348 153 LINE SMOOTH",
"348 102 OFFCURVE",
"285 38 OFFCURVE",
"214 38 CURVE SMOOTH",
"160 38 OFFCURVE",
"135 63 OFFCURVE",
"135 133 CURVE SMOOTH"
);
},
{
closed = 1;
nodes = (
"655 508 OFFCURVE",
"687 436 OFFCURVE",
"687 331 CURVE",
"679 329 OFFCURVE",
"635 322 OFFCURVE",
"571 322 CURVE SMOOTH",
"447 322 LINE",
"458 433 OFFCURVE",
"508 508 OFFCURVE",
"573 508 CURVE SMOOTH"
);
}
);
width = 832;
}
);
leftKerningGroup = a;
rightKerningGroup = e;
unicode = 00E6;
},
{
glyphname = b;
layers = (
{
layerId = UUID0;
paths = (
{
closed = 1;
nodes = (
"172 634 LINE SMOOTH",
"172 724 OFFCURVE",
"172 770 OFFCURVE",
"177 796 CURVE",
"176 803 OFFCURVE",
"173 809 OFFCURVE",
"167 816 CURVE",
"109 807 OFFCURVE",
"50 799 OFFCURVE",
"-5 795 CURVE",
"-7 782 OFFCURVE",
"-8 770 OFFCURVE",
"-5 757 CURVE",
"77 747 LINE",
"77 92 LINE",
"87 -18 LINE",
"99 -21 OFFCURVE",
"107 -20 OFFCURVE",
"119 -18 CURVE",
"140 50 LINE",
"180 0 OFFCURVE",
"240 -20 OFFCURVE",
"294 -20 CURVE SMOOTH",
"438 -20 OFFCURVE",
"559 90 OFFCURVE",
"559 284 CURVE SMOOTH",
"559 448 OFFCURVE",
"483 554 OFFCURVE",
"353 554 CURVE SMOOTH",
"279 554 OFFCURVE",
"220 519 OFFCURVE",
"172 471 CURVE"
);
},
{
closed = 1;
nodes = (
"251 35 OFFCURVE",
"217 52 OFFCURVE",
"172 104 CURVE",
"172 410 LINE",
"214 465 OFFCURVE",
"275 494 OFFCURVE",
"319 494 CURVE SMOOTH",
"395 494 OFFCURVE",
"458 424 OFFCURVE",
"458 287 CURVE",
"459 276 OFFCURVE",
"459 265 OFFCURVE",
"459 255 CURVE SMOOTH",
"459 109 OFFCURVE",
"394 35 OFFCURVE",
"316 35 CURVE SMOOTH"
);
}
);
width = 603;
}
);
leftKerningGroup = b;
unicode = 0062;
},
{
glyphname = c;
layers = (
{
layerId = UUID0;
paths = (
{
closed = 1;
nodes = (
"478 510 OFFCURVE",
"376 554 OFFCURVE",
"286 554 CURVE SMOOTH",
"170 554 OFFCURVE",
"45 458 OFFCURVE",
"45 266 CURVE SMOOTH",
"45 68 OFFCURVE",
"149 -20 OFFCURVE",
"280 -20 CURVE SMOOTH",
"356 -20 OFFCURVE",
"415 7 OFFCURVE",
"463 58 CURVE",
"457 75 OFFCURVE",
"453 81 OFFCURVE",
"440 89 CURVE",
"400 55 OFFCURVE",
"352 27 OFFCURVE",
"291 27 CURVE SMOOTH",
"194 27 OFFCURVE",
"147 114 OFFCURVE",
"147 264 CURVE SMOOTH",
"147 417 OFFCURVE",
"212 514 OFFCURVE",
"288 514 CURVE SMOOTH",
"328 514 OFFCURVE",
"366 485 OFFCURVE",
"379 385 CURVE",
"433 384 OFFCURVE",
"461 388 OFFCURVE",
"478 406 CURVE"
);
}
);
width = 512;
}
);
leftKerningGroup = o;
rightKerningGroup = c;
unicode = 0063;
},
{
glyphname = d;
layers = (
{
layerId = UUID0;
paths = (
{
closed = 1;
nodes = (
"526 634 LINE SMOOTH",
"526 724 OFFCURVE",
"526 770 OFFCURVE",
"531 796 CURVE",
"530 803 OFFCURVE",
"527 809 OFFCURVE",
"521 816 CURVE",
"463 807 OFFCURVE",
"404 799 OFFCURVE",
"349 795 CURVE",
"347 782 OFFCURVE",
"346 770 OFFCURVE",
"349 757 CURVE",
"428 747 LINE",
"431 715 OFFCURVE",
"431 686 OFFCURVE",
"431 649 CURVE SMOOTH",
"431 515 LINE",
"394 543 OFFCURVE",
"339 554 OFFCURVE",
"297 554 CURVE SMOOTH",
"165 554 OFFCURVE",
"44 439 OFFCURVE",
"44 245 CURVE SMOOTH",
"44 81 OFFCURVE",
"131 -21 OFFCURVE",
"245 -21 CURVE SMOOTH",
"324 -21 OFFCURVE",
"396 17 OFFCURVE",
"441 69 CURVE",
"446 5 LINE",
"448 -4 OFFCURVE",
"452 -10 OFFCURVE",
"456 -14 CURVE",
"506 -7 OFFCURVE",
"558 -2 OFFCURVE",
"608 0 CURVE",
"610 13 OFFCURVE",
"611 24 OFFCURVE",
"608 38 CURVE",
"529 48 LINE",
"526 75 OFFCURVE",
"526 106 OFFCURVE",
"526 142 CURVE"
);
},
{
closed = 1;
nodes = (
"340 500 OFFCURVE",
"395 485 OFFCURVE",
"431 444 CURVE",
"431 124 LINE",
"389 68 OFFCURVE",
"323 39 OFFCURVE",
"279 39 CURVE SMOOTH",
"203 39 OFFCURVE",
"146 105 OFFCURVE",
"146 242 CURVE SMOOTH",
"146 406 OFFCURVE",
"204 500 OFFCURVE",
"289 500 CURVE SMOOTH"
);
}
);
width = 625;
}
);
unicode = 0064;
},
{
glyphname = eth;
layers = (
{
layerId = UUID0;
paths = (
{
closed = 1;
nodes = (
"190 646 LINE",
"192 635 OFFCURVE",
"208 619 OFFCURVE",
"224 619 CURVE",
"301 699 LINE",
"360 649 OFFCURVE",
"409 575 OFFCURVE",
"437 475 CURVE",
"395 503 OFFCURVE",
"344 524 OFFCURVE",
"290 524 CURVE SMOOTH",
"130 524 OFFCURVE",
"45 405 OFFCURVE",
"45 266 CURVE SMOOTH",
"45 102 OFFCURVE",
"140 -20 OFFCURVE",
"300 -20 CURVE SMOOTH",
"450 -20 OFFCURVE",
"557 102 OFFCURVE",
"557 266 CURVE SMOOTH",
"557 272 OFFCURVE",
"557 278 OFFCURVE",
"556 284 CURVE",
"551 473 OFFCURVE",
"462 642 OFFCURVE",
"338 737 CURVE",
"412 813 LINE",
"408 827 OFFCURVE",
"397 843 OFFCURVE",
"378 845 CURVE",
"300 763 LINE",
"246 796 OFFCURVE",
"186 815 OFFCURVE",
"124 817 CURVE",
"119 804 OFFCURVE",
"118 791 OFFCURVE",
"124 778 CURVE",
"173 771 OFFCURVE",
"221 754 OFFCURVE",
"265 726 CURVE"
);
},
{
closed = 1;
nodes = (
"151 420 OFFCURVE",
"224 482 OFFCURVE",
"300 482 CURVE SMOOTH",
"376 482 OFFCURVE",
"451 420 OFFCURVE",
"451 266 CURVE SMOOTH",
"451 91 OFFCURVE",
"376 22 OFFCURVE",
"300 22 CURVE SMOOTH",
"224 22 OFFCURVE",
"151 91 OFFCURVE",
"151 266 CURVE SMOOTH"
);
}
);
width = 606;
}
);
unicode = 00F0;
},
{
glyphname = e;
layers = (
{
anchors = (
{
name = top;
position = "{285, 570}";
}
);
layerId = UUID0;
paths = (
{
closed = 1;
nodes = (
"461 282 LINE",
"469 283 OFFCURVE",
"474 285 OFFCURVE",
"482 291 CURVE",
"482 431 OFFCURVE",
"436 554 OFFCURVE",
"285 554 CURVE SMOOTH",
"169 554 OFFCURVE",
"45 460 OFFCURVE",
"45 267 CURVE SMOOTH",
"45 89 OFFCURVE",
"117 -20 OFFCURVE",
"289 -20 CURVE SMOOTH",
"362 -20 OFFCURVE",
"418 6 OFFCURVE",
"464 57 CURVE",
"458 74 OFFCURVE",
"454 80 OFFCURVE",
"441 88 CURVE",
"403 56 OFFCURVE",
"348 27 OFFCURVE",
"300 27 CURVE SMOOTH",
"179 27 OFFCURVE",
"142 138 OFFCURVE",
"147 282 CURVE"
);
},
{
closed = 1;
nodes = (
"348 514 OFFCURVE",
"380 436 OFFCURVE",
"380 331 CURVE",
"373 329 OFFCURVE",
"332 322 OFFCURVE",
"274 322 CURVE SMOOTH",
"150 322 LINE",
"161 433 OFFCURVE",
"213 514 OFFCURVE",
"283 514 CURVE SMOOTH"
);
}
);
width = 535;
}
);
leftKerningGroup = o;
rightKerningGroup = e;
unicode = 0065;
},
{
glyphname = f;
layers = (
{
layerId = UUID0;
paths = (
{
closed = 1;
nodes = (
"169 816 OFFCURVE",
"111 682 OFFCURVE",
"111 569 CURVE SMOOTH",
"111 501 LINE",
"40 501 LINE",
"36 488 OFFCURVE",
"36 475 OFFCURVE",
"40 462 CURVE",
"111 451 LINE",
"111 174 LINE SMOOTH",
"111 133 OFFCURVE",
"110 92 OFFCURVE",
"107 52 CURVE",
"34 36 LINE",
"29 23 OFFCURVE",
"28 10 OFFCURVE",
"34 -3 CURVE",
"76 -2 OFFCURVE",
"125 -1 OFFCURVE",
"172 -1 CURVE SMOOTH",
"219 -1 OFFCURVE",
"285 -2 OFFCURVE",
"327 -4 CURVE",
"331 9 OFFCURVE",
"331 23 OFFCURVE",
"327 36 CURVE",
"206 56 LINE",
"206 441 LINE",
"347 462 LINE",
"351 475 OFFCURVE",
"351 488 OFFCURVE",
"347 501 CURVE",
"206 501 LINE",
"206 718 OFFCURVE",
"225 782 OFFCURVE",
"275 782 CURVE SMOOTH",
"299 782 OFFCURVE",
"318 761 OFFCURVE",
"326 677 CURVE",
"380 676 OFFCURVE",
"409 680 OFFCURVE",
"426 698 CURVE",
"426 791 OFFCURVE",
"360 816 OFFCURVE",
"282 816 CURVE SMOOTH"
);
}
);
width = 377;
}
);
unicode = 0066;
},
{
glyphname = g;
layers = (
{
layerId = UUID0;
paths = (
{
closed = 1;
nodes = (
"69 -23 OFFCURVE",
"26 -69 OFFCURVE",
"26 -127 CURVE SMOOTH",
"26 -208 OFFCURVE",
"104 -263 OFFCURVE",
"242 -263 CURVE SMOOTH",
"403 -263 OFFCURVE",
"509 -192 OFFCURVE",
"509 -56 CURVE SMOOTH",
"509 19 OFFCURVE",
"469 69 OFFCURVE",
"390 79 CURVE",
"141 104 LINE",
"175 193 LINE",
"199 185 OFFCURVE",
"225 181 OFFCURVE",
"256 181 CURVE SMOOTH",
"365 181 OFFCURVE",
"469 257 OFFCURVE",
"469 365 CURVE SMOOTH",
"469 418 OFFCURVE",
"449 460 OFFCURVE",
"419 490 CURVE",
"431 522 OFFCURVE",
"462 562 OFFCURVE",
"519 567 CURVE",
"522 585 OFFCURVE",
"523 599 OFFCURVE",
"523 611 CURVE SMOOTH",
"523 638 OFFCURVE",
"515 650 OFFCURVE",
"497 654 CURVE",
"426 650 OFFCURVE",
"398 592 OFFCURVE",
"395 512 CURVE",
"355 540 OFFCURVE",
"305 554 OFFCURVE",
"256 554 CURVE SMOOTH",
"154 554 OFFCURVE",
"48 484 OFFCURVE",
"48 365 CURVE SMOOTH",
"48 309 OFFCURVE",
"76 244 OFFCURVE",
"141 208 CURVE",
"74 97 LINE",
"74 64 OFFCURVE",
"102 15 OFFCURVE",
"146 9 CURVE",
"333 -8 LINE SMOOTH",
"414 -15 OFFCURVE",
"428 -51 OFFCURVE",
"428 -114 CURVE SMOOTH",
"428 -180 OFFCURVE",
"352 -215 OFFCURVE",
"260 -215 CURVE SMOOTH",
"167 -215 OFFCURVE",
"102 -174 OFFCURVE",
"102 -109 CURVE SMOOTH",
"102 -71 OFFCURVE",
"113 -46 OFFCURVE",
"135 -28 CURVE",
"131 -20 OFFCURVE",
"126 -14 OFFCURVE",
"120 -11 CURVE"
);
},
{
closed = 1;
nodes = (
"138 449 OFFCURVE",
"188 514 OFFCURVE",
"257 514 CURVE SMOOTH",
"330 514 OFFCURVE",
"378 449 OFFCURVE",
"378 365 CURVE SMOOTH",
"378 289 OFFCURVE",
"330 225 OFFCURVE",
"257 225 CURVE SMOOTH",
"182 225 OFFCURVE",
"138 291 OFFCURVE",
"138 365 CURVE SMOOTH"
);
}
);
width = 524;
}
);
unicode = 0067;
},
{
glyphname = h;
layers = (
{
layerId = UUID0;
paths = (
{
closed = 1;
nodes = (
"102 174 LINE SMOOTH",
"102 133 OFFCURVE",
"101 88 OFFCURVE",
"98 47 CURVE",
"19 36 LINE",
"15 23 OFFCURVE",
"15 10 OFFCURVE",
"19 -3 CURVE",
"61 -2 OFFCURVE",
"105 -1 OFFCURVE",
"149 -1 CURVE SMOOTH",
"192 -1 OFFCURVE",
"235 -2 OFFCURVE",
"277 -4 CURVE",
"279 9 OFFCURVE",
"280 23 OFFCURVE",
"277 36 CURVE",
"196 51 LINE",
"196 383 LINE",
"241 456 OFFCURVE",
"301 492 OFFCURVE",
"349 492 CURVE SMOOTH",
"412 492 OFFCURVE",
"430 449 OFFCURVE",
"430 360 CURVE SMOOTH",
"430 174 LINE SMOOTH",
"430 133 OFFCURVE",
"429 88 OFFCURVE",
"426 47 CURVE",
"347 36 LINE",
"343 23 OFFCURVE",
"343 10 OFFCURVE",
"347 -3 CURVE",
"389 -2 OFFCURVE",
"433 -1 OFFCURVE",
"477 -1 CURVE SMOOTH",
"520 -1 OFFCURVE",
"563 -2 OFFCURVE",
"605 -4 CURVE",
"607 9 OFFCURVE",
"608 23 OFFCURVE",
"605 36 CURVE",
"524 51 LINE",
"524 410 LINE SMOOTH",
"524 520 OFFCURVE",
"443 547 OFFCURVE",
"374 547 CURVE SMOOTH",
"303 547 OFFCURVE",
"241 507 OFFCURVE",
"196 445 CURVE",
"196 634 LINE SMOOTH",
"196 724 OFFCURVE",
"196 770 OFFCURVE",
"201 796 CURVE",
"200 803 OFFCURVE",
"197 809 OFFCURVE",
"191 816 CURVE",
"133 807 OFFCURVE",
"75 799 OFFCURVE",
"20 795 CURVE",
"18 782 OFFCURVE",
"17 770 OFFCURVE",
"20 757 CURVE",
"99 747 LINE",
"102 715 OFFCURVE",
"102 686 OFFCURVE",
"102 649 CURVE"
);
}
);
width = 621;
}
);
leftKerningGroup = h;
rightKerningGroup = n;
unicode = 0068;
},
{
glyphname = i;
layers = (
{
layerId = UUID0;
paths = (
{
closed = 1;
nodes = (
"208 372 LINE SMOOTH",
"208 462 OFFCURVE",
"208 508 OFFCURVE",
"213 534 CURVE",
"212 541 OFFCURVE",
"209 547 OFFCURVE",
"203 554 CURVE",
"145 545 OFFCURVE",
"86 537 OFFCURVE",
"31 533 CURVE",
"29 520 OFFCURVE",
"28 508 OFFCURVE",
"31 495 CURVE",
"110 485 LINE",
"113 453 OFFCURVE",
"113 424 OFFCURVE",
"113 387 CURVE SMOOTH",
"113 174 LINE SMOOTH",
"113 133 OFFCURVE",
"112 88 OFFCURVE",
"109 47 CURVE",
"30 36 LINE",
"26 23 OFFCURVE",
"26 10 OFFCURVE",
"30 -3 CURVE",
"72 -2 OFFCURVE",
"116 -1 OFFCURVE",
"160 -1 CURVE SMOOTH",
"204 -1 OFFCURVE",
"247 -2 OFFCURVE",
"289 -4 CURVE",
"291 9 OFFCURVE",
"292 23 OFFCURVE",
"289 36 CURVE",
"208 51 LINE"
);
},
{
closed = 1;
nodes = (
"71 695 OFFCURVE",
"108 675 OFFCURVE",
"148 685 CURVE SMOOTH",
"167 689 OFFCURVE",
"187 696 OFFCURVE",
"198 709 CURVE SMOOTH",
"209 723 OFFCURVE",
"209 745 OFFCURVE",
"205 764 CURVE",
"196 798 OFFCURVE",
"157 818 OFFCURVE",
"118 808 CURVE SMOOTH",
"101 804 OFFCURVE",
"81 796 OFFCURVE",
"71 784 CURVE SMOOTH",
"58 769 OFFCURVE",
"58 747 OFFCURVE",
"62 729 CURVE SMOOTH"
);
}
);
width = 310;
}
);
leftKerningGroup = i;
rightKerningGroup = i;
unicode = 0069;
},
{
glyphname = idotless;
layers = (
{
anchors = (
{
name = top;
position = "{149, 570}";
}
);
layerId = UUID0;
paths = (
{
closed = 1;
nodes = (
"208 372 LINE SMOOTH",
"208 462 OFFCURVE",
"208 508 OFFCURVE",
"213 534 CURVE",
"212 541 OFFCURVE",
"209 547 OFFCURVE",
"203 554 CURVE",
"145 545 OFFCURVE",
"86 537 OFFCURVE",
"31 533 CURVE",
"29 520 OFFCURVE",
"28 508 OFFCURVE",
"31 495 CURVE",
"110 485 LINE",
"113 453 OFFCURVE",
"113 424 OFFCURVE",
"113 387 CURVE SMOOTH",
"113 174 LINE SMOOTH",
"113 133 OFFCURVE",
"112 88 OFFCURVE",
"109 47 CURVE",
"30 36 LINE",
"26 23 OFFCURVE",
"26 10 OFFCURVE",
"30 -3 CURVE",
"72 -2 OFFCURVE",
"116 -1 OFFCURVE",
"160 -1 CURVE SMOOTH",
"204 -1 OFFCURVE",
"247 -2 OFFCURVE",
"289 -4 CURVE",
"291 9 OFFCURVE",
"292 23 OFFCURVE",
"289 36 CURVE",
"208 51 LINE"
);
}
);
width = 310;
}
);
leftKerningGroup = i;
rightKerningGroup = i;
unicode = 0131;
},
{
glyphname = j;
layers = (
{
layerId = UUID0;
paths = (
{
closed = 1;
nodes = (
"104 -43 LINE SMOOTH",
"104 -198 OFFCURVE",
"92 -255 OFFCURVE",
"60 -255 CURVE SMOOTH",
"43 -255 OFFCURVE",
"36 -228 OFFCURVE",
"29 -184 CURVE",
"19 -182 OFFCURVE",
"9 -181 OFFCURVE",
"0 -181 CURVE SMOOTH",
"-29 -181 OFFCURVE",
"-52 -192 OFFCURVE",
"-68 -215 CURVE",
"-68 -265 OFFCURVE",
"-39 -290 OFFCURVE",
"43 -290 CURVE SMOOTH",
"157 -290 OFFCURVE",
"199 -142 OFFCURVE",
"199 10 CURVE SMOOTH",
"199 372 LINE SMOOTH",
"199 462 OFFCURVE",
"199 508 OFFCURVE",
"204 534 CURVE",
"203 541 OFFCURVE",
"200 547 OFFCURVE",
"194 554 CURVE",
"136 545 OFFCURVE",
"67 537 OFFCURVE",
"12 533 CURVE",
"10 520 OFFCURVE",
"9 508 OFFCURVE",
"12 495 CURVE",
"101 485 LINE",
"104 453 OFFCURVE",
"104 424 OFFCURVE",
"104 387 CURVE SMOOTH"
);
},
{
closed = 1;
nodes = (
"62 695 OFFCURVE",
"99 675 OFFCURVE",
"139 685 CURVE SMOOTH",
"158 689 OFFCURVE",
"178 696 OFFCURVE",
"189 709 CURVE SMOOTH",
"200 723 OFFCURVE",
"200 745 OFFCURVE",
"196 764 CURVE",
"187 798 OFFCURVE",
"148 818 OFFCURVE",
"109 808 CURVE SMOOTH",
"92 804 OFFCURVE",
"72 796 OFFCURVE",
"62 784 CURVE SMOOTH",
"49 769 OFFCURVE",
"49 747 OFFCURVE",
"53 729 CURVE SMOOTH"
);
}
);
width = 278;
}
);
unicode = 006A;
},
{
glyphname = k;
layers = (
{
layerId = UUID0;
paths = (
{
closed = 1;
nodes = (
"207 288 LINE",
"410 46 LINE",
"344 37 LINE",
"340 24 OFFCURVE",
"340 11 OFFCURVE",
"344 -2 CURVE",
"386 -1 OFFCURVE",
"429 0 OFFCURVE",
"471 0 CURVE SMOOTH",
"513 0 OFFCURVE",
"555 -1 OFFCURVE",
"597 -3 CURVE",
"599 10 OFFCURVE",
"600 24 OFFCURVE",
"597 37 CURVE",
"519 57 LINE",
"301 318 LINE",
"478 484 LINE",
"557 498 LINE",
"561 511 OFFCURVE",
"561 524 OFFCURVE",
"557 536 CURVE",
"514 534 OFFCURVE",
"484 533 OFFCURVE",
"453 533 CURVE SMOOTH",
"422 533 OFFCURVE",
"391 534 OFFCURVE",
"350 537 CURVE",
"348 525 OFFCURVE",
"347 511 OFFCURVE",
"350 498 CURVE",
"416 490 LINE"
);
},
{
closed = 1;
nodes = (
"196 634 LINE SMOOTH",
"196 724 OFFCURVE",
"196 770 OFFCURVE",
"201 796 CURVE",
"200 803 OFFCURVE",
"197 809 OFFCURVE",
"191 816 CURVE",
"133 807 OFFCURVE",
"75 799 OFFCURVE",
"20 795 CURVE",
"18 782 OFFCURVE",
"17 770 OFFCURVE",
"20 757 CURVE",
"102 747 LINE",
"102 174 LINE SMOOTH",
"102 133 OFFCURVE",
"101 88 OFFCURVE",
"98 47 CURVE",
"19 36 LINE",
"15 23 OFFCURVE",
"15 10 OFFCURVE",
"19 -3 CURVE",
"61 -2 OFFCURVE",
"105 -1 OFFCURVE",
"149 -1 CURVE SMOOTH",
"192 -1 OFFCURVE",
"235 -2 OFFCURVE",
"277 -4 CURVE",
"279 9 OFFCURVE",
"280 23 OFFCURVE",
"277 36 CURVE",
"196 51 LINE"
);
}
);
width = 598;
}
);
leftKerningGroup = h;
unicode = 006B;
},
{
glyphname = l;
layers = (
{
layerId = UUID0;
paths = (
{
closed = 1;
nodes = (
"197 634 LINE SMOOTH",
"197 724 OFFCURVE",
"197 770 OFFCURVE",
"202 796 CURVE",
"201 803 OFFCURVE",
"198 809 OFFCURVE",
"192 816 CURVE",
"134 807 OFFCURVE",
"75 799 OFFCURVE",
"20 795 CURVE",
"18 782 OFFCURVE",
"17 770 OFFCURVE",
"20 757 CURVE",
"102 747 LINE",
"102 174 LINE SMOOTH",
"102 133 OFFCURVE",
"101 88 OFFCURVE",
"98 47 CURVE",
"19 36 LINE",
"15 23 OFFCURVE",
"15 10 OFFCURVE",
"19 -3 CURVE",
"61 -2 OFFCURVE",
"105 -1 OFFCURVE",
"149 -1 CURVE SMOOTH",
"193 -1 OFFCURVE",
"236 -2 OFFCURVE",
"278 -4 CURVE",
"280 9 OFFCURVE",
"281 23 OFFCURVE",
"278 36 CURVE",
"197 51 LINE"
);
}
);
width = 299;
}
);
unicode = 006C;
},
{
glyphname = m;
layers = (
{
layerId = UUID0;
paths = (
{
closed = 1;
nodes = (
"772 174 LINE SMOOTH",
"772 133 OFFCURVE",
"771 88 OFFCURVE",
"768 47 CURVE",
"689 36 LINE",
"685 23 OFFCURVE",
"685 10 OFFCURVE",
"689 -3 CURVE",
"731 -2 OFFCURVE",
"775 -1 OFFCURVE",
"819 -1 CURVE SMOOTH",
"862 -1 OFFCURVE",
"905 -2 OFFCURVE",
"947 -4 CURVE",
"949 9 OFFCURVE",
"950 23 OFFCURVE",
"947 36 CURVE",
"866 51 LINE",
"866 407 LINE SMOOTH",
"866 517 OFFCURVE",
"781 554 OFFCURVE",
"712 554 CURVE SMOOTH",
"641 554 OFFCURVE",
"580 507 OFFCURVE",
"535 446 CURVE",
"517 526 OFFCURVE",
"445 554 OFFCURVE",
"385 554 CURVE SMOOTH",
"314 554 OFFCURVE",
"252 507 OFFCURVE",
"207 445 CURVE",
"207 503 OFFCURVE",
"207 508 OFFCURVE",
"212 534 CURVE",
"211 541 OFFCURVE",
"208 547 OFFCURVE",
"202 554 CURVE",
"144 545 OFFCURVE",
"86 537 OFFCURVE",
"31 533 CURVE",
"29 520 OFFCURVE",
"28 508 OFFCURVE",
"31 495 CURVE",
"110 485 LINE",
"112 474 OFFCURVE",
"113 464 OFFCURVE",
"113 448 CURVE SMOOTH",
"113 174 LINE SMOOTH",
"113 133 OFFCURVE",
"112 88 OFFCURVE",
"109 47 CURVE",
"30 36 LINE",
"26 23 OFFCURVE",
"26 10 OFFCURVE",
"30 -3 CURVE",
"72 -2 OFFCURVE",
"116 -1 OFFCURVE",
"160 -1 CURVE SMOOTH",
"203 -1 OFFCURVE",
"246 -2 OFFCURVE",
"288 -4 CURVE",
"290 9 OFFCURVE",
"291 23 OFFCURVE",
"288 36 CURVE",
"207 51 LINE",
"207 383 LINE",
"252 456 OFFCURVE",
"293 496 OFFCURVE",
"356 496 CURVE SMOOTH",
"419 496 OFFCURVE",
"445 446 OFFCURVE",
"445 357 CURVE SMOOTH",
"445 174 LINE SMOOTH",
"445 133 OFFCURVE",
"444 88 OFFCURVE",
"441 47 CURVE",
"362 36 LINE",
"358 23 OFFCURVE",
"358 10 OFFCURVE",
"362 -3 CURVE",
"404 -2 OFFCURVE",
"448 -1 OFFCURVE",
"492 -1 CURVE SMOOTH",
"535 -1 OFFCURVE",
"578 -2 OFFCURVE",
"620 -4 CURVE",
"622 9 OFFCURVE",
"623 23 OFFCURVE",
"620 36 CURVE",
"539 51 LINE",
"539 391 LINE",
"583 459 OFFCURVE",
"636 496 OFFCURVE",
"683 496 CURVE SMOOTH",
"746 496 OFFCURVE",
"772 446 OFFCURVE",
"772 357 CURVE"
);
}
);
width = 961;
}
);
leftKerningGroup = n;
rightKerningGroup = n;
unicode = 006D;
},
{
glyphname = n;
layers = (
{
anchors = (
{
name = top;
position = "{322, 570}";
}
);
layerId = UUID0;
paths = (
{
closed = 1;
nodes = (
"446 174 LINE SMOOTH",
"446 133 OFFCURVE",
"445 88 OFFCURVE",
"442 47 CURVE",
"363 36 LINE",
"359 23 OFFCURVE",
"359 10 OFFCURVE",
"363 -3 CURVE",
"405 -2 OFFCURVE",
"449 -1 OFFCURVE",
"493 -1 CURVE SMOOTH",
"537 -1 OFFCURVE",
"580 -2 OFFCURVE",
"622 -4 CURVE",
"624 9 OFFCURVE",
"625 23 OFFCURVE",
"622 36 CURVE",
"541 51 LINE",
"541 407 LINE SMOOTH",
"541 507 OFFCURVE",
"488 554 OFFCURVE",
"386 554 CURVE SMOOTH",
"315 554 OFFCURVE",
"253 507 OFFCURVE",
"208 445 CURVE",
"208 503 OFFCURVE",
"208 508 OFFCURVE",
"213 534 CURVE",
"212 541 OFFCURVE",
"209 547 OFFCURVE",
"203 554 CURVE",
"145 545 OFFCURVE",
"86 537 OFFCURVE",
"31 533 CURVE",
"29 520 OFFCURVE",
"28 508 OFFCURVE",
"31 495 CURVE",
"110 485 LINE",
"112 474 OFFCURVE",
"113 464 OFFCURVE",
"113 448 CURVE SMOOTH",
"113 174 LINE SMOOTH",
"113 133 OFFCURVE",
"112 88 OFFCURVE",
"109 47 CURVE",
"30 36 LINE",
"26 23 OFFCURVE",
"26 10 OFFCURVE",
"30 -3 CURVE",
"72 -2 OFFCURVE",
"116 -1 OFFCURVE",
"160 -1 CURVE SMOOTH",
"204 -1 OFFCURVE",
"247 -2 OFFCURVE",
"289 -4 CURVE",
"291 9 OFFCURVE",
"292 23 OFFCURVE",
"289 36 CURVE",
"208 51 LINE",
"208 385 LINE",
"255 455 OFFCURVE",
"309 496 OFFCURVE",
"357 496 CURVE SMOOTH",
"420 496 OFFCURVE",
"446 462 OFFCURVE",
"446 357 CURVE"
);
}
);
width = 637;
}
);
leftKerningGroup = n;
rightKerningGroup = n;
unicode = 006E;
},
{
glyphname = o;
layers = (
{
anchors = (
{
name = top;
position = "{298, 570}";
}
);
layerId = UUID0;
paths = (
{
closed = 1;
nodes = (
"43 102 OFFCURVE",
"138 -20 OFFCURVE",
"298 -20 CURVE SMOOTH",
"448 -20 OFFCURVE",
"555 102 OFFCURVE",
"555 266 CURVE SMOOTH",
"555 420 OFFCURVE",
"458 554 OFFCURVE",
"298 554 CURVE SMOOTH",
"138 554 OFFCURVE",
"43 420 OFFCURVE",
"43 266 CURVE SMOOTH"
);
},
{
closed = 1;
nodes = (
"149 441 OFFCURVE",
"222 512 OFFCURVE",
"298 512 CURVE SMOOTH",
"374 512 OFFCURVE",
"449 441 OFFCURVE",
"449 266 CURVE SMOOTH",
"449 91 OFFCURVE",
"374 22 OFFCURVE",
"298 22 CURVE SMOOTH",
"222 22 OFFCURVE",
"149 91 OFFCURVE",
"149 266 CURVE SMOOTH"
);
}
);
width = 598;
}
);
leftKerningGroup = o;
rightKerningGroup = o;
unicode = 006F;
},
{
glyphname = oslash;
layers = (
{
anchors = (
{
name = top;
position = "{298, 570}";
}
);
layerId = UUID0;
paths = (
{
closed = 1;
nodes = (
"403 594 LINE",
"382 540 LINE",
"357 549 OFFCURVE",
"328 554 OFFCURVE",
"298 554 CURVE SMOOTH",
"138 554 OFFCURVE",
"43 420 OFFCURVE",
"43 266 CURVE SMOOTH",
"43 151 OFFCURVE",
"89 57 OFFCURVE",
"172 11 CURVE",
"149 -53 LINE",
"199 -53 LINE",
"216 -8 LINE",
"241 -16 OFFCURVE",
"268 -20 OFFCURVE",
"298 -20 CURVE SMOOTH",
"448 -20 OFFCURVE",
"555 102 OFFCURVE",
"555 266 CURVE SMOOTH",
"555 373 OFFCURVE",
"507 470 OFFCURVE",
"425 520 CURVE",
"453 594 LINE"
);
},
{
closed = 1;
nodes = (
"149 441 OFFCURVE",
"222 512 OFFCURVE",
"298 512 CURVE SMOOTH",
"319 512 OFFCURVE",
"341 506 OFFCURVE",
"360 494 CURVE",
"200 71 LINE",
"169 109 OFFCURVE",
"149 173 OFFCURVE",
"149 266 CURVE SMOOTH"
);
},
{
closed = 1;
nodes = (
"449 91 OFFCURVE",
"374 22 OFFCURVE",
"298 22 CURVE SMOOTH",
"277 22 OFFCURVE",
"257 27 OFFCURVE",
"238 38 CURVE",
"398 460 LINE",
"428 420 OFFCURVE",
"449 357 OFFCURVE",
"449 266 CURVE SMOOTH"
);
}
);
width = 598;
}
);
leftKerningGroup = o;
rightKerningGroup = o;
unicode = 00F8;
},
{
glyphname = oe;
layers = (
{
layerId = UUID0;
paths = (
{
closed = 1;
nodes = (
"43 102 OFFCURVE",
"138 -20 OFFCURVE",
"298 -20 CURVE SMOOTH",
"377 -20 OFFCURVE",
"445 14 OFFCURVE",
"491 70 CURVE",
"533 12 OFFCURVE",
"599 -20 OFFCURVE",
"687 -20 CURVE SMOOTH",
"768 -20 OFFCURVE",
"826 7 OFFCURVE",
"878 58 CURVE",
"872 75 OFFCURVE",
"868 81 OFFCURVE",
"855 89 CURVE",
"811 57 OFFCURVE",
"759 28 OFFCURVE",
"703 28 CURVE SMOOTH",
"582 28 OFFCURVE",
"540 132 OFFCURVE",
"545 282 CURVE",
"871 282 LINE",
"878 283 OFFCURVE",
"885 285 OFFCURVE",
"892 291 CURVE",
"892 431 OFFCURVE",
"842 554 OFFCURVE",
"683 554 CURVE SMOOTH",
"608 554 OFFCURVE",
"538 523 OFFCURVE",
"493 460 CURVE",
"448 517 OFFCURVE",
"381 554 OFFCURVE",
"298 554 CURVE SMOOTH",
"138 554 OFFCURVE",
"43 420 OFFCURVE",
"43 266 CURVE SMOOTH"
);
},
{
closed = 1;
nodes = (
"149 441 OFFCURVE",
"222 512 OFFCURVE",
"298 512 CURVE SMOOTH",
"374 512 OFFCURVE",
"449 441 OFFCURVE",
"449 266 CURVE SMOOTH",
"449 91 OFFCURVE",
"374 22 OFFCURVE",
"298 22 CURVE SMOOTH",
"222 22 OFFCURVE",
"149 91 OFFCURVE",
"149 266 CURVE SMOOTH"
);
},
{
closed = 1;
nodes = (
"756 508 OFFCURVE",
"788 436 OFFCURVE",
"788 331 CURVE",
"780 329 OFFCURVE",
"736 322 OFFCURVE",
"672 322 CURVE SMOOTH",
"548 322 LINE",
"559 433 OFFCURVE",
"609 508 OFFCURVE",
"674 508 CURVE SMOOTH"
);
}
);
width = 933;
}
);
leftKerningGroup = o;
rightKerningGroup = e;
unicode = 0153;
},
{
glyphname = p;
layers = (
{
layerId = UUID0;
paths = (
{
closed = 1;
nodes = (
"287 34 OFFCURVE",
"239 49 OFFCURVE",
"196 98 CURVE",
"196 409 LINE",
"238 465 OFFCURVE",
"290 494 OFFCURVE",
"348 494 CURVE SMOOTH",
"424 494 OFFCURVE",
"481 428 OFFCURVE",
"481 291 CURVE SMOOTH",
"481 113 OFFCURVE",
"423 34 OFFCURVE",
"338 34 CURVE SMOOTH"
);
},
{
closed = 1;
nodes = (
"101 -95 LINE SMOOTH",
"101 -136 OFFCURVE",
"100 -181 OFFCURVE",
"97 -222 CURVE",
"18 -233 LINE",
"14 -246 OFFCURVE",
"14 -259 OFFCURVE",
"18 -272 CURVE",
"60 -271 OFFCURVE",
"109 -270 OFFCURVE",
"158 -270 CURVE SMOOTH",
"207 -270 OFFCURVE",
"255 -271 OFFCURVE",
"297 -273 CURVE",
"299 -260 OFFCURVE",
"300 -246 OFFCURVE",
"297 -233 CURVE",
"196 -218 LINE",
"196 27 LINE",
"236 -4 OFFCURVE",
"288 -20 OFFCURVE",
"330 -20 CURVE SMOOTH",
"462 -20 OFFCURVE",
"587 94 OFFCURVE",
"587 288 CURVE SMOOTH",
"587 452 OFFCURVE",
"496 554 OFFCURVE",
"382 554 CURVE SMOOTH",
"303 554 OFFCURVE",
"241 512 OFFCURVE",
"196 460 CURVE",
"196 493 OFFCURVE",
"197 506 OFFCURVE",
"201 534 CURVE",
"200 542 OFFCURVE",
"197 548 OFFCURVE",
"191 554 CURVE",
"134 545 OFFCURVE",
"76 537 OFFCURVE",
"19 533 CURVE",
"17 520 OFFCURVE",
"16 509 OFFCURVE",
"19 495 CURVE",
"98 485 LINE",
"101 458 OFFCURVE",
"101 427 OFFCURVE",
"101 391 CURVE"
);
}
);
width = 631;
}
);
rightKerningGroup = p;
unicode = 0070;
},
{
glyphname = thorn;
layers = (
{
layerId = UUID0;
paths = (
{
closed = 1;
nodes = (
"265 34 OFFCURVE",
"217 49 OFFCURVE",
"174 98 CURVE",
"174 409 LINE",
"216 465 OFFCURVE",
"268 494 OFFCURVE",
"326 494 CURVE SMOOTH",
"408 494 OFFCURVE",
"469 428 OFFCURVE",
"469 291 CURVE SMOOTH",
"469 113 OFFCURVE",
"407 34 OFFCURVE",
"316 34 CURVE SMOOTH"
);
},
{
closed = 1;
nodes = (
"79 -95 LINE SMOOTH",
"79 -136 OFFCURVE",
"78 -181 OFFCURVE",
"75 -222 CURVE",
"-4 -233 LINE",
"-8 -246 OFFCURVE",
"-8 -259 OFFCURVE",
"-4 -272 CURVE",
"38 -271 OFFCURVE",
"87 -270 OFFCURVE",
"136 -270 CURVE SMOOTH",
"185 -270 OFFCURVE",
"233 -271 OFFCURVE",
"275 -273 CURVE",
"277 -260 OFFCURVE",
"278 -246 OFFCURVE",
"275 -233 CURVE",
"174 -218 LINE",
"174 27 LINE",
"214 -4 OFFCURVE",
"266 -20 OFFCURVE",
"308 -20 CURVE SMOOTH",
"445 -20 OFFCURVE",
"575 94 OFFCURVE",
"575 288 CURVE SMOOTH",
"575 452 OFFCURVE",
"480 554 OFFCURVE",
"360 554 CURVE SMOOTH",
"281 554 OFFCURVE",
"219 512 OFFCURVE",
"174 460 CURVE",
"174 738 LINE SMOOTH",
"174 760 OFFCURVE",
"176 773 OFFCURVE",
"179 796 CURVE",
"178 804 OFFCURVE",
"175 810 OFFCURVE",
"169 816 CURVE",
"112 807 OFFCURVE",
"54 799 OFFCURVE",
"-3 795 CURVE",
"-5 782 OFFCURVE",
"-6 771 OFFCURVE",
"-3 757 CURVE",
"76 747 LINE",
"79 720 OFFCURVE",
"79 689 OFFCURVE",
"79 653 CURVE"
);
}
);
width = 619;
}
);
leftKerningGroup = b;
rightKerningGroup = p;
unicode = 00FE;
},
{
glyphname = q;
layers = (
{
layerId = UUID0;
paths = (
{
closed = 1;
nodes = (
"531 -218 LINE",
"531 363 LINE",
"535 427 OFFCURVE",
"540 488 OFFCURVE",
"556 545 CURVE",
"545 550 OFFCURVE",
"514 554 OFFCURVE",
"502 554 CURVE",
"468 471 LINE",
"434 526 OFFCURVE",
"370 554 OFFCURVE",
"313 554 CURVE SMOOTH",
"171 554 OFFCURVE",
"44 452 OFFCURVE",
"44 258 CURVE SMOOTH",
"44 94 OFFCURVE",
"140 -20 OFFCURVE",
"255 -20 CURVE SMOOTH",
"329 -20 OFFCURVE",
"388 15 OFFCURVE",
"436 63 CURVE",
"436 -82 LINE SMOOTH",
"436 -123 OFFCURVE",
"435 -181 OFFCURVE",
"432 -222 CURVE",
"343 -233 LINE",
"339 -246 OFFCURVE",
"339 -259 OFFCURVE",
"343 -272 CURVE",
"385 -271 OFFCURVE",
"432 -270 OFFCURVE",
"478 -270 CURVE SMOOTH",
"524 -270 OFFCURVE",
"570 -271 OFFCURVE",
"612 -273 CURVE",
"614 -260 OFFCURVE",
"615 -246 OFFCURVE",
"612 -233 CURVE"
);
},
{
closed = 1;
nodes = (
"350 500 OFFCURVE",
"394 484 OFFCURVE",
"436 430 CURVE",
"436 124 LINE",
"394 69 OFFCURVE",
"333 40 OFFCURVE",
"289 40 CURVE SMOOTH",
"213 40 OFFCURVE",
"150 118 OFFCURVE",
"150 255 CURVE SMOOTH",
"150 412 OFFCURVE",
"214 500 OFFCURVE",
"299 500 CURVE SMOOTH"
);
}
);
width = 614;
}
);
unicode = 0071;
},
{
glyphname = r;
layers = (
{
layerId = UUID0;
paths = (
{
closed = 1;
nodes = (
"213 534 LINE",
"212 541 OFFCURVE",
"209 547 OFFCURVE",
"203 554 CURVE",
"145 545 OFFCURVE",
"86 537 OFFCURVE",
"31 533 CURVE",
"29 520 OFFCURVE",
"28 508 OFFCURVE",
"31 495 CURVE",
"110 485 LINE",
"112 474 OFFCURVE",
"113 464 OFFCURVE",
"113 448 CURVE SMOOTH",
"113 174 LINE SMOOTH",
"113 133 OFFCURVE",
"112 88 OFFCURVE",
"109 47 CURVE",
"30 36 LINE",
"26 23 OFFCURVE",
"26 10 OFFCURVE",
"30 -3 CURVE",
"72 -2 OFFCURVE",
"124 -1 OFFCURVE",
"175 -1 CURVE SMOOTH",
"226 -1 OFFCURVE",
"277 -2 OFFCURVE",
"319 -4 CURVE",
"321 9 OFFCURVE",
"322 23 OFFCURVE",
"319 36 CURVE",
"208 51 LINE",
"208 202 LINE",
"210 377 LINE",
"247 433 OFFCURVE",
"290 457 OFFCURVE",
"345 457 CURVE SMOOTH",
"366 457 OFFCURVE",
"389 454 OFFCURVE",
"414 447 CURVE",
"422 466 OFFCURVE",
"428 492 OFFCURVE",
"428 513 CURVE SMOOTH",
"428 527 OFFCURVE",
"425 539 OFFCURVE",
"420 547 CURVE",
"399 553 OFFCURVE",
"385 554 OFFCURVE",
"365 554 CURVE SMOOTH",
"308 554 OFFCURVE",
"241 487 OFFCURVE",
"211 431 CURVE"
);
}
);
width = 435;
}
);
leftKerningGroup = n;
unicode = 0072;
},
{
glyphname = s;
layers = (
{
layerId = UUID0;
paths = (
{
closed = 1;
nodes = (
"183 24 OFFCURVE",
"149 31 OFFCURVE",
"114 47 CURVE",
"92 146 LINE",
"45 146 LINE",
"45 18 LINE",
"97 -8 OFFCURVE",
"151 -20 OFFCURVE",
"212 -20 CURVE SMOOTH",
"335 -20 OFFCURVE",
"418 50 OFFCURVE",
"418 143 CURVE SMOOTH",
"418 234 OFFCURVE",
"345 278 OFFCURVE",
"253 324 CURVE SMOOTH",
"173 364 OFFCURVE",
"139 402 OFFCURVE",
"139 450 CURVE SMOOTH",
"139 490 OFFCURVE",
"161 517 OFFCURVE",
"221 517 CURVE SMOOTH",
"254 517 OFFCURVE",
"281 512 OFFCURVE",
"314 496 CURVE",
"336 388 LINE",
"383 388 LINE",
"383 516 LINE",
"333 542 OFFCURVE",
"290 554 OFFCURVE",
"231 554 CURVE SMOOTH",
"136 554 OFFCURVE",
"55 513 OFFCURVE",
"55 413 CURVE SMOOTH",
"55 327 OFFCURVE",
"116 283 OFFCURVE",
"212 234 CURVE SMOOTH",
"300 189 OFFCURVE",
"328 159 OFFCURVE",
"328 107 CURVE SMOOTH",
"328 69 OFFCURVE",
"301 24 OFFCURVE",
"222 24 CURVE SMOOTH"
);
}
);
width = 460;
}
);
unicode = 0073;
},
{
glyphname = germandbls;
layers = (
{
layerId = UUID0;
paths = (
{
closed = 1;
nodes = (
"89 -1 OFFCURVE",
"150 1 OFFCURVE",
"212 1 CURVE",
"204 41 OFFCURVE",
"199 105 OFFCURVE",
"199 141 CURVE SMOOTH",
"199 501 LINE SMOOTH",
"199 718 OFFCURVE",
"231 776 OFFCURVE",
"302 776 CURVE SMOOTH",
"373 776 OFFCURVE",
"418 740 OFFCURVE",
"418 633 CURVE SMOOTH",
"418 531 OFFCURVE",
"376 472 OFFCURVE",
"302 469 CURVE",
"295 452 OFFCURVE",
"295 432 OFFCURVE",
"302 420 CURVE",
"406 402 OFFCURVE",
"462 350 OFFCURVE",
"462 220 CURVE SMOOTH",
"462 100 OFFCURVE",
"454 17 OFFCURVE",
"393 17 CURVE SMOOTH",
"376 17 OFFCURVE",
"342 32 OFFCURVE",
"336 93 CURVE",
"307 95 OFFCURVE",
"280 88 OFFCURVE",
"259 72 CURVE",
"259 9 OFFCURVE",
"314 -17 OFFCURVE",
"379 -17 CURVE SMOOTH",
"472 -17 OFFCURVE",
"566 43 OFFCURVE",
"566 225 CURVE SMOOTH",
"566 345 OFFCURVE",
"494 432 OFFCURVE",
"368 443 CURVE",
"368 447 LINE",
"470 459 OFFCURVE",
"515 553 OFFCURVE",
"515 644 CURVE SMOOTH",
"515 754 OFFCURVE",
"420 816 OFFCURVE",
"313 816 CURVE SMOOTH",
"193 816 OFFCURVE",
"104 743 OFFCURVE",
"104 569 CURVE SMOOTH",
"104 174 LINE SMOOTH",
"104 133 OFFCURVE",
"103 92 OFFCURVE",
"100 52 CURVE",
"27 36 LINE",
"22 23 OFFCURVE",
"21 10 OFFCURVE",
"27 -3 CURVE"
);
}
);
width = 605;
}
);
leftKerningGroup = h;
unicode = 00DF;
},
{
glyphname = t;
layers = (
{
layerId = UUID0;
paths = (
{
closed = 1;
nodes = (
"190 624 LINE",
"184 626 OFFCURVE",
"176 627 OFFCURVE",
"169 627 CURVE SMOOTH",
"161 627 OFFCURVE",
"153 626 OFFCURVE",
"147 624 CURVE",
"124 556 OFFCURVE",
"102 515 OFFCURVE",
"24 501 CURVE",
"23 494 OFFCURVE",
"22 486 OFFCURVE",
"22 479 CURVE SMOOTH",
"22 473 OFFCURVE",
"23 467 OFFCURVE",
"24 462 CURVE",
"94 453 LINE",
"94 136 LINE SMOOTH",
"94 24 OFFCURVE",
"146 -20 OFFCURVE",
"207 -20 CURVE SMOOTH",
"262 -20 OFFCURVE",
"292 -2 OFFCURVE",
"341 28 CURVE",
"339 42 OFFCURVE",
"339 52 OFFCURVE",
"327 62 CURVE",
"293 49 OFFCURVE",
"272 41 OFFCURVE",
"246 41 CURVE SMOOTH",
"209 41 OFFCURVE",
"190 75 OFFCURVE",
"190 176 CURVE SMOOTH",
"190 441 LINE",
"331 462 LINE",
"332 468 OFFCURVE",
"333 476 OFFCURVE",
"333 483 CURVE SMOOTH",
"333 489 OFFCURVE",
"332 495 OFFCURVE",
"331 501 CURVE",
"190 501 LINE"
);
}
);
width = 356;
}
);
unicode = 0074;
},
{
glyphname = u;
layers = (
{
anchors = (
{
name = top;
position = "{296, 570}";
}
);
layerId = UUID0;
paths = (
{
closed = 1;
nodes = (
"516 534 LINE",
"515 541 OFFCURVE",
"512 547 OFFCURVE",
"506 554 CURVE",
"448 545 OFFCURVE",
"394 537 OFFCURVE",
"339 533 CURVE",
"337 520 OFFCURVE",
"336 508 OFFCURVE",
"339 495 CURVE",
"418 485 LINE",
"421 453 OFFCURVE",
"421 377 OFFCURVE",
"421 340 CURVE SMOOTH",
"421 138 LINE",
"374 69 OFFCURVE",
"326 38 OFFCURVE",
"269 38 CURVE SMOOTH",
"206 38 OFFCURVE",
"191 78 OFFCURVE",
"191 167 CURVE SMOOTH",
"191 429 OFFCURVE",
"191 508 OFFCURVE",
"196 534 CURVE",
"195 541 OFFCURVE",
"192 547 OFFCURVE",
"186 554 CURVE",
"128 545 OFFCURVE",
"69 537 OFFCURVE",
"14 533 CURVE",
"12 520 OFFCURVE",
"11 508 OFFCURVE",
"14 495 CURVE",
"93 485 LINE",
"96 453 OFFCURVE",
"96 376 OFFCURVE",
"96 339 CURVE SMOOTH",
"96 117 LINE SMOOTH",
"96 7 OFFCURVE",
"171 -20 OFFCURVE",
"240 -20 CURVE SMOOTH",
"327 -20 OFFCURVE",
"383 32 OFFCURVE",
"431 94 CURVE",
"436 5 LINE",
"438 -4 OFFCURVE",
"442 -10 OFFCURVE",
"446 -14 CURVE",
"496 -7 OFFCURVE",
"548 -2 OFFCURVE",
"598 0 CURVE",
"600 13 OFFCURVE",
"601 24 OFFCURVE",
"598 38 CURVE",
"519 48 LINE",
"516 75 OFFCURVE",
"516 106 OFFCURVE",
"516 142 CURVE SMOOTH"
);
}
);
width = 615;
}
);
leftKerningGroup = u;
rightKerningGroup = u;
unicode = 0075;
},
{
glyphname = v;
layers = (
{
layerId = UUID0;
paths = (
{
closed = 1;
nodes = (
"287 -44 LINE",
"494 486 LINE",
"569 497 LINE",
"573 510 OFFCURVE",
"573 523 OFFCURVE",
"569 536 CURVE",
"526 534 OFFCURVE",
"494 533 OFFCURVE",
"462 533 CURVE SMOOTH",
"430 533 OFFCURVE",
"398 534 OFFCURVE",
"357 537 CURVE",
"355 524 OFFCURVE",
"354 510 OFFCURVE",
"357 497 CURVE",
"435 489 LINE",
"349 250 LINE",
"332 209 OFFCURVE",
"314 152 OFFCURVE",
"302 110 CURVE",
"300 110 LINE",
"289 154 OFFCURVE",
"270 209 OFFCURVE",
"254 255 CURVE SMOOTH",
"173 485 LINE",
"236 497 LINE",
"240 510 OFFCURVE",
"240 523 OFFCURVE",
"236 536 CURVE",
"193 534 OFFCURVE",
"154 533 OFFCURVE",
"115 533 CURVE SMOOTH",
"76 533 OFFCURVE",
"37 534 OFFCURVE",
"-4 537 CURVE",
"-6 524 OFFCURVE",
"-7 510 OFFCURVE",
"-4 497 CURVE",
"59 485 LINE",
"266 -44 LINE"
);
}
);
width = 566;
}
);
unicode = 0076;
},
{
glyphname = w;
layers = (
{
layerId = UUID0;
paths = (
{
closed = 1;
nodes = (
"562 -44 LINE",
"765 486 LINE",
"840 497 LINE",
"844 510 OFFCURVE",
"844 523 OFFCURVE",
"840 536 CURVE",
"797 534 OFFCURVE",
"766 533 OFFCURVE",
"735 533 CURVE SMOOTH",
"704 533 OFFCURVE",
"673 534 OFFCURVE",
"632 537 CURVE",
"630 524 OFFCURVE",
"629 510 OFFCURVE",
"632 497 CURVE",
"710 489 LINE",
"623 253 LINE",
"606 212 OFFCURVE",
"588 155 OFFCURVE",
"576 113 CURVE",
"574 113 LINE",
"563 157 OFFCURVE",
"544 212 OFFCURVE",
"528 258 CURVE SMOOTH",
"451 485 LINE",
"528 497 LINE",
"532 510 OFFCURVE",
"532 523 OFFCURVE",
"528 536 CURVE",
"485 534 OFFCURVE",
"446 533 OFFCURVE",
"407 533 CURVE SMOOTH",
"368 533 OFFCURVE",
"329 534 OFFCURVE",
"288 537 CURVE",
"286 524 OFFCURVE",
"285 510 OFFCURVE",
"288 497 CURVE",
"351 485 LINE",
"385 390 LINE",
"334 253 LINE",
"317 212 OFFCURVE",
"299 155 OFFCURVE",
"287 113 CURVE",
"285 113 LINE",
"274 157 OFFCURVE",
"255 212 OFFCURVE",
"239 258 CURVE SMOOTH",
"159 485 LINE",
"236 497 LINE",
"240 510 OFFCURVE",
"240 523 OFFCURVE",
"236 536 CURVE",
"193 534 OFFCURVE",
"154 533 OFFCURVE",
"115 533 CURVE SMOOTH",
"76 533 OFFCURVE",
"37 534 OFFCURVE",
"-4 537 CURVE",
"-6 524 OFFCURVE",
"-7 510 OFFCURVE",
"-4 497 CURVE",
"59 485 LINE",
"251 -44 LINE",
"272 -44 LINE",
"409 323 LINE",
"541 -44 LINE"
);
}
);
width = 838;
}
);
unicode = 0077;
},
{
glyphname = x;
layers = (
{
layerId = UUID0;
paths = (
{
closed = 1;
nodes = (
"516 486 LINE",
"591 497 LINE",
"595 510 OFFCURVE",
"595 523 OFFCURVE",
"591 536 CURVE",
"548 534 OFFCURVE",
"518 533 OFFCURVE",
"489 533 CURVE SMOOTH",
"459 533 OFFCURVE",
"430 534 OFFCURVE",
"389 537 CURVE",
"387 524 OFFCURVE",
"386 510 OFFCURVE",
"389 497 CURVE",
"457 489 LINE",
"321 316 LINE",
"191 486 LINE",
"263 499 LINE",
"267 512 OFFCURVE",
"267 525 OFFCURVE",
"263 537 CURVE",
"220 535 OFFCURVE",
"180 534 OFFCURVE",
"140 534 CURVE SMOOTH",
"100 534 OFFCURVE",
"59 535 OFFCURVE",
"18 538 CURVE",
"16 526 OFFCURVE",
"15 512 OFFCURVE",
"18 499 CURVE",
"79 485 LINE",
"256 253 LINE",
"91 48 LINE",
"16 37 LINE",
"12 24 OFFCURVE",
"12 11 OFFCURVE",
"16 -2 CURVE",
"58 -1 OFFCURVE",
"89 0 OFFCURVE",
"120 0 CURVE SMOOTH",
"151 0 OFFCURVE",
"181 -1 OFFCURVE",
"223 -3 CURVE",
"225 10 OFFCURVE",
"226 24 OFFCURVE",
"223 37 CURVE",
"155 45 LINE",
"287 213 LINE",
"413 48 LINE",
"340 37 LINE",
"336 24 OFFCURVE",
"336 11 OFFCURVE",
"340 -2 CURVE",
"382 -1 OFFCURVE",
"428 0 OFFCURVE",
"474 0 CURVE SMOOTH",
"520 0 OFFCURVE",
"565 -1 OFFCURVE",
"607 -3 CURVE",
"609 10 OFFCURVE",
"610 24 OFFCURVE",
"607 37 CURVE",
"523 53 LINE",
"349 279 LINE"
);
}
);
width = 617;
}
);
unicode = 0078;
},
{
glyphname = y;
layers = (
{
anchors = (
{
name = top;
position = "{322, 570}";
}
);
layerId = UUID0;
paths = (
{
closed = 1;
nodes = (
"207 -148 LINE SMOOTH",
"201 -164 OFFCURVE",
"189 -177 OFFCURVE",
"171 -177 CURVE SMOOTH",
"154 -177 OFFCURVE",
"131 -165 OFFCURVE",
"101 -131 CURVE",
"72 -150 OFFCURVE",
"48 -182 OFFCURVE",
"44 -219 CURVE",
"69 -251 OFFCURVE",
"89 -260 OFFCURVE",
"134 -260 CURVE SMOOTH",
"195 -260 OFFCURVE",
"225 -221 OFFCURVE",
"250 -160 CURVE SMOOTH",
"514 486 LINE",
"593 497 LINE",
"597 510 OFFCURVE",
"597 523 OFFCURVE",
"593 536 CURVE",
"550 534 OFFCURVE",
"517 533 OFFCURVE",
"484 533 CURVE SMOOTH",
"451 533 OFFCURVE",
"418 534 OFFCURVE",
"377 537 CURVE",
"375 524 OFFCURVE",
"374 510 OFFCURVE",
"377 497 CURVE",
"455 486 LINE",
"368 253 LINE",
"351 212 OFFCURVE",
"333 163 OFFCURVE",
"321 121 CURVE",
"319 121 LINE",
"308 165 OFFCURVE",
"295 214 OFFCURVE",
"277 258 CURVE SMOOTH",
"182 483 LINE",
"268 497 LINE",
"272 510 OFFCURVE",
"272 523 OFFCURVE",
"268 536 CURVE",
"225 534 OFFCURVE",
"179 533 OFFCURVE",
"133 533 CURVE SMOOTH",
"87 533 OFFCURVE",
"40 534 OFFCURVE",
"-1 537 CURVE",
"-4 524 OFFCURVE",
"-4 510 OFFCURVE",
"-1 497 CURVE",
"77 481 LINE",
"271 3 LINE"
);
}
);
width = 591;
}
);
leftKerningGroup = y;
rightKerningGroup = y;
unicode = 0079;
},
{
glyphname = z;
layers = (
{
layerId = UUID0;
paths = (
{
closed = 1;
nodes = (
"46 34 LINE",
"43 22 OFFCURVE",
"43 10 OFFCURVE",
"46 0 CURVE",
"443 0 LINE",
"446 175 LINE",
"434 177 OFFCURVE",
"421 178 OFFCURVE",
"409 175 CURVE",
"370 50 LINE",
"169 50 LINE",
"447 497 LINE",
"450 510 OFFCURVE",
"449 523 OFFCURVE",
"447 534 CURVE",
"55 534 LINE",
"52 359 LINE",
"64 357 OFFCURVE",
"77 356 OFFCURVE",
"89 359 CURVE",
"130 488 LINE",
"335 488 LINE"
);
}
);
width = 496;
}
);
unicode = 007A;
},
{
glyphname = ordfeminine;
layers = (
{
layerId = UUID0;
paths = (
{
closed = 1;
nodes = (
"133 522 OFFCURVE",
"189 567 OFFCURVE",
"292 573 CURVE",
"292 463 LINE",
"258 425 OFFCURVE",
"213 397 OFFCURVE",
"182 397 CURVE SMOOTH",
"145 397 OFFCURVE",
"133 414 OFFCURVE",
"133 466 CURVE SMOOTH"
);
},
{
closed = 1;
nodes = (
"292 607 LINE",
"150 603 OFFCURVE",
"47 560 OFFCURVE",
"47 458 CURVE SMOOTH",
"47 395 OFFCURVE",
"86 351 OFFCURVE",
"154 351 CURVE SMOOTH",
"211 351 OFFCURVE",
"258 377 OFFCURVE",
"301 426 CURVE",
"305 371 LINE SMOOTH",
"306 363 OFFCURVE",
"309 359 OFFCURVE",
"313 355 CURVE",
"352 361 OFFCURVE",
"393 365 OFFCURVE",
"433 367 CURVE",
"434 377 OFFCURVE",
"435 386 OFFCURVE",
"433 397 CURVE",
"370 405 LINE",
"368 414 OFFCURVE",
"367 425 OFFCURVE",
"367 439 CURVE SMOOTH",
"367 663 LINE SMOOTH",
"367 774 OFFCURVE",
"326 807 OFFCURVE",
"226 807 CURVE SMOOTH",
"136 807 OFFCURVE",
"62 764 OFFCURVE",
"62 689 CURVE",
"66 674 OFFCURVE",
"78 667 OFFCURVE",
"98 667 CURVE SMOOTH",
"108 667 OFFCURVE",
"121 669 OFFCURVE",
"136 673 CURVE",
"147 752 OFFCURVE",
"180 776 OFFCURVE",
"225 776 CURVE SMOOTH",
"274 776 OFFCURVE",
"292 735 OFFCURVE",
"292 647 CURVE SMOOTH"
);
}
);
width = 468;
}
);
unicode = 00AA;
},
{
glyphname = ordmasculine;
layers = (
{
layerId = UUID0;
paths = (
{
closed = 1;
nodes = (
"25 448 OFFCURVE",
"99 351 OFFCURVE",
"225 351 CURVE SMOOTH",
"343 351 OFFCURVE",
"427 448 OFFCURVE",
"427 579 CURVE SMOOTH",
"427 701 OFFCURVE",
"351 807 OFFCURVE",
"225 807 CURVE SMOOTH",
"99 807 OFFCURVE",
"25 701 OFFCURVE",
"25 579 CURVE SMOOTH"
);
},
{
closed = 1;
nodes = (
"108 718 OFFCURVE",
"165 774 OFFCURVE",
"225 774 CURVE SMOOTH",
"285 774 OFFCURVE",
"344 718 OFFCURVE",
"344 579 CURVE SMOOTH",
"344 439 OFFCURVE",
"285 384 OFFCURVE",
"225 384 CURVE SMOOTH",
"165 384 OFFCURVE",
"108 439 OFFCURVE",
"108 579 CURVE SMOOTH"
);
}
);
width = 462;
}
);
unicode = 00BA;
},
{
glyphname = zero;
layers = (
{
layerId = UUID0;
paths = (
{
closed = 1;
nodes = (
"587 -20 OFFCURVE",
"695 164 OFFCURVE",
"695 386 CURVE SMOOTH",
"695 637 OFFCURVE",
"586 819 OFFCURVE",
"375 819 CURVE SMOOTH",
"164 819 OFFCURVE",
"55 637 OFFCURVE",
"55 386 CURVE SMOOTH",
"55 164 OFFCURVE",
"163 -20 OFFCURVE",
"375 -20 CURVE SMOOTH"
);
},
{
closed = 1;
nodes = (
"265 25 OFFCURVE",
"175 159 OFFCURVE",
"175 411 CURVE SMOOTH",
"175 637 OFFCURVE",
"238 774 OFFCURVE",
"375 774 CURVE SMOOTH",
"512 774 OFFCURVE",
"575 637 OFFCURVE",
"575 411 CURVE SMOOTH",
"575 159 OFFCURVE",
"485 25 OFFCURVE",
"375 25 CURVE SMOOTH"
);
}
);
width = 741;
}
);
unicode = 0030;
},
{
glyphname = one;
layers = (
{
layerId = UUID0;
paths = (
{
closed = 1;
nodes = (
"281 654 LINE SMOOTH",
"281 673 OFFCURVE",
"281 690 OFFCURVE",
"281 704 CURVE SMOOTH",
"281 747 OFFCURVE",
"281 770 OFFCURVE",
"286 796 CURVE",
"285 803 OFFCURVE",
"282 809 OFFCURVE",
"276 816 CURVE",
"57 752 LINE",
"55 739 OFFCURVE",
"54 717 OFFCURVE",
"57 704 CURVE",
"179 717 LINE",
"179 174 LINE SMOOTH",
"179 133 OFFCURVE",
"178 88 OFFCURVE",
"175 47 CURVE",
"66 36 LINE",
"62 23 OFFCURVE",
"62 10 OFFCURVE",
"66 -3 CURVE",
"108 -2 OFFCURVE",
"169 -1 OFFCURVE",
"229 -1 CURVE SMOOTH",
"289 -1 OFFCURVE",
"348 -2 OFFCURVE",
"390 -4 CURVE",
"392 9 OFFCURVE",
"393 23 OFFCURVE",
"390 36 CURVE",
"281 51 LINE"
);
}
);
width = 452;
}
);
unicode = 0031;
},
{
glyphname = two;
layers = (
{
layerId = UUID0;
paths = (
{
closed = 1;
nodes = (
"548 0 LINE",
"548 23 OFFCURVE",
"549 81 OFFCURVE",
"550 113 CURVE",
"520 107 OFFCURVE",
"476 101 OFFCURVE",
"441 99 CURVE",
"173 99 LINE",
"378 256 OFFCURVE",
"526 434 OFFCURVE",
"526 609 CURVE SMOOTH",
"526 740 OFFCURVE",
"451 819 OFFCURVE",
"293 819 CURVE SMOOTH",
"178 819 OFFCURVE",
"97 762 OFFCURVE",
"67 632 CURVE",
"83 607 OFFCURVE",
"126 604 OFFCURVE",
"177 606 CURVE",
"201 730 OFFCURVE",
"237 774 OFFCURVE",
"290 774 CURVE SMOOTH",
"369 774 OFFCURVE",
"406 716 OFFCURVE",
"406 612 CURVE SMOOTH",
"406 435 OFFCURVE",
"323 306 OFFCURVE",
"75 76 CURVE",
"75 0 LINE"
);
}
);
width = 620;
}
);
unicode = 0032;
},
{
glyphname = three;
layers = (
{
layerId = UUID0;
paths = (
{
closed = 1;
nodes = (
"199 24 OFFCURVE",
"157 51 OFFCURVE",
"138 152 CURVE",
"84 153 OFFCURVE",
"52 149 OFFCURVE",
"35 131 CURVE",
"35 27 OFFCURVE",
"138 -20 OFFCURVE",
"257 -20 CURVE SMOOTH",
"429 -20 OFFCURVE",
"527 81 OFFCURVE",
"527 227 CURVE SMOOTH",
"527 347 OFFCURVE",
"450 415 OFFCURVE",
"328 434 CURVE",
"328 437 LINE",
"440 470 OFFCURVE",
"490 548 OFFCURVE",
"490 635 CURVE SMOOTH",
"490 742 OFFCURVE",
"406 819 OFFCURVE",
"272 819 CURVE SMOOTH",
"150 819 OFFCURVE",
"64 760 OFFCURVE",
"47 650 CURVE",
"66 630 OFFCURVE",
"92 626 OFFCURVE",
"150 627 CURVE",
"163 721 OFFCURVE",
"198 778 OFFCURVE",
"265 778 CURVE SMOOTH",
"325 778 OFFCURVE",
"378 731 OFFCURVE",
"378 616 CURVE SMOOTH",
"378 518 OFFCURVE",
"324 456 OFFCURVE",
"219 456 CURVE SMOOTH",
"189 456 LINE",
"181 445 OFFCURVE",
"183 414 OFFCURVE",
"189 406 CURVE",
"334 406 OFFCURVE",
"409 326 OFFCURVE",
"409 221 CURVE SMOOTH",
"409 87 OFFCURVE",
"345 24 OFFCURVE",
"263 24 CURVE SMOOTH"
);
}
);
width = 580;
}
);
unicode = 0033;
},
{
glyphname = four;
layers = (
{
layerId = UUID0;
paths = (
{
closed = 1;
nodes = (
"348 560 LINE",
"348 269 LINE",
"83 269 LINE",
"308 583 LINE",
"354 662 LINE",
"356 660 LINE"
);
},
{
closed = 1;
nodes = (
"450 806 LINE",
"446 809 OFFCURVE",
"442 811 OFFCURVE",
"438 812 CURVE",
"389 807 LINE",
"16 269 LINE",
"16 242 OFFCURVE",
"20 219 OFFCURVE",
"26 198 CURVE",
"348 198 LINE",
"348 174 LINE SMOOTH",
"348 133 OFFCURVE",
"347 88 OFFCURVE",
"344 47 CURVE",
"245 36 LINE",
"243 29 OFFCURVE",
"242 23 OFFCURVE",
"242 16 CURVE SMOOTH",
"242 10 OFFCURVE",
"243 3 OFFCURVE",
"245 -3 CURVE",
"287 -2 OFFCURVE",
"351 -1 OFFCURVE",
"395 -1 CURVE SMOOTH",
"439 -1 OFFCURVE",
"509 -2 OFFCURVE",
"551 -4 CURVE",
"552 3 OFFCURVE",
"553 10 OFFCURVE",
"553 18 CURVE SMOOTH",
"553 24 OFFCURVE",
"552 30 OFFCURVE",
"551 36 CURVE",
"450 51 LINE",
"450 198 LINE",
"557 198 LINE",
"557 221 OFFCURVE",
"558 250 OFFCURVE",
"559 282 CURVE",
"529 276 OFFCURVE",
"485 271 OFFCURVE",
"450 269 CURVE"
);
}
);
width = 614;
}
);
unicode = 0034;
},
{
glyphname = five;
layers = (
{
layerId = UUID0;
paths = (
{
closed = 1;
nodes = (
"221 697 LINE",
"363 696 LINE",
"398 694 OFFCURVE",
"442 689 OFFCURVE",
"472 683 CURVE",
"471 715 OFFCURVE",
"470 773 OFFCURVE",
"470 796 CURVE",
"221 796 LINE",
"86 796 LINE",
"86 456 LINE",
"121 462 OFFCURVE",
"151 465 OFFCURVE",
"179 465 CURVE SMOOTH",
"331 465 OFFCURVE",
"381 377 OFFCURVE",
"381 248 CURVE SMOOTH",
"381 118 OFFCURVE",
"354 22 OFFCURVE",
"250 22 CURVE SMOOTH",
"188 22 OFFCURVE",
"146 40 OFFCURVE",
"125 152 CURVE",
"71 153 OFFCURVE",
"39 149 OFFCURVE",
"22 131 CURVE",
"22 27 OFFCURVE",
"120 -20 OFFCURVE",
"238 -20 CURVE SMOOTH",
"413 -20 OFFCURVE",
"498 93 OFFCURVE",
"498 257 CURVE SMOOTH",
"498 407 OFFCURVE",
"419 518 OFFCURVE",
"215 518 CURVE SMOOTH",
"194 518 OFFCURVE",
"172 516 OFFCURVE",
"148 514 CURVE",
"149 697 LINE"
);
}
);
width = 554;
}
);
unicode = 0035;
},
{
glyphname = six;
layers = (
{
layerId = UUID0;
paths = (
{
closed = 1;
nodes = (
"43 166 OFFCURVE",
"107 -20 OFFCURVE",
"319 -20 CURVE SMOOTH",
"464 -20 OFFCURVE",
"560 105 OFFCURVE",
"560 258 CURVE SMOOTH",
"560 380 OFFCURVE",
"494 508 OFFCURVE",
"333 508 CURVE SMOOTH",
"249 508 OFFCURVE",
"188 471 OFFCURVE",
"148 405 CURVE",
"146 405 LINE",
"146 642 OFFCURVE",
"211 773 OFFCURVE",
"315 773 CURVE SMOOTH",
"389 773 OFFCURVE",
"415 727 OFFCURVE",
"431 635 CURVE",
"475 637 OFFCURVE",
"516 651 OFFCURVE",
"539 666 CURVE",
"525 766 OFFCURVE",
"437 819 OFFCURVE",
"325 819 CURVE SMOOTH",
"152 819 OFFCURVE",
"43 658 OFFCURVE",
"43 347 CURVE SMOOTH"
);
},
{
closed = 1;
nodes = (
"445 133 OFFCURVE",
"420 25 OFFCURVE",
"318 25 CURVE SMOOTH",
"216 25 OFFCURVE",
"162 98 OFFCURVE",
"162 273 CURVE SMOOTH",
"162 386 OFFCURVE",
"215 461 OFFCURVE",
"318 461 CURVE SMOOTH",
"406 461 OFFCURVE",
"445 364 OFFCURVE",
"445 262 CURVE SMOOTH"
);
}
);
width = 605;
}
);
unicode = 0036;
},
{
glyphname = seven;
layers = (
{
layerId = UUID0;
paths = (
{
closed = 1;
nodes = (
"315 796 LINE",
"56 796 LINE",
"56 773 OFFCURVE",
"55 697 OFFCURVE",
"54 665 CURVE",
"82 665 LINE",
"134 686 OFFCURVE",
"217 694 OFFCURVE",
"293 697 CURVE",
"444 697 LINE",
"136 0 LINE",
"258 0 LINE",
"507 725 LINE",
"507 752 OFFCURVE",
"503 775 OFFCURVE",
"497 796 CURVE"
);
}
);
width = 521;
}
);
unicode = 0037;
},
{
glyphname = eight;
layers = (
{
layerId = UUID0;
paths = (
{
closed = 1;
nodes = (
"45 72 OFFCURVE",
"131 -20 OFFCURVE",
"296 -20 CURVE SMOOTH",
"474 -20 OFFCURVE",
"560 98 OFFCURVE",
"560 207 CURVE SMOOTH",
"560 321 OFFCURVE",
"486 375 OFFCURVE",
"403 418 CURVE",
"474 464 OFFCURVE",
"526 526 OFFCURVE",
"526 620 CURVE SMOOTH",
"526 733 OFFCURVE",
"452 819 OFFCURVE",
"299 819 CURVE SMOOTH",
"162 819 OFFCURVE",
"68 718 OFFCURVE",
"68 606 CURVE SMOOTH",
"68 504 OFFCURVE",
"123 445 OFFCURVE",
"191 401 CURVE",
"106 362 OFFCURVE",
"45 292 OFFCURVE",
"45 197 CURVE SMOOTH"
);
},
{
closed = 1;
nodes = (
"456 81 OFFCURVE",
"408 22 OFFCURVE",
"299 22 CURVE SMOOTH",
"198 22 OFFCURVE",
"154 104 OFFCURVE",
"154 194 CURVE SMOOTH",
"154 265 OFFCURVE",
"183 339 OFFCURVE",
"228 379 CURVE",
"335 319 OFFCURVE",
"456 281 OFFCURVE",
"456 171 CURVE SMOOTH"
);
},
{
closed = 1;
nodes = (
"174 738 OFFCURVE",
"229 776 OFFCURVE",
"299 776 CURVE SMOOTH",
"382 776 OFFCURVE",
"422 704 OFFCURVE",
"422 598 CURVE SMOOTH",
"422 539 OFFCURVE",
"402 478 OFFCURVE",
"364 438 CURVE",
"269 484 OFFCURVE",
"174 524 OFFCURVE",
"174 632 CURVE SMOOTH"
);
}
);
width = 606;
}
);
unicode = 0038;
},
{
glyphname = nine;
layers = (
{
layerId = UUID0;
paths = (
{
closed = 1;
nodes = (
"563 633 OFFCURVE",
"506 819 OFFCURVE",
"294 819 CURVE SMOOTH",
"149 819 OFFCURVE",
"47 694 OFFCURVE",
"47 541 CURVE SMOOTH",
"47 419 OFFCURVE",
"113 291 OFFCURVE",
"274 291 CURVE SMOOTH",
"358 291 OFFCURVE",
"419 328 OFFCURVE",
"459 394 CURVE",
"461 394 LINE",
"461 157 OFFCURVE",
"396 26 OFFCURVE",
"292 26 CURVE SMOOTH",
"218 26 OFFCURVE",
"192 72 OFFCURVE",
"176 164 CURVE",
"132 162 OFFCURVE",
"91 148 OFFCURVE",
"68 133 CURVE",
"82 33 OFFCURVE",
"170 -20 OFFCURVE",
"282 -20 CURVE SMOOTH",
"455 -20 OFFCURVE",
"563 141 OFFCURVE",
"563 452 CURVE SMOOTH"
);
},
{
closed = 1;
nodes = (
"162 678 OFFCURVE",
"200 774 OFFCURVE",
"289 774 CURVE SMOOTH",
"391 774 OFFCURVE",
"445 701 OFFCURVE",
"445 526 CURVE SMOOTH",
"445 413 OFFCURVE",
"392 338 OFFCURVE",
"289 338 CURVE SMOOTH",
"201 338 OFFCURVE",
"162 435 OFFCURVE",
"162 537 CURVE SMOOTH"
);
}
);
width = 605;
}
);
unicode = 0039;
},
{
glyphname = onesuperior;
layers = (
{
layerId = UUID0;
paths = (
{
closed = 1;
nodes = (
"217 650 LINE SMOOTH",
"217 740 OFFCURVE",
"217 771 OFFCURVE",
"222 797 CURVE",
"221 804 OFFCURVE",
"218 810 OFFCURVE",
"212 817 CURVE",
"45 773 LINE",
"41 759 OFFCURVE",
"43 739 OFFCURVE",
"47 730 CURVE",
"132 743 LINE",
"135 711 OFFCURVE",
"135 687 OFFCURVE",
"135 650 CURVE SMOOTH",
"135 505 LINE SMOOTH",
"135 464 OFFCURVE",
"134 419 OFFCURVE",
"131 378 CURVE",
"52 367 LINE",
"48 354 OFFCURVE",
"48 341 OFFCURVE",
"52 328 CURVE",
"94 329 OFFCURVE",
"135 330 OFFCURVE",
"176 330 CURVE SMOOTH",
"216 330 OFFCURVE",
"256 329 OFFCURVE",
"298 327 CURVE",
"300 340 OFFCURVE",
"301 354 OFFCURVE",
"298 367 CURVE",
"217 382 LINE"
);
}
);
width = 343;
}
);
unicode = 00B9;
},
{
glyphname = twosuperior;
layers = (
{
layerId = UUID0;
paths = (
{
closed = 1;
nodes = (
"356 321 LINE",
"356 335 OFFCURVE",
"356 392 OFFCURVE",
"357 412 CURVE",
"339 408 OFFCURVE",
"312 400 OFFCURVE",
"291 399 CURVE",
"147 399 LINE",
"268 511 OFFCURVE",
"351 572 OFFCURVE",
"351 678 CURVE SMOOTH",
"351 764 OFFCURVE",
"288 807 OFFCURVE",
"197 807 CURVE SMOOTH",
"127 807 OFFCURVE",
"60 766 OFFCURVE",
"56 688 CURVE",
"66 673 OFFCURVE",
"109 670 OFFCURVE",
"140 671 CURVE",
"148 736 OFFCURVE",
"164 768 OFFCURVE",
"202 768 CURVE SMOOTH",
"244 768 OFFCURVE",
"266 741 OFFCURVE",
"266 679 CURVE SMOOTH",
"266 583 OFFCURVE",
"202 505 OFFCURVE",
"57 367 CURVE",
"56 350 OFFCURVE",
"60 333 OFFCURVE",
"67 321 CURVE"
);
}
);
width = 423;
}
);
unicode = 00B2;
},
{
glyphname = threesuperior;
layers = (
{
layerId = UUID0;
paths = (
{
closed = 1;
nodes = (
"162 351 OFFCURVE",
"138 373 OFFCURVE",
"128 432 CURVE",
"96 435 OFFCURVE",
"73 422 OFFCURVE",
"55 412 CURVE",
"55 340 OFFCURVE",
"123 309 OFFCURVE",
"184 309 CURVE SMOOTH",
"287 309 OFFCURVE",
"348 372 OFFCURVE",
"348 463 CURVE SMOOTH",
"348 528 OFFCURVE",
"313 577 OFFCURVE",
"233 586 CURVE",
"233 588 LINE",
"300 608 OFFCURVE",
"328 646 OFFCURVE",
"328 696 CURVE SMOOTH",
"328 762 OFFCURVE",
"278 807 OFFCURVE",
"194 807 CURVE SMOOTH",
"110 807 OFFCURVE",
"62 762 OFFCURVE",
"62 695 CURVE",
"74 679 OFFCURVE",
"103 676 OFFCURVE",
"133 677 CURVE",
"139 741 OFFCURVE",
"156 771 OFFCURVE",
"197 771 CURVE SMOOTH",
"241 771 OFFCURVE",
"247 738 OFFCURVE",
"247 697 CURVE SMOOTH",
"247 643 OFFCURVE",
"237 609 OFFCURVE",
"173 609 CURVE SMOOTH",
"162 609 LINE",
"157 602 OFFCURVE",
"158 560 OFFCURVE",
"162 555 CURVE",
"174 555 LINE SMOOTH",
"247 555 OFFCURVE",
"271 511 OFFCURVE",
"271 452 CURVE SMOOTH",
"271 389 OFFCURVE",
"251 351 OFFCURVE",
"197 351 CURVE SMOOTH"
);
}
);
width = 395;
}
);
unicode = 00B3;
},
{
glyphname = foursuperior;
layers = (
{
layerId = UUID0;
paths = (
{
closed = 1;
nodes = (
"150 357 LINE",
"146 344 OFFCURVE",
"146 331 OFFCURVE",
"150 318 CURVE",
"177 319 OFFCURVE",
"225 321 OFFCURVE",
"253 321 CURVE SMOOTH",
"281 321 OFFCURVE",
"349 319 OFFCURVE",
"376 317 CURVE",
"378 330 OFFCURVE",
"379 344 OFFCURVE",
"376 357 CURVE",
"305 369 LINE",
"305 454 LINE",
"376 454 LINE",
"376 468 OFFCURVE",
"376 490 OFFCURVE",
"377 510 CURVE",
"359 506 OFFCURVE",
"335 502 OFFCURVE",
"314 501 CURVE SMOOTH",
"305 501 LINE",
"305 717 LINE SMOOTH",
"305 750 OFFCURVE",
"305 788 OFFCURVE",
"310 818 CURVE",
"305 820 OFFCURVE",
"303 821 OFFCURVE",
"298 821 CURVE SMOOTH",
"246 819 LINE",
"36 501 LINE",
"35 484 OFFCURVE",
"36 466 OFFCURVE",
"43 454 CURVE",
"223 454 LINE",
"223 441 LINE SMOOTH",
"223 415 OFFCURVE",
"222 390 OFFCURVE",
"220 364 CURVE"
);
},
{
closed = 1;
nodes = (
"202 672 LINE",
"223 702 LINE",
"225 702 LINE",
"223 657 LINE",
"223 500 LINE",
"87 499 LINE"
);
}
);
width = 393;
}
);
unicode = 2074;
},
{
glyphname = fraction;
layers = (
{
layerId = UUID0;
paths = (
{
closed = 1;
nodes = (
"422 796 LINE",
"406 799 OFFCURVE",
"381 801 OFFCURVE",
"362 796 CURVE",
"6 -25 LINE",
"15 -28 OFFCURVE",
"26 -29 OFFCURVE",
"37 -29 CURVE SMOOTH",
"47 -29 OFFCURVE",
"58 -28 OFFCURVE",
"66 -25 CURVE"
);
}
);
width = 391;
}
);
unicode = 2044;
},
{
glyphname = asterisk;
layers = (
{
layerId = UUID0;
paths = (
{
closed = 1;
nodes = (
"242 735 LINE",
"233 739 OFFCURVE",
"224 742 OFFCURVE",
"214 742 CURVE SMOOTH",
"204 742 OFFCURVE",
"194 739 OFFCURVE",
"186 735 CURVE",
"194 601 LINE",
"70 650 LINE",
"56 637 OFFCURVE",
"49 616 OFFCURVE",
"52 597 CURVE",
"182 563 LINE",
"97 461 LINE",
"105 443 OFFCURVE",
"123 430 OFFCURVE",
"142 427 CURVE",
"214 540 LINE",
"285 428 LINE",
"305 430 OFFCURVE",
"323 443 OFFCURVE",
"332 460 CURVE",
"246 563 LINE",
"375 596 LINE",
"379 616 OFFCURVE",
"372 637 OFFCURVE",
"359 651 CURVE",
"234 600 LINE"
);
}
);
width = 428;
}
);
unicode = 002A;
},
{
glyphname = comma;
layers = (
{
layerId = UUID0;
paths = (
{
closed = 1;
nodes = (
"119 -103 OFFCURVE",
"176 -51 OFFCURVE",
"176 45 CURVE SMOOTH",
"176 85 OFFCURVE",
"147 111 OFFCURVE",
"112 111 CURVE SMOOTH",
"77 111 OFFCURVE",
"50 85 OFFCURVE",
"50 50 CURVE SMOOTH",
"50 15 OFFCURVE",
"78 -13 OFFCURVE",
"113 -13 CURVE SMOOTH",
"116 -13 LINE",
"99 -68 OFFCURVE",
"57 -101 OFFCURVE",
"28 -117 CURVE",
"33 -135 OFFCURVE",
"43 -144 OFFCURVE",
"58 -146 CURVE"
);
}
);
width = 227;
}
);
leftKerningGroup = period;
rightKerningGroup = period;
unicode = 002C;
},
{
glyphname = exclam;
layers = (
{
layerId = UUID0;
paths = (
{
closed = 1;
nodes = (
"114 189 LINE",
"126 186 OFFCURVE",
"146 185 OFFCURVE",
"158 189 CURVE",
"184 799 LINE",
"170 807 OFFCURVE",
"153 811 OFFCURVE",
"135 811 CURVE SMOOTH",
"116 811 OFFCURVE",
"96 807 OFFCURVE",
"77 799 CURVE"
);
},
{
closed = 1;
nodes = (
"73 15 OFFCURVE",
"101 -13 OFFCURVE",
"136 -13 CURVE SMOOTH",
"171 -13 OFFCURVE",
"199 15 OFFCURVE",
"199 50 CURVE SMOOTH",
"199 85 OFFCURVE",
"170 111 OFFCURVE",
"135 111 CURVE SMOOTH",
"100 111 OFFCURVE",
"73 85 OFFCURVE",
"73 50 CURVE SMOOTH"
);
}
);
width = 268;
}
);
unicode = 0021;
},
{
glyphname = numbersign;
layers = (
{
layerId = UUID0;
paths = (
{
closed = 1;
nodes = (
"119 530 LINE",
"106 513 OFFCURVE",
"104 497 OFFCURVE",
"105 480 CURVE",
"224 480 LINE",
"169 285 LINE",
"49 285 LINE",
"36 268 OFFCURVE",
"34 252 OFFCURVE",
"35 235 CURVE",
"155 235 LINE",
"86 -11 LINE",
"103 -17 OFFCURVE",
"119 -15 OFFCURVE",
"136 -11 CURVE",
"205 235 LINE",
"345 235 LINE",
"276 -11 LINE",
"293 -17 OFFCURVE",
"309 -15 OFFCURVE",
"326 -11 CURVE",
"395 235 LINE",
"517 235 LINE",
"531 251 OFFCURVE",
"536 267 OFFCURVE",
"531 285 CURVE",
"409 285 LINE",
"465 480 LINE",
"587 480 LINE",
"601 496 OFFCURVE",
"606 512 OFFCURVE",
"601 530 CURVE",
"479 530 LINE",
"555 799 LINE",
"538 803 OFFCURVE",
"522 803 OFFCURVE",
"505 799 CURVE",
"428 530 LINE",
"289 530 LINE",
"365 799 LINE",
"348 803 OFFCURVE",
"332 803 OFFCURVE",
"315 799 CURVE",
"238 530 LINE"
);
},
{
closed = 1;
nodes = (
"275 480 LINE",
"414 480 LINE",
"359 285 LINE",
"219 285 LINE"
);
}
);
width = 639;
}
);
unicode = 0023;
},
{
glyphname = period;
layers = (
{
layerId = UUID0;
paths = (
{
closed = 1;
nodes = (
"50 15 OFFCURVE",
"78 -13 OFFCURVE",
"113 -13 CURVE SMOOTH",
"148 -13 OFFCURVE",
"176 15 OFFCURVE",
"176 50 CURVE SMOOTH",
"176 85 OFFCURVE",
"147 111 OFFCURVE",
"112 111 CURVE SMOOTH",
"77 111 OFFCURVE",
"50 85 OFFCURVE",
"50 50 CURVE SMOOTH"
);
}
);
width = 226;
}
);
leftKerningGroup = period;
rightKerningGroup = period;
unicode = 002E;
},
{
glyphname = question;
layers = (
{
layerId = UUID0;
paths = (
{
closed = 1;
nodes = (
"167 163 LINE",
"188 155 OFFCURVE",
"199 155 OFFCURVE",
"220 163 CURVE",
"211 360 LINE",
"420 376 OFFCURVE",
"466 487 OFFCURVE",
"466 587 CURVE SMOOTH",
"466 726 OFFCURVE",
"387 819 OFFCURVE",
"227 819 CURVE SMOOTH",
"128 819 OFFCURVE",
"35 771 OFFCURVE",
"35 659 CURVE",
"52 641 OFFCURVE",
"84 637 OFFCURVE",
"138 638 CURVE",
"156 740 OFFCURVE",
"191 777 OFFCURVE",
"238 777 CURVE SMOOTH",
"312 777 OFFCURVE",
"348 698 OFFCURVE",
"348 593 CURVE SMOOTH",
"348 465 OFFCURVE",
"304 410 OFFCURVE",
"158 408 CURVE SMOOTH",
"147 408 LINE"
);
},
{
closed = 1;
nodes = (
"143 15 OFFCURVE",
"171 -13 OFFCURVE",
"206 -13 CURVE SMOOTH",
"241 -13 OFFCURVE",
"269 15 OFFCURVE",
"269 50 CURVE SMOOTH",
"269 85 OFFCURVE",
"240 111 OFFCURVE",
"205 111 CURVE SMOOTH",
"170 111 OFFCURVE",
"143 85 OFFCURVE",
"143 50 CURVE SMOOTH"
);
}
);
width = 509;
}
);
unicode = 003F;
},
{
glyphname = quotesingle;
layers = (
{
layerId = UUID0;
paths = (
{
closed = 1;
nodes = (
"152 800 LINE",
"152 832 OFFCURVE",
"146 841 OFFCURVE",
"111 841 CURVE SMOOTH",
"76 841 OFFCURVE",
"70 828 OFFCURVE",
"70 800 CURVE",
"87 554 LINE",
"100 550 OFFCURVE",
"120 550 OFFCURVE",
"133 554 CURVE"
);
}
);
width = 221;
}
);
leftKerningGroup = quotesingle;
rightKerningGroup = quotesingle;
unicode = 0027;
},
{
glyphname = slash;
layers = (
{
layerId = UUID0;
paths = (
{
closed = 1;
nodes = (
"494 799 LINE",
"486 801 OFFCURVE",
"472 803 OFFCURVE",
"459 803 CURVE SMOOTH",
"446 803 OFFCURVE",
"432 801 OFFCURVE",
"424 799 CURVE",
"29 -85 LINE",
"37 -88 OFFCURVE",
"51 -89 OFFCURVE",
"65 -89 CURVE SMOOTH",
"78 -89 OFFCURVE",
"90 -88 OFFCURVE",
"99 -85 CURVE"
);
}
);
width = 502;
}
);
unicode = 002F;
},
{
glyphname = underscore;
layers = (
{
layerId = UUID0;
paths = (
{
closed = 1;
nodes = (
"629 -50 LINE",
"634 -33 OFFCURVE",
"635 -17 OFFCURVE",
"629 0 CURVE",
"-2 0 LINE",
"-11 -19 OFFCURVE",
"-7 -34 OFFCURVE",
"-2 -50 CURVE"
);
}
);
width = 627;
}
);
unicode = 005F;
},
{
glyphname = braceleft;
layers = (
{
layerId = UUID0;
paths = (
{
closed = 1;
nodes = (
"243 172 LINE SMOOTH",
"243 277 OFFCURVE",
"232 327 OFFCURVE",
"177 349 CURVE",
"232 371 OFFCURVE",
"243 422 OFFCURVE",
"243 527 CURVE SMOOTH",
"243 674 LINE SMOOTH",
"243 800 OFFCURVE",
"255 819 OFFCURVE",
"366 819 CURVE",
"372 835 OFFCURVE",
"374 851 OFFCURVE",
"366 870 CURVE",
"184 870 OFFCURVE",
"156 836 OFFCURVE",
"156 677 CURVE SMOOTH",
"156 530 LINE SMOOTH",
"156 403 OFFCURVE",
"146 365 OFFCURVE",
"53 365 CURVE",
"49 356 OFFCURVE",
"49 345 OFFCURVE",
"53 334 CURVE",
"60 334 LINE SMOOTH",
"146 332 OFFCURVE",
"156 293 OFFCURVE",
"156 169 CURVE SMOOTH",
"156 22 LINE SMOOTH",
"156 -137 OFFCURVE",
"184 -171 OFFCURVE",
"366 -171 CURVE",
"373 -154 OFFCURVE",
"373 -137 OFFCURVE",
"366 -120 CURVE",
"255 -120 OFFCURVE",
"243 -101 OFFCURVE",
"243 25 CURVE SMOOTH"
);
}
);
width = 406;
}
);
unicode = 007B;
},
{
glyphname = bracketleft;
layers = (
{
layerId = UUID0;
paths = (
{
closed = 1;
nodes = (
"89 900 LINE",
"89 -182 LINE",
"299 -182 LINE",
"304 -165 OFFCURVE",
"305 -148 OFFCURVE",
"299 -131 CURVE",
"176 -131 LINE",
"176 849 LINE",
"299 849 LINE",
"304 866 OFFCURVE",
"305 883 OFFCURVE",
"299 900 CURVE"
);
}
);
width = 314;
}
);
unicode = 005B;
},
{
glyphname = parenleft;
layers = (
{
layerId = UUID0;
paths = (
{
closed = 1;
nodes = (
"55 51 OFFCURVE",
"136 -84 OFFCURVE",
"221 -182 CURVE",
"236 -175 OFFCURVE",
"247 -164 OFFCURVE",
"251 -151 CURVE",
"182 -24 OFFCURVE",
"146 86 OFFCURVE",
"146 359 CURVE SMOOTH",
"146 632 OFFCURVE",
"182 742 OFFCURVE",
"251 869 CURVE",
"247 883 OFFCURVE",
"235 894 OFFCURVE",
"221 900 CURVE",
"136 802 OFFCURVE",
"55 667 OFFCURVE",
"55 359 CURVE SMOOTH"
);
}
);
width = 303;
}
);
unicode = 0028;
},
{
glyphname = emdash;
layers = (
{
layerId = UUID0;
paths = (
{
closed = 1;
nodes = (
"821 357 LINE",
"826 374 OFFCURVE",
"827 390 OFFCURVE",
"821 407 CURVE",
"70 407 LINE",
"61 388 OFFCURVE",
"65 373 OFFCURVE",
"70 357 CURVE"
);
}
);
width = 890;
}
);
leftKerningGroup = hyphen;
rightKerningGroup = hyphen;
unicode = 2014;
},
{
glyphname = endash;
layers = (
{
layerId = UUID0;
paths = (
{
closed = 1;
nodes = (
"501 357 LINE",
"506 374 OFFCURVE",
"507 390 OFFCURVE",
"501 407 CURVE",
"70 407 LINE",
"61 388 OFFCURVE",
"65 373 OFFCURVE",
"70 357 CURVE"
);
}
);
width = 571;
}
);
leftKerningGroup = hyphen;
rightKerningGroup = hyphen;
unicode = 2013;
},
{
glyphname = hyphen;
layers = (
{
layerId = UUID0;
paths = (
{
closed = 1;
nodes = (
"367 365 LINE",
"372 382 OFFCURVE",
"373 398 OFFCURVE",
"367 415 CURVE",
"70 415 LINE",
"61 396 OFFCURVE",
"65 381 OFFCURVE",
"70 365 CURVE"
);
}
);
width = 436;
}
);
leftKerningGroup = hyphen;
rightKerningGroup = hyphen;
unicode = 002D;
},
{
glyphname = guillemetleft;
layers = (
{
layerId = UUID0;
paths = (
{
closed = 1;
nodes = (
"137 247 LINE",
"270 433 LINE",
"267 444 OFFCURVE",
"259 451 OFFCURVE",
"248 454 CURVE",
"40 257 LINE",
"40 237 LINE",
"248 40 LINE",
"259 43 OFFCURVE",
"267 50 OFFCURVE",
"270 61 CURVE"
);
},
{
closed = 1;
nodes = (
"338 247 LINE",
"464 424 LINE",
"461 434 OFFCURVE",
"454 441 OFFCURVE",
"443 444 CURVE",
"246 256 LINE",
"246 237 LINE",
"443 50 LINE",
"454 53 OFFCURVE",
"461 60 OFFCURVE",
"464 70 CURVE"
);
}
);
width = 515;
}
);
leftKerningGroup = guilsinglleft;
rightKerningGroup = guilsinglleft;
unicode = 00AB;
},
{
glyphname = guilsinglleft;
layers = (
{
layerId = UUID0;
paths = (
{
closed = 1;
nodes = (
"137 247 LINE",
"270 433 LINE",
"267 444 OFFCURVE",
"259 451 OFFCURVE",
"248 454 CURVE",
"40 257 LINE",
"40 237 LINE",
"248 40 LINE",
"259 43 OFFCURVE",
"267 50 OFFCURVE",
"270 61 CURVE"
);
}
);
width = 318;
}
);
leftKerningGroup = guilsinglleft;
rightKerningGroup = guilsinglleft;
unicode = 2039;
},
{
glyphname = quoteright;
layers = (
{
layerId = UUID0;
paths = (
{
closed = 1;
nodes = (
"142 610 OFFCURVE",
"216 673 OFFCURVE",
"216 764 CURVE SMOOTH",
"216 809 OFFCURVE",
"189 851 OFFCURVE",
"138 851 CURVE SMOOTH",
"99 851 OFFCURVE",
"65 822 OFFCURVE",
"65 782 CURVE SMOOTH",
"65 743 OFFCURVE",
"93 712 OFFCURVE",
"146 712 CURVE SMOOTH",
"149 712 LINE",
"132 657 OFFCURVE",
"81 612 OFFCURVE",
"48 594 CURVE",
"52 577 OFFCURVE",
"59 566 OFFCURVE",
"74 562 CURVE"
);
}
);
width = 252;
}
);
leftKerningGroup = quoteright;
rightKerningGroup = quoteright;
unicode = 2019;
},
{
glyphname = cent;
layers = (
{
layerId = UUID0;
paths = (
{
closed = 1;
nodes = (
"366 668 LINE",
"349 675 OFFCURVE",
"333 675 OFFCURVE",
"316 668 CURVE",
"306 554 LINE",
"305 554 LINE",
"186 554 OFFCURVE",
"52 460 OFFCURVE",
"52 268 CURVE SMOOTH",
"52 97 OFFCURVE",
"127 -1 OFFCURVE",
"255 -17 CURVE",
"246 -128 LINE",
"262 -133 OFFCURVE",
"278 -134 OFFCURVE",
"296 -128 CURVE",
"305 -20 LINE",
"381 -17 OFFCURVE",
"445 9 OFFCURVE",
"495 58 CURVE",
"489 75 OFFCURVE",
"485 81 OFFCURVE",
"472 89 CURVE",
"428 57 OFFCURVE",
"369 25 OFFCURVE",
"310 25 CURVE",
"309 25 LINE",
"351 497 LINE",
"376 479 OFFCURVE",
"398 444 OFFCURVE",
"407 385 CURVE",
"461 384 OFFCURVE",
"493 388 OFFCURVE",
"510 406 CURVE",
"510 492 OFFCURVE",
"436 537 OFFCURVE",
"355 550 CURVE"
);
},
{
closed = 1;
nodes = (
"159 419 OFFCURVE",
"220 514 OFFCURVE",
"300 514 CURVE SMOOTH",
"302 514 LINE",
"260 35 LINE",
"196 64 OFFCURVE",
"159 148 OFFCURVE",
"159 266 CURVE SMOOTH"
);
}
);
width = 549;
}
);
unicode = 00A2;
},
{
glyphname = currency;
layers = (
{
layerId = UUID0;
paths = (
{
closed = 1;
nodes = (
"503 407 OFFCURVE",
"486 452 OFFCURVE",
"458 488 CURVE",
"521 551 LINE",
"512 567 OFFCURVE",
"502 579 OFFCURVE",
"486 587 CURVE",
"422 523 LINE",
"386 551 OFFCURVE",
"341 568 OFFCURVE",
"293 568 CURVE SMOOTH",
"244 568 OFFCURVE",
"198 551 OFFCURVE",
"163 524 CURVE",
"101 586 LINE",
"84 578 OFFCURVE",
"72 568 OFFCURVE",
"65 551 CURVE",
"127 488 LINE",
"99 453 OFFCURVE",
"82 408 OFFCURVE",
"82 359 CURVE SMOOTH",
"82 309 OFFCURVE",
"99 264 OFFCURVE",
"127 228 CURVE",
"66 167 LINE",
"73 147 OFFCURVE",
"87 139 OFFCURVE",
"102 131 CURVE",
"163 192 LINE",
"198 164 OFFCURVE",
"244 148 OFFCURVE",
"293 148 CURVE SMOOTH",
"341 148 OFFCURVE",
"386 165 OFFCURVE",
"422 193 CURVE",
"483 132 LINE",
"502 139 OFFCURVE",
"514 149 OFFCURVE",
"518 168 CURVE",
"458 228 LINE",
"486 264 OFFCURVE",
"503 309 OFFCURVE",
"503 359 CURVE SMOOTH"
);
},
{
closed = 1;
nodes = (
"448 273 OFFCURVE",
"378 204 OFFCURVE",
"293 204 CURVE SMOOTH",
"207 204 OFFCURVE",
"137 273 OFFCURVE",
"137 359 CURVE SMOOTH",
"137 444 OFFCURVE",
"207 513 OFFCURVE",
"293 513 CURVE SMOOTH",
"378 513 OFFCURVE",
"448 444 OFFCURVE",
"448 359 CURVE SMOOTH"
);
}
);
width = 585;
}
);
unicode = 00A4;
},
{
glyphname = dollar;
layers = (
{
layerId = UUID0;
paths = (
{
closed = 1;
nodes = (
"305 -85 LINE",
"320 -90 OFFCURVE",
"335 -91 OFFCURVE",
"355 -85 CURVE",
"355 -18 LINE",
"512 -5 OFFCURVE",
"616 82 OFFCURVE",
"616 208 CURVE SMOOTH",
"616 273 OFFCURVE",
"585 339 OFFCURVE",
"494 393 CURVE",
"355 478 LINE",
"355 772 LINE",
"398 770 OFFCURVE",
"444 758 OFFCURVE",
"485 731 CURVE",
"517 564 LINE",
"529 561 OFFCURVE",
"562 562 OFFCURVE",
"574 564 CURVE",
"574 756 LINE",
"501 795 OFFCURVE",
"436 814 OFFCURVE",
"355 816 CURVE",
"355 901 LINE",
"340 908 OFFCURVE",
"325 910 OFFCURVE",
"305 901 CURVE",
"305 814 LINE",
"186 803 OFFCURVE",
"77 743 OFFCURVE",
"77 631 CURVE SMOOTH",
"77 545 OFFCURVE",
"115 486 OFFCURVE",
"170 453 CURVE",
"305 368 LINE",
"305 29 LINE",
"253 31 OFFCURVE",
"206 40 OFFCURVE",
"163 69 CURVE",
"131 231 LINE",
"119 234 OFFCURVE",
"86 233 OFFCURVE",
"74 231 CURVE",
"74 39 LINE",
"147 0 OFFCURVE",
"214 -19 OFFCURVE",
"305 -20 CURVE"
);
},
{
closed = 1;
nodes = (
"409 303 LINE",
"467 269 OFFCURVE",
"498 242 OFFCURVE",
"498 168 CURVE SMOOTH",
"498 104 OFFCURVE",
"456 37 OFFCURVE",
"355 29 CURVE",
"355 337 LINE"
);
},
{
closed = 1;
nodes = (
"186 723 OFFCURVE",
"239 760 OFFCURVE",
"305 769 CURVE",
"305 509 LINE",
"250 543 LINE SMOOTH",
"206 570 OFFCURVE",
"186 603 OFFCURVE",
"186 656 CURVE SMOOTH"
);
}
);
width = 661;
}
);
unicode = 0024;
},
{
glyphname = euro;
layers = (
{
layerId = UUID0;
paths = (
{
closed = 1;
nodes = (
"29 467 LINE",
"16 450 OFFCURVE",
"12 434 OFFCURVE",
"15 417 CURVE",
"80 417 LINE",
"80 395 LINE",
"80 357 LINE",
"29 357 LINE",
"14 339 OFFCURVE",
"12 323 OFFCURVE",
"15 307 CURVE",
"85 307 LINE",
"107 120 OFFCURVE",
"204 -20 OFFCURVE",
"399 -20 CURVE SMOOTH",
"488 -20 OFFCURVE",
"549 3 OFFCURVE",
"608 69 CURVE",
"606 87 OFFCURVE",
"600 100 OFFCURVE",
"582 107 CURVE",
"530 63 OFFCURVE",
"480 46 OFFCURVE",
"406 46 CURVE SMOOTH",
"303 46 OFFCURVE",
"230 133 OFFCURVE",
"209 307 CURVE",
"406 307 LINE",
"419 321 OFFCURVE",
"423 337 OFFCURVE",
"420 357 CURVE",
"205 357 LINE",
"204 374 OFFCURVE",
"204 393 OFFCURVE",
"204 412 CURVE SMOOTH",
"204 417 LINE",
"436 417 LINE",
"447 433 OFFCURVE",
"452 449 OFFCURVE",
"450 467 CURVE",
"206 467 LINE",
"219 646 OFFCURVE",
"301 766 OFFCURVE",
"431 766 CURVE SMOOTH",
"470 766 OFFCURVE",
"513 759 OFFCURVE",
"560 741 CURVE",
"522 574 LINE",
"527 573 OFFCURVE",
"537 572 OFFCURVE",
"547 572 CURVE SMOOTH",
"559 572 OFFCURVE",
"572 573 OFFCURVE",
"579 574 CURVE",
"649 766 LINE",
"577 799 OFFCURVE",
"508 813 OFFCURVE",
"444 813 CURVE SMOOTH",
"255 813 OFFCURVE",
"113 665 OFFCURVE",
"85 467 CURVE"
);
}
);
width = 704;
}
);
unicode = 20AC;
},
{
glyphname = sterling;
layers = (
{
layerId = UUID0;
paths = (
{
closed = 1;
nodes = (
"378 57 OFFCURVE",
"365 151 OFFCURVE",
"236 158 CURVE",
"258 175 LINE SMOOTH",
"330 228 OFFCURVE",
"343 264 OFFCURVE",
"343 347 CURVE SMOOTH",
"343 351 OFFCURVE",
"343 355 OFFCURVE",
"342 359 CURVE",
"473 359 LINE",
"481 376 OFFCURVE",
"481 392 OFFCURVE",
"473 409 CURVE",
"333 409 LINE",
"315 478 OFFCURVE",
"276 562 OFFCURVE",
"262 623 CURVE",
"257 641 OFFCURVE",
"255 659 OFFCURVE",
"255 676 CURVE SMOOTH",
"255 731 OFFCURVE",
"283 773 OFFCURVE",
"349 773 CURVE SMOOTH",
"394 773 OFFCURVE",
"434 764 OFFCURVE",
"472 734 CURVE",
"504 594 LINE",
"561 594 LINE",
"561 756 LINE",
"492 797 OFFCURVE",
"429 816 OFFCURVE",
"351 816 CURVE SMOOTH",
"205 816 OFFCURVE",
"136 750 OFFCURVE",
"136 649 CURVE SMOOTH",
"136 618 OFFCURVE",
"143 584 OFFCURVE",
"155 547 CURVE SMOOTH",
"167 509 OFFCURVE",
"187 460 OFFCURVE",
"204 409 CURVE",
"122 409 LINE",
"115 392 OFFCURVE",
"115 376 OFFCURVE",
"122 359 CURVE",
"219 359 LINE",
"228 326 OFFCURVE",
"234 294 OFFCURVE",
"234 267 CURVE SMOOTH",
"234 237 OFFCURVE",
"227 213 OFFCURVE",
"208 197 CURVE SMOOTH",
"124 129 LINE",
"86 105 OFFCURVE",
"56 71 OFFCURVE",
"35 43 CURVE",
"46 21 OFFCURVE",
"60 13 OFFCURVE",
"76 7 CURVE",
"125 56 OFFCURVE",
"157 81 OFFCURVE",
"193 81 CURVE SMOOTH",
"302 81 OFFCURVE",
"319 -21 OFFCURVE",
"463 -21 CURVE SMOOTH",
"550 -21 OFFCURVE",
"611 40 OFFCURVE",
"645 86 CURVE",
"639 99 OFFCURVE",
"629 110 OFFCURVE",
"607 115 CURVE",
"550 68 OFFCURVE",
"529 57 OFFCURVE",
"488 57 CURVE SMOOTH"
);
}
);
width = 638;
}
);
unicode = 00A3;
},
{
glyphname = yen;
layers = (
{
layerId = UUID0;
paths = (
{
closed = 1;
nodes = (
"598 257 LINE",
"606 274 OFFCURVE",
"606 290 OFFCURVE",
"598 307 CURVE",
"409 307 LINE",
"409 341 LINE",
"419 357 LINE",
"598 357 LINE",
"605 374 OFFCURVE",
"605 390 OFFCURVE",
"598 407 CURVE",
"449 407 LINE",
"605 661 LINE",
"629 703 OFFCURVE",
"649 725 OFFCURVE",
"671 750 CURVE",
"733 762 LINE",
"737 774 OFFCURVE",
"737 786 OFFCURVE",
"733 798 CURVE",
"690 796 OFFCURVE",
"655 795 OFFCURVE",
"621 795 CURVE SMOOTH",
"586 795 OFFCURVE",
"552 796 OFFCURVE",
"511 799 CURVE",
"509 787 OFFCURVE",
"508 774 OFFCURVE",
"511 762 CURVE",
"592 752 LINE",
"383 399 LINE",
"251 625 LINE SMOOTH",
"225 670 OFFCURVE",
"212 695 OFFCURVE",
"196 743 CURVE",
"294 762 LINE",
"298 774 OFFCURVE",
"298 786 OFFCURVE",
"294 798 CURVE",
"251 796 OFFCURVE",
"196 795 OFFCURVE",
"142 795 CURVE SMOOTH",
"87 795 OFFCURVE",
"33 796 OFFCURVE",
"-8 799 CURVE",
"-10 787 OFFCURVE",
"-11 774 OFFCURVE",
"-8 762 CURVE",
"63 752 LINE",
"265 407 LINE",
"137 407 LINE",
"128 390 OFFCURVE",
"128 374 OFFCURVE",
"137 357 CURVE",
"294 357 LINE",
"302 344 LINE",
"302 307 LINE",
"137 307 LINE",
"128 290 OFFCURVE",
"130 274 OFFCURVE",
"137 257 CURVE",
"302 257 LINE",
"302 163 LINE SMOOTH",
"302 126 OFFCURVE",
"302 84 OFFCURVE",
"298 46 CURVE",
"215 34 LINE",
"211 22 OFFCURVE",
"211 10 OFFCURVE",
"215 -2 CURVE",
"257 -1 OFFCURVE",
"305 0 OFFCURVE",
"353 0 CURVE SMOOTH",
"401 0 OFFCURVE",
"448 -1 OFFCURVE",
"490 -3 CURVE",
"492 9 OFFCURVE",
"493 22 OFFCURVE",
"490 34 CURVE",
"409 44 LINE",
"409 257 LINE"
);
}
);
width = 726;
}
);
unicode = 00A5;
},
{
glyphname = plus;
layers = (
{
layerId = UUID0;
paths = (
{
closed = 1;
nodes = (
"312 635 LINE",
"295 641 OFFCURVE",
"279 642 OFFCURVE",
"262 635 CURVE",
"262 415 LINE",
"42 415 LINE",
"33 396 OFFCURVE",
"37 381 OFFCURVE",
"42 365 CURVE",
"262 365 LINE",
"262 144 LINE",
"280 135 OFFCURVE",
"296 134 OFFCURVE",
"312 144 CURVE",
"312 365 LINE",
"533 365 LINE",
"538 382 OFFCURVE",
"539 398 OFFCURVE",
"533 415 CURVE",
"312 415 LINE"
);
}
);
width = 575;
}
);
unicode = 002B;
},
{
glyphname = minus;
layers = (
{
layerId = UUID0;
paths = (
{
closed = 1;
nodes = (
"572 365 LINE",
"577 382 OFFCURVE",
"578 398 OFFCURVE",
"572 415 CURVE",
"81 415 LINE",
"72 396 OFFCURVE",
"76 381 OFFCURVE",
"81 365 CURVE"
);
}
);
width = 652;
}
);
unicode = 2212;
},
{
glyphname = multiply;
layers = (
{
layerId = UUID0;
paths = (
{
closed = 1;
nodes = (
"97 581 LINE",
"80 573 OFFCURVE",
"68 563 OFFCURVE",
"61 546 CURVE",
"216 390 LINE",
"61 235 LINE",
"68 215 OFFCURVE",
"82 207 OFFCURVE",
"97 199 CURVE",
"252 354 LINE",
"409 198 LINE",
"428 205 OFFCURVE",
"440 215 OFFCURVE",
"444 234 CURVE",
"288 390 LINE",
"444 546 LINE",
"435 562 OFFCURVE",
"425 574 OFFCURVE",
"409 582 CURVE",
"252 426 LINE"
);
}
);
width = 506;
}
);
unicode = 00D7;
},
{
glyphname = divide;
layers = (
{
components = (
{
name = period;
transform = "{1, 0, 0, 1, 195, 154}";
},
{
name = period;
transform = "{1, 0, 0, 1, 195, 528}";
}
);
layerId = UUID0;
paths = (
{
closed = 1;
nodes = (
"555 365 LINE",
"560 382 OFFCURVE",
"561 398 OFFCURVE",
"555 415 CURVE",
"64 415 LINE",
"55 396 OFFCURVE",
"59 381 OFFCURVE",
"64 365 CURVE"
);
}
);
width = 619;
}
);
unicode = 00F7;
},
{
glyphname = equal;
layers = (
{
layerId = UUID0;
paths = (
{
closed = 1;
nodes = (
"472 425 LINE",
"477 442 OFFCURVE",
"478 458 OFFCURVE",
"472 475 CURVE",
"81 475 LINE",
"72 456 OFFCURVE",
"76 441 OFFCURVE",
"81 425 CURVE"
);
},
{
closed = 1;
nodes = (
"472 287 LINE",
"477 304 OFFCURVE",
"478 320 OFFCURVE",
"472 337 CURVE",
"81 337 LINE",
"72 318 OFFCURVE",
"76 303 OFFCURVE",
"81 287 CURVE"
);
}
);
width = 552;
}
);
unicode = 003D;
},
{
glyphname = less;
layers = (
{
layerId = UUID0;
paths = (
{
closed = 1;
nodes = (
"121 406 LINE",
"627 628 LINE",
"630 639 OFFCURVE",
"632 651 OFFCURVE",
"632 662 CURVE SMOOTH",
"632 672 OFFCURVE",
"630 682 OFFCURVE",
"627 693 CURVE",
"38 436 LINE",
"33 414 OFFCURVE",
"35 395 OFFCURVE",
"38 376 CURVE",
"627 119 LINE",
"630 130 OFFCURVE",
"632 142 OFFCURVE",
"632 153 CURVE SMOOTH",
"632 163 OFFCURVE",
"630 173 OFFCURVE",
"627 184 CURVE"
);
}
);
width = 710;
}
);
unicode = 003C;
},
{
glyphname = plusminus;
layers = (
{
layerId = UUID0;
paths = (
{
closed = 1;
nodes = (
"346 585 LINE",
"329 591 OFFCURVE",
"313 592 OFFCURVE",
"296 585 CURVE",
"296 415 LINE",
"76 415 LINE",
"67 396 OFFCURVE",
"71 381 OFFCURVE",
"76 365 CURVE",
"296 365 LINE",
"296 194 LINE",
"314 185 OFFCURVE",
"330 184 OFFCURVE",
"346 194 CURVE",
"346 365 LINE",
"567 365 LINE",
"572 382 OFFCURVE",
"573 398 OFFCURVE",
"567 415 CURVE",
"346 415 LINE"
);
},
{
closed = 1;
nodes = (
"567 95 LINE",
"572 112 OFFCURVE",
"573 128 OFFCURVE",
"567 145 CURVE",
"76 145 LINE",
"67 126 OFFCURVE",
"71 111 OFFCURVE",
"76 95 CURVE"
);
}
);
width = 642;
}
);
unicode = 00B1;
},
{
glyphname = asciitilde;
layers = (
{
layerId = UUID0;
paths = (
{
closed = 1;
nodes = (
"376 461 OFFCURVE",
"357 563 OFFCURVE",
"227 563 CURVE SMOOTH",
"144 563 OFFCURVE",
"79 496 OFFCURVE",
"42 447 CURVE",
"53 425 OFFCURVE",
"67 417 OFFCURVE",
"83 411 CURVE",
"132 460 OFFCURVE",
"159 485 OFFCURVE",
"200 485 CURVE SMOOTH",
"301 485 OFFCURVE",
"316 383 OFFCURVE",
"450 383 CURVE SMOOTH",
"537 383 OFFCURVE",
"598 444 OFFCURVE",
"632 490 CURVE",
"626 503 OFFCURVE",
"616 514 OFFCURVE",
"594 519 CURVE",
"537 472 OFFCURVE",
"516 461 OFFCURVE",
"475 461 CURVE SMOOTH"
);
}
);
width = 662;
}
);
unicode = 007E;
},
{
glyphname = logicalnot;
layers = (
{
layerId = UUID0;
paths = (
{
closed = 1;
nodes = (
"571 415 LINE",
"80 415 LINE",
"71 396 OFFCURVE",
"75 381 OFFCURVE",
"80 365 CURVE",
"521 365 LINE",
"521 154 LINE",
"539 145 OFFCURVE",
"555 144 OFFCURVE",
"571 154 CURVE"
);
}
);
width = 653;
}
);
unicode = 00AC;
},
{
glyphname = micro;
layers = (
{
layerId = UUID0;
paths = (
{
closed = 1;
nodes = (
"416 48 OFFCURVE",
"415 27 OFFCURVE",
"411 8 CURVE",
"412 1 OFFCURVE",
"415 -5 OFFCURVE",
"421 -12 CURVE",
"452 -7 OFFCURVE",
"483 -3 OFFCURVE",
"514 1 CURVE",
"506 41 OFFCURVE",
"501 105 OFFCURVE",
"501 142 CURVE SMOOTH",
"501 348 LINE SMOOTH",
"501 481 OFFCURVE",
"502 515 OFFCURVE",
"506 534 CURVE",
"505 541 OFFCURVE",
"502 547 OFFCURVE",
"496 554 CURVE",
"465 549 OFFCURVE",
"434 545 OFFCURVE",
"403 541 CURVE",
"406 453 OFFCURVE",
"406 376 OFFCURVE",
"406 339 CURVE SMOOTH",
"406 138 LINE",
"359 69 OFFCURVE",
"311 38 OFFCURVE",
"254 38 CURVE SMOOTH",
"206 38 OFFCURVE",
"176 87 OFFCURVE",
"176 167 CURVE SMOOTH",
"176 429 OFFCURVE",
"176 508 OFFCURVE",
"181 534 CURVE",
"180 541 OFFCURVE",
"177 547 OFFCURVE",
"171 554 CURVE",
"140 549 OFFCURVE",
"109 545 OFFCURVE",
"78 541 CURVE",
"81 453 OFFCURVE",
"81 376 OFFCURVE",
"81 339 CURVE SMOOTH",
"81 10 LINE SMOOTH",
"81 -142 OFFCURVE",
"113 -290 OFFCURVE",
"227 -290 CURVE SMOOTH",
"309 -290 OFFCURVE",
"338 -249 OFFCURVE",
"338 -199 CURVE",
"322 -186 OFFCURVE",
"302 -180 OFFCURVE",
"278 -180 CURVE SMOOTH",
"267 -180 OFFCURVE",
"254 -181 OFFCURVE",
"241 -184 CURVE",
"234 -228 OFFCURVE",
"227 -255 OFFCURVE",
"210 -255 CURVE SMOOTH",
"175 -255 OFFCURVE",
"146 -198 OFFCURVE",
"146 -43 CURVE SMOOTH",
"146 10 LINE",
"171 -10 OFFCURVE",
"203 -20 OFFCURVE",
"235 -20 CURVE SMOOTH",
"322 -20 OFFCURVE",
"368 32 OFFCURVE",
"416 94 CURVE"
);
}
);
width = 561;
}
);
unicode = 00B5;
},
{
glyphname = percent;
layers = (
{
components = (
{
name = fraction;
transform = "{1, 0, 0, 1, 274, 0}";
}
);
layerId = UUID0;
paths = (
{
closed = 1;
nodes = (
"845 -30 OFFCURVE",
"911 69 OFFCURVE",
"911 190 CURVE SMOOTH",
"911 326 OFFCURVE",
"845 426 OFFCURVE",
"729 426 CURVE SMOOTH",
"615 426 OFFCURVE",
"549 326 OFFCURVE",
"549 190 CURVE SMOOTH",
"549 69 OFFCURVE",
"614 -30 OFFCURVE",
"729 -30 CURVE SMOOTH"
);
},
{
closed = 1;
nodes = (
"670 8 OFFCURVE",
"624 74 OFFCURVE",
"624 204 CURVE SMOOTH",
"624 320 OFFCURVE",
"655 388 OFFCURVE",
"729 388 CURVE SMOOTH",
"805 388 OFFCURVE",
"836 320 OFFCURVE",
"836 204 CURVE SMOOTH",
"836 74 OFFCURVE",
"790 8 OFFCURVE",
"729 8 CURVE SMOOTH"
);
},
{
closed = 1;
nodes = (
"362 348 OFFCURVE",
"428 447 OFFCURVE",
"428 568 CURVE SMOOTH",
"428 704 OFFCURVE",
"362 804 OFFCURVE",
"246 804 CURVE SMOOTH",
"132 804 OFFCURVE",
"66 704 OFFCURVE",
"66 568 CURVE SMOOTH",
"66 447 OFFCURVE",
"131 348 OFFCURVE",
"246 348 CURVE SMOOTH"
);
},
{
closed = 1;
nodes = (
"187 386 OFFCURVE",
"141 452 OFFCURVE",
"141 582 CURVE SMOOTH",
"141 698 OFFCURVE",
"172 766 OFFCURVE",
"246 766 CURVE SMOOTH",
"322 766 OFFCURVE",
"353 698 OFFCURVE",
"353 582 CURVE SMOOTH",
"353 452 OFFCURVE",
"307 386 OFFCURVE",
"246 386 CURVE SMOOTH"
);
}
);
width = 992;
}
);
unicode = 0025;
},
{
glyphname = at;
layers = (
{
layerId = UUID0;
paths = (
{
closed = 1;
nodes = (
"556 123 OFFCURVE",
"572 103 OFFCURVE",
"611 103 CURVE SMOOTH",
"810 103 OFFCURVE",
"965 237 OFFCURVE",
"965 442 CURVE SMOOTH",
"965 653 OFFCURVE",
"799 791 OFFCURVE",
"551 791 CURVE SMOOTH",
"267 791 OFFCURVE",
"55 608 OFFCURVE",
"55 313 CURVE SMOOTH",
"55 -2 OFFCURVE",
"287 -157 OFFCURVE",
"540 -157 CURVE SMOOTH",
"649 -157 OFFCURVE",
"707 -134 OFFCURVE",
"782 -90 CURVE",
"765 -57 LINE",
"700 -93 OFFCURVE",
"621 -111 OFFCURVE",
"552 -111 CURVE SMOOTH",
"270 -111 OFFCURVE",
"106 71 OFFCURVE",
"106 312 CURVE SMOOTH",
"106 559 OFFCURVE",
"296 745 OFFCURVE",
"553 745 CURVE SMOOTH",
"756 745 OFFCURVE",
"913 644 OFFCURVE",
"913 445 CURVE SMOOTH",
"913 247 OFFCURVE",
"777 155 OFFCURVE",
"656 155 CURVE",
"719 569 LINE",
"669 587 OFFCURVE",
"635 591 OFFCURVE",
"583 591 CURVE SMOOTH",
"416 591 OFFCURVE",
"298 434 OFFCURVE",
"298 240 CURVE SMOOTH",
"298 140 OFFCURVE",
"335 103 OFFCURVE",
"389 103 CURVE SMOOTH",
"461 103 OFFCURVE",
"521 147 OFFCURVE",
"562 196 CURVE"
);
},
{
closed = 1;
nodes = (
"391 169 OFFCURVE",
"387 208 OFFCURVE",
"387 261 CURVE SMOOTH",
"387 394 OFFCURVE",
"445 551 OFFCURVE",
"568 551 CURVE SMOOTH",
"590 551 OFFCURVE",
"598 550 OFFCURVE",
"619 547 CURVE",
"575 252 LINE",
"517 193 OFFCURVE",
"486 169 OFFCURVE",
"439 169 CURVE SMOOTH"
);
}
);
width = 1002;
}
);
unicode = 0040;
},
{
glyphname = ampersand;
layers = (
{
layerId = UUID0;
paths = (
{
closed = 1;
nodes = (
"693 332 LINE",
"697 344 OFFCURVE",
"697 356 OFFCURVE",
"693 368 CURVE",
"650 366 OFFCURVE",
"628 365 OFFCURVE",
"605 365 CURVE SMOOTH",
"582 365 OFFCURVE",
"559 366 OFFCURVE",
"518 369 CURVE",
"516 357 OFFCURVE",
"515 344 OFFCURVE",
"518 332 CURVE",
"580 332 LINE",
"571 286 OFFCURVE",
"556 241 OFFCURVE",
"535 200 CURVE",
"349 440 LINE",
"501 550 OFFCURVE",
"517 603 OFFCURVE",
"517 655 CURVE SMOOTH",
"517 750 OFFCURVE",
"452 806 OFFCURVE",
"319 806 CURVE SMOOTH",
"188 806 OFFCURVE",
"120 725 OFFCURVE",
"120 631 CURVE SMOOTH",
"120 588 OFFCURVE",
"142 532 OFFCURVE",
"190 470 CURVE SMOOTH",
"234 412 LINE",
"105 333 OFFCURVE",
"44 273 OFFCURVE",
"44 168 CURVE SMOOTH",
"44 48 OFFCURVE",
"144 -14 OFFCURVE",
"261 -14 CURVE SMOOTH",
"361 -14 OFFCURVE",
"438 19 OFFCURVE",
"496 74 CURVE",
"500 69 LINE SMOOTH",
"541 15 OFFCURVE",
"601 -15 OFFCURVE",
"656 -15 CURVE SMOOTH",
"747 -15 OFFCURVE",
"805 68 OFFCURVE",
"805 99 CURVE SMOOTH",
"805 118 OFFCURVE",
"796 147 OFFCURVE",
"764 147 CURVE SMOOTH",
"737 147 OFFCURVE",
"713 133 OFFCURVE",
"692 107 CURVE",
"707 79 OFFCURVE",
"717 59 OFFCURVE",
"717 45 CURVE SMOOTH",
"717 34 OFFCURVE",
"709 28 OFFCURVE",
"700 28 CURVE SMOOTH",
"676 28 OFFCURVE",
"638 68 OFFCURVE",
"572 154 CURVE",
"564 163 LINE",
"593 213 OFFCURVE",
"614 271 OFFCURVE",
"627 332 CURVE"
);
},
{
closed = 1;
nodes = (
"219 32 OFFCURVE",
"163 74 OFFCURVE",
"163 184 CURVE SMOOTH",
"163 237 OFFCURVE",
"176 310 OFFCURVE",
"261 377 CURVE",
"470 107 LINE",
"425 61 OFFCURVE",
"366 32 OFFCURVE",
"291 32 CURVE SMOOTH"
);
},
{
closed = 1;
nodes = (
"217 734 OFFCURVE",
"259 773 OFFCURVE",
"319 773 CURVE SMOOTH",
"394 773 OFFCURVE",
"418 719 OFFCURVE",
"418 639 CURVE SMOOTH",
"418 581 OFFCURVE",
"376 512 OFFCURVE",
"324 471 CURVE",
"276 534 LINE SMOOTH",
"234 587 OFFCURVE",
"217 635 OFFCURVE",
"217 674 CURVE SMOOTH"
);
}
);
width = 806;
}
);
unicode = 0026;
},
{
glyphname = paragraph;
layers = (
{
layerId = UUID0;
paths = (
{
closed = 1;
nodes = (
"544 756 LINE",
"615 766 LINE",
"618 778 OFFCURVE",
"617 791 OFFCURVE",
"615 803 CURVE",
"580 800 OFFCURVE",
"545 799 OFFCURVE",
"506 799 CURVE SMOOTH",
"487 799 OFFCURVE",
"467 799 OFFCURVE",
"446 800 CURVE SMOOTH",
"401 802 OFFCURVE",
"352 807 OFFCURVE",
"283 807 CURVE SMOOTH",
"96 807 OFFCURVE",
"36 711 OFFCURVE",
"36 578 CURVE SMOOTH",
"36 448 OFFCURVE",
"151 352 OFFCURVE",
"285 352 CURVE SMOOTH",
"305 352 OFFCURVE",
"326 353 OFFCURVE",
"348 357 CURVE",
"348 44 LINE",
"257 34 LINE",
"254 22 OFFCURVE",
"255 9 OFFCURVE",
"257 -3 CURVE",
"330 -1 OFFCURVE",
"395 0 OFFCURVE",
"462 0 CURVE SMOOTH",
"510 0 OFFCURVE",
"559 -1 OFFCURVE",
"611 -2 CURVE",
"613 10 OFFCURVE",
"614 22 OFFCURVE",
"611 34 CURVE",
"548 46 LINE",
"544 84 OFFCURVE",
"544 126 OFFCURVE",
"544 163 CURVE SMOOTH"
);
},
{
closed = 1;
nodes = (
"202 395 OFFCURVE",
"157 454 OFFCURVE",
"157 583 CURVE SMOOTH",
"157 690 OFFCURVE",
"196 765 OFFCURVE",
"308 765 CURVE SMOOTH",
"320 765 OFFCURVE",
"335 764 OFFCURVE",
"343 761 CURVE",
"347 723 OFFCURVE",
"348 670 OFFCURVE",
"348 633 CURVE SMOOTH",
"348 398 LINE",
"329 395 OFFCURVE",
"310 395 OFFCURVE",
"298 395 CURVE SMOOTH"
);
},
{
closed = 1;
nodes = (
"416 756 LINE",
"472 756 LINE",
"476 718 OFFCURVE",
"476 674 OFFCURVE",
"476 637 CURVE SMOOTH",
"476 44 LINE",
"420 44 LINE",
"416 82 OFFCURVE",
"416 126 OFFCURVE",
"416 163 CURVE"
);
}
);
width = 677;
}
);
unicode = 00B6;
},
{
glyphname = section;
layers = (
{
layerId = UUID0;
paths = (
{
closed = 1;
nodes = (
"231 603 LINE",
"191 634 OFFCURVE",
"172 670 OFFCURVE",
"172 703 CURVE SMOOTH",
"172 768 OFFCURVE",
"220 794 OFFCURVE",
"272 794 CURVE SMOOTH",
"319 794 OFFCURVE",
"356 765 OFFCURVE",
"369 665 CURVE",
"381 663 OFFCURVE",
"394 662 OFFCURVE",
"406 662 CURVE SMOOTH",
"437 662 OFFCURVE",
"465 669 OFFCURVE",
"482 686 CURVE",
"482 790 OFFCURVE",
"384 837 OFFCURVE",
"297 837 CURVE SMOOTH",
"181 837 OFFCURVE",
"95 775 OFFCURVE",
"95 665 CURVE SMOOTH",
"95 627 OFFCURVE",
"109 587 OFFCURVE",
"145 550 CURVE",
"102 512 OFFCURVE",
"73 456 OFFCURVE",
"73 401 CURVE SMOOTH",
"73 335 OFFCURVE",
"102 281 OFFCURVE",
"153 240 CURVE",
"318 122 LINE",
"358 90 OFFCURVE",
"377 62 OFFCURVE",
"377 28 CURVE SMOOTH",
"377 -37 OFFCURVE",
"331 -67 OFFCURVE",
"269 -67 CURVE SMOOTH",
"222 -67 OFFCURVE",
"166 -34 OFFCURVE",
"153 66 CURVE",
"139 68 OFFCURVE",
"126 69 OFFCURVE",
"115 69 CURVE SMOOTH",
"76 69 OFFCURVE",
"51 57 OFFCURVE",
"40 45 CURVE",
"40 -59 OFFCURVE",
"157 -106 OFFCURVE",
"244 -106 CURVE SMOOTH",
"373 -106 OFFCURVE",
"454 -47 OFFCURVE",
"454 75 CURVE SMOOTH",
"454 112 OFFCURVE",
"438 146 OFFCURVE",
"403 181 CURVE",
"448 223 OFFCURVE",
"474 283 OFFCURVE",
"474 342 CURVE SMOOTH",
"474 393 OFFCURVE",
"454 442 OFFCURVE",
"412 476 CURVE"
);
},
{
closed = 1;
nodes = (
"210 322 LINE",
"163 357 OFFCURVE",
"139 398 OFFCURVE",
"139 436 CURVE SMOOTH",
"139 469 OFFCURVE",
"155 502 OFFCURVE",
"177 523 CURVE",
"179 521 OFFCURVE",
"181 519 OFFCURVE",
"184 518 CURVE",
"339 402 LINE",
"386 369 OFFCURVE",
"410 323 OFFCURVE",
"410 285 CURVE SMOOTH",
"410 252 OFFCURVE",
"394 225 OFFCURVE",
"373 206 CURVE",
"365 213 LINE"
);
}
);
width = 537;
}
);
unicode = 00A7;
},
{
glyphname = copyright;
layers = (
{
layerId = UUID0;
paths = (
{
closed = 1;
nodes = (
"549 211 OFFCURVE",
"506 187 OFFCURVE",
"450 187 CURVE SMOOTH",
"373 187 OFFCURVE",
"320 257 OFFCURVE",
"320 386 CURVE SMOOTH",
"320 498 OFFCURVE",
"378 578 OFFCURVE",
"456 578 CURVE SMOOTH",
"486 578 OFFCURVE",
"510 575 OFFCURVE",
"539 555 CURVE",
"558 473 LINE",
"572 469 OFFCURVE",
"586 469 OFFCURVE",
"600 473 CURVE",
"600 583 LINE",
"557 606 OFFCURVE",
"512 617 OFFCURVE",
"463 617 CURVE SMOOTH",
"310 617 OFFCURVE",
"229 494 OFFCURVE",
"229 376 CURVE SMOOTH",
"229 260 OFFCURVE",
"298 139 OFFCURVE",
"450 139 CURVE SMOOTH",
"515 139 OFFCURVE",
"568 173 OFFCURVE",
"612 213 CURVE",
"609 222 OFFCURVE",
"594 239 OFFCURVE",
"586 245 CURVE"
);
},
{
closed = 1;
nodes = (
"842 589 OFFCURVE",
"668 773 OFFCURVE",
"447 773 CURVE SMOOTH",
"237 773 OFFCURVE",
"53 600 OFFCURVE",
"53 379 CURVE SMOOTH",
"53 170 OFFCURVE",
"226 -15 OFFCURVE",
"447 -15 CURVE SMOOTH",
"656 -15 OFFCURVE",
"842 158 OFFCURVE",
"842 379 CURVE SMOOTH"
);
},
{
closed = 1;
nodes = (
"802 180 OFFCURVE",
"635 24 OFFCURVE",
"447 24 CURVE SMOOTH",
"248 24 OFFCURVE",
"93 191 OFFCURVE",
"93 379 CURVE SMOOTH",
"93 578 OFFCURVE",
"258 734 OFFCURVE",
"447 734 CURVE SMOOTH",
"646 734 OFFCURVE",
"802 568 OFFCURVE",
"802 379 CURVE SMOOTH"
);
}
);
width = 894;
}
);
unicode = 00A9;
},
{
glyphname = registered;
layers = (
{
layerId = UUID0;
paths = (
{
closed = 1;
nodes = (
"842 589 OFFCURVE",
"668 773 OFFCURVE",
"447 773 CURVE SMOOTH",
"237 773 OFFCURVE",
"53 600 OFFCURVE",
"53 379 CURVE SMOOTH",
"53 170 OFFCURVE",
"226 -15 OFFCURVE",
"447 -15 CURVE SMOOTH",
"656 -15 OFFCURVE",
"842 158 OFFCURVE",
"842 379 CURVE SMOOTH"
);
},
{
closed = 1;
nodes = (
"802 180 OFFCURVE",
"635 24 OFFCURVE",
"447 24 CURVE SMOOTH",
"248 24 OFFCURVE",
"93 191 OFFCURVE",
"93 379 CURVE SMOOTH",
"93 578 OFFCURVE",
"258 734 OFFCURVE",
"447 734 CURVE SMOOTH",
"646 734 OFFCURVE",
"802 568 OFFCURVE",
"802 379 CURVE SMOOTH"
);
},
{
closed = 1;
nodes = (
"249 609 OFFCURVE",
"249 601 OFFCURVE",
"251 594 CURVE",
"297 588 LINE",
"297 251 LINE SMOOTH",
"297 229 OFFCURVE",
"297 205 OFFCURVE",
"294 184 CURVE",
"247 177 LINE",
"245 169 OFFCURVE",
"245 163 OFFCURVE",
"247 156 CURVE",
"269 157 OFFCURVE",
"298 157 OFFCURVE",
"327 157 CURVE SMOOTH",
"363 157 OFFCURVE",
"400 157 OFFCURVE",
"426 155 CURVE",
"427 162 OFFCURVE",
"428 169 OFFCURVE",
"426 177 CURVE",
"373 183 LINE",
"373 368 LINE",
"392 367 OFFCURVE",
"410 365 OFFCURVE",
"428 365 CURVE",
"438 352 OFFCURVE",
"449 334 OFFCURVE",
"460 314 CURVE SMOOTH",
"547 157 LINE",
"657 157 LINE",
"658 164 OFFCURVE",
"659 171 OFFCURVE",
"657 179 CURVE",
"616 184 LINE",
"502 376 LINE",
"559 396 OFFCURVE",
"603 439 OFFCURVE",
"603 491 CURVE SMOOTH",
"603 567 OFFCURVE",
"557 620 OFFCURVE",
"434 620 CURVE SMOOTH",
"355 620 OFFCURVE",
"301 615 OFFCURVE",
"251 616 CURVE"
);
},
{
closed = 1;
nodes = (
"373 516 LINE SMOOTH",
"373 538 OFFCURVE",
"374 565 OFFCURVE",
"377 588 CURVE",
"386 589 OFFCURVE",
"406 592 OFFCURVE",
"419 592 CURVE SMOOTH",
"501 592 OFFCURVE",
"526 553 OFFCURVE",
"526 491 CURVE SMOOTH",
"526 447 OFFCURVE",
"507 397 OFFCURVE",
"426 397 CURVE SMOOTH",
"411 397 OFFCURVE",
"391 396 OFFCURVE",
"373 400 CURVE"
);
}
);
width = 894;
}
);
unicode = 00AE;
},
{
glyphname = degree;
layers = (
{
layerId = UUID0;
paths = (
{
closed = 1;
nodes = (
"367 710 OFFCURVE",
"288 791 OFFCURVE",
"191 791 CURVE SMOOTH",
"97 791 OFFCURVE",
"15 716 OFFCURVE",
"15 616 CURVE SMOOTH",
"15 521 OFFCURVE",
"93 439 OFFCURVE",
"192 439 CURVE SMOOTH",
"287 439 OFFCURVE",
"367 518 OFFCURVE",
"367 617 CURVE SMOOTH"
);
},
{
closed = 1;
nodes = (
"303 554 OFFCURVE",
"254 497 OFFCURVE",
"192 497 CURVE SMOOTH",
"128 497 OFFCURVE",
"79 556 OFFCURVE",
"79 616 CURVE SMOOTH",
"79 679 OFFCURVE",
"132 733 OFFCURVE",
"191 733 CURVE SMOOTH",
"254 733 OFFCURVE",
"303 676 OFFCURVE",
"303 618 CURVE SMOOTH"
);
}
);
width = 382;
}
);
unicode = 00B0;
},
{
glyphname = bar;
layers = (
{
layerId = UUID0;
paths = (
{
closed = 1;
nodes = (
"147 913 LINE",
"131 917 OFFCURVE",
"108 917 OFFCURVE",
"90 913 CURVE",
"90 -138 LINE",
"107 -143 OFFCURVE",
"130 -144 OFFCURVE",
"147 -138 CURVE"
);
}
);
width = 230;
}
);
unicode = 007C;
},
{
glyphname = brokenbar;
layers = (
{
layerId = UUID0;
paths = (
{
closed = 1;
nodes = (
"151 783 LINE",
"135 787 OFFCURVE",
"112 787 OFFCURVE",
"94 783 CURVE",
"94 447 LINE",
"111 442 OFFCURVE",
"134 441 OFFCURVE",
"151 447 CURVE"
);
},
{
closed = 1;
nodes = (
"151 324 LINE",
"135 328 OFFCURVE",
"112 328 OFFCURVE",
"94 324 CURVE",
"94 -12 LINE",
"111 -17 OFFCURVE",
"134 -18 OFFCURVE",
"151 -12 CURVE"
);
}
);
width = 240;
}
);
unicode = 00A6;
},
{
glyphname = asciicircum;
layers = (
{
layerId = UUID0;
paths = (
{
closed = 1;
nodes = (
"301 642 LINE",
"520 428 LINE",
"531 431 OFFCURVE",
"544 445 OFFCURVE",
"547 456 CURVE",
"341 732 LINE",
"327 734 OFFCURVE",
"314 735 OFFCURVE",
"301 735 CURVE SMOOTH",
"288 735 OFFCURVE",
"274 734 OFFCURVE",
"261 732 CURVE",
"55 456 LINE",
"58 445 OFFCURVE",
"71 431 OFFCURVE",
"82 428 CURVE"
);
}
);
width = 602;
}
);
unicode = 005E;
},
{
glyphname = acute;
layers = (
{
anchors = (
{
name = _top;
position = "{97, 537}";
}
);
layerId = UUID0;
paths = (
{
closed = 1;
nodes = (
"240 724 LINE",
"201 764 OFFCURVE",
"175 775 OFFCURVE",
"153 761 CURVE",
"69 587 LINE",
"78 581 OFFCURVE",
"97 574 OFFCURVE",
"112 570 CURVE"
);
}
);
width = 234;
}
);
unicode = 00B4;
},
{
glyphname = caron;
layers = (
{
layerId = UUID0;
paths = (
{
closed = 1;
nodes = (
"142 579 LINE",
"154 574 OFFCURVE",
"162 572 OFFCURVE",
"170 572 CURVE SMOOTH",
"178 572 OFFCURVE",
"185 574 OFFCURVE",
"198 579 CURVE",
"297 753 LINE",
"283 763 OFFCURVE",
"261 768 OFFCURVE",
"252 770 CURVE",
"170 658 LINE",
"89 770 LINE",
"80 768 OFFCURVE",
"57 763 OFFCURVE",
"43 753 CURVE"
);
}
);
width = 352;
}
);
unicode = 02C7;
},
{
glyphname = cedilla;
layers = (
{
hints = (
{
place = "{128, -67}";
},
{
horizontal = 1;
place = "{-173, 104}";
},
{
horizontal = 1;
place = "{-126, -20}";
target = down;
type = TopGhost;
}
);
layerId = UUID0;
paths = (
{
closed = 1;
nodes = (
"56 -188 OFFCURVE",
"55 -204 OFFCURVE",
"61 -219 CURVE",
"85 -224 OFFCURVE",
"116 -230 OFFCURVE",
"138 -230 CURVE SMOOTH",
"228 -230 OFFCURVE",
"280 -197 OFFCURVE",
"280 -126 CURVE SMOOTH",
"280 -73 OFFCURVE",
"242 -37 OFFCURVE",
"175 -34 CURVE",
"181 9 LINE",
"128 9 LINE",
"112 -69 LINE",
"155 -72 OFFCURVE",
"185 -88 OFFCURVE",
"185 -127 CURVE SMOOTH",
"185 -161 OFFCURVE",
"162 -181 OFFCURVE",
"123 -181 CURVE SMOOTH",
"104 -181 OFFCURVE",
"85 -178 OFFCURVE",
"61 -173 CURVE"
);
}
);
width = 343;
}
);
unicode = 00B8;
},
{
glyphname = circumflex;
layers = (
{
anchors = (
{
name = _top;
position = "{175, 537}";
}
);
hints = (
{
horizontal = 1;
place = "{692, -20}";
target = down;
type = TopGhost;
},
{
horizontal = 1;
place = "{587, 21}";
target = up;
type = BottomGhost;
}
);
layerId = UUID0;
paths = (
{
closed = 1;
nodes = (
"43 587 LINE",
"57 577 OFFCURVE",
"80 572 OFFCURVE",
"89 570 CURVE",
"170 682 LINE",
"252 570 LINE",
"261 572 OFFCURVE",
"283 577 OFFCURVE",
"297 587 CURVE",
"198 761 LINE",
"185 765 OFFCURVE",
"178 768 OFFCURVE",
"170 768 CURVE SMOOTH",
"162 768 OFFCURVE",
"154 765 OFFCURVE",
"142 761 CURVE"
);
}
);
width = 351;
}
);
unicode = 02C6;
},
{
glyphname = dieresis;
layers = (
{
anchors = (
{
name = _top;
position = "{198, 537}";
}
);
hints = (
{
place = "{232, 131}";
},
{
place = "{43, 126}";
},
{
horizontal = 1;
place = "{606, 125}";
}
);
layerId = UUID0;
paths = (
{
closed = 1;
nodes = (
"43 633 OFFCURVE",
"72 606 OFFCURVE",
"108 606 CURVE SMOOTH",
"143 606 OFFCURVE",
"169 633 OFFCURVE",
"169 669 CURVE SMOOTH",
"169 705 OFFCURVE",
"143 731 OFFCURVE",
"108 731 CURVE SMOOTH",
"72 731 OFFCURVE",
"43 705 OFFCURVE",
"43 669 CURVE SMOOTH"
);
},
{
closed = 1;
nodes = (
"236 633 OFFCURVE",
"264 606 OFFCURVE",
"300 606 CURVE SMOOTH",
"335 606 OFFCURVE",
"362 633 OFFCURVE",
"362 669 CURVE SMOOTH",
"362 705 OFFCURVE",
"335 731 OFFCURVE",
"300 731 CURVE SMOOTH",
"264 731 OFFCURVE",
"236 705 OFFCURVE",
"236 669 CURVE SMOOTH"
);
}
);
width = 400;
}
);
unicode = 00A8;
},
{
glyphname = grave;
layers = (
{
anchors = (
{
name = _top;
position = "{81, 537}";
}
);
layerId = UUID0;
paths = (
{
closed = 1;
nodes = (
"73 570 LINE",
"88 574 OFFCURVE",
"107 581 OFFCURVE",
"116 587 CURVE",
"32 761 LINE",
"10 775 OFFCURVE",
"-16 764 OFFCURVE",
"-55 724 CURVE"
);
}
);
width = 221;
}
);
unicode = 0060;
},
{
glyphname = macron;
layers = (
{
layerId = UUID0;
paths = (
{
closed = 1;
nodes = (
"637 728 LINE",
"642 745 OFFCURVE",
"643 761 OFFCURVE",
"637 778 CURVE",
"6 778 LINE",
"-3 759 OFFCURVE",
"1 744 OFFCURVE",
"6 728 CURVE"
);
}
);
width = 642;
}
);
unicode = 00AF;
},
{
glyphname = ring;
layers = (
{
anchors = (
{
name = _top;
position = "{129, 537}";
}
);
hints = (
{
place = "{20, 44}";
},
{
place = "{194, 44}";
},
{
horizontal = 1;
place = "{562, 44}";
},
{
horizontal = 1;
place = "{736, 44}";
}
);
layerId = UUID0;
paths = (
{
closed = 1;
nodes = (
"20 610 OFFCURVE",
"68 562 OFFCURVE",
"128 562 CURVE SMOOTH",
"188 562 OFFCURVE",
"237 610 OFFCURVE",
"237 670 CURVE SMOOTH",
"237 730 OFFCURVE",
"188 779 OFFCURVE",
"128 779 CURVE SMOOTH",
"68 779 OFFCURVE",
"20 730 OFFCURVE",
"20 670 CURVE SMOOTH"
);
},
{
closed = 1;
nodes = (
"70 702 OFFCURVE",
"96 729 OFFCURVE",
"128 729 CURVE SMOOTH",
"160 729 OFFCURVE",
"187 702 OFFCURVE",
"187 670 CURVE SMOOTH",
"187 638 OFFCURVE",
"160 612 OFFCURVE",
"128 612 CURVE SMOOTH",
"96 612 OFFCURVE",
"70 638 OFFCURVE",
"70 670 CURVE SMOOTH"
);
}
);
width = 258;
}
);
unicode = 02DA;
},
{
glyphname = tilde;
layers = (
{
anchors = (
{
name = _top;
position = "{200, 537}";
}
);
hints = (
{
horizontal = 1;
place = "{600, 69}";
},
{
horizontal = 1;
place = "{654, 69}";
}
);
layerId = UUID0;
paths = (
{
closed = 1;
nodes = (
"224 669 OFFCURVE",
"214 723 OFFCURVE",
"145 723 CURVE SMOOTH",
"76 723 OFFCURVE",
"30 635 OFFCURVE",
"30 635 CURVE",
"41 624 OFFCURVE",
"58 616 OFFCURVE",
"69 615 CURVE",
"95 641 OFFCURVE",
"109 654 OFFCURVE",
"131 654 CURVE SMOOTH",
"184 654 OFFCURVE",
"192 600 OFFCURVE",
"263 600 CURVE SMOOTH",
"337 600 OFFCURVE",
"376 684 OFFCURVE",
"376 684 CURVE",
"367 692 OFFCURVE",
"353 700 OFFCURVE",
"339 700 CURVE",
"309 675 OFFCURVE",
"298 669 OFFCURVE",
"276 669 CURVE SMOOTH"
);
}
);
width = 416;
}
);
unicode = 02DC;
},
{
glyphname = acute.case;
layers = (
{
anchors = (
{
name = _top;
position = "{87, 737}";
}
);
layerId = UUID0;
paths = (
{
closed = 1;
nodes = (
"245 856 LINE",
"226 908 OFFCURVE",
"206 929 OFFCURVE",
"180 924 CURVE",
"34 792 LINE",
"39 782 OFFCURVE",
"50 768 OFFCURVE",
"62 758 CURVE"
);
}
);
width = 252;
}
);
},
{
glyphname = caron.case;
layers = (
{
anchors = (
{
name = _top;
position = "{175, 737}";
}
);
layerId = UUID0;
paths = (
{
closed = 1;
nodes = (
"332 917 LINE",
"325 926 OFFCURVE",
"316 933 OFFCURVE",
"302 941 CURVE",
"174 847 LINE",
"47 941 LINE",
"33 933 OFFCURVE",
"24 926 OFFCURVE",
"17 917 CURVE",
"136 773 LINE",
"146 769 OFFCURVE",
"161 768 OFFCURVE",
"176 768 CURVE SMOOTH",
"191 768 OFFCURVE",
"205 769 OFFCURVE",
"213 773 CURVE"
);
}
);
width = 344;
}
);
},
{
glyphname = circumflex.case;
layers = (
{
anchors = (
{
name = _top;
position = "{173, 737}";
}
);
layerId = UUID0;
paths = (
{
closed = 1;
nodes = (
"181 848 LINE",
"320 763 LINE",
"332 773 OFFCURVE",
"339 786 OFFCURVE",
"344 796 CURVE",
"208 924 LINE",
"202 925 OFFCURVE",
"190 926 OFFCURVE",
"178 926 CURVE SMOOTH",
"169 926 OFFCURVE",
"160 925 OFFCURVE",
"155 924 CURVE",
"19 796 LINE",
"24 786 OFFCURVE",
"31 773 OFFCURVE",
"43 763 CURVE"
);
}
);
width = 355;
}
);
},
{
glyphname = dieresis.case;
layers = (
{
anchors = (
{
name = _top;
position = "{186, 737}";
}
);
hints = (
{
place = "{20, 130}";
},
{
place = "{234, 131}";
},
{
horizontal = 1;
place = "{761, 131}";
}
);
layerId = UUID0;
paths = (
{
closed = 1;
nodes = (
"17 811 OFFCURVE",
"46 784 OFFCURVE",
"82 784 CURVE SMOOTH",
"117 784 OFFCURVE",
"143 811 OFFCURVE",
"143 847 CURVE SMOOTH",
"143 883 OFFCURVE",
"117 909 OFFCURVE",
"82 909 CURVE SMOOTH",
"46 909 OFFCURVE",
"17 883 OFFCURVE",
"17 847 CURVE SMOOTH"
);
},
{
closed = 1;
nodes = (
"230 811 OFFCURVE",
"258 784 OFFCURVE",
"294 784 CURVE SMOOTH",
"329 784 OFFCURVE",
"356 811 OFFCURVE",
"356 847 CURVE SMOOTH",
"356 883 OFFCURVE",
"329 909 OFFCURVE",
"294 909 CURVE SMOOTH",
"258 909 OFFCURVE",
"230 883 OFFCURVE",
"230 847 CURVE SMOOTH"
);
}
);
width = 376;
}
);
},
{
glyphname = grave.case;
layers = (
{
anchors = (
{
name = _top;
position = "{140, 737}";
}
);
layerId = UUID0;
paths = (
{
closed = 1;
nodes = (
"167 758 LINE",
"179 768 OFFCURVE",
"190 782 OFFCURVE",
"195 792 CURVE",
"49 924 LINE",
"23 929 OFFCURVE",
"3 908 OFFCURVE",
"-16 856 CURVE"
);
}
);
width = 252;
}
);
},
{
glyphname = ring.case;
layers = (
{
anchors = (
{
name = _top;
position = "{126, 737}";
}
);
hints = (
{
place = "{17, 54}";
},
{
place = "{181, 54}";
},
{
horizontal = 1;
place = "{752, 54}";
},
{
horizontal = 1;
place = "{916, 54}";
}
);
layerId = UUID0;
paths = (
{
closed = 1;
nodes = (
"17 801 OFFCURVE",
"66 752 OFFCURVE",
"126 752 CURVE SMOOTH",
"186 752 OFFCURVE",
"235 801 OFFCURVE",
"235 861 CURVE SMOOTH",
"235 921 OFFCURVE",
"186 970 OFFCURVE",
"126 970 CURVE SMOOTH",
"66 970 OFFCURVE",
"17 921 OFFCURVE",
"17 861 CURVE SMOOTH"
);
},
{
closed = 1;
nodes = (
"71 891 OFFCURVE",
"96 916 OFFCURVE",
"126 916 CURVE SMOOTH",
"156 916 OFFCURVE",
"181 891 OFFCURVE",
"181 861 CURVE SMOOTH",
"181 832 OFFCURVE",
"156 806 OFFCURVE",
"126 806 CURVE SMOOTH",
"96 806 OFFCURVE",
"71 832 OFFCURVE",
"71 861 CURVE SMOOTH"
);
}
);
width = 252;
}
);
},
{
glyphname = tilde.case;
layers = (
{
anchors = (
{
name = _top;
position = "{184, 737}";
}
);
hints = (
{
horizontal = 1;
place = "{777, 80}";
},
{
horizontal = 1;
place = "{834, 80}";
}
);
layerId = UUID0;
paths = (
{
closed = 1;
nodes = (
"204 845 OFFCURVE",
"194 899 OFFCURVE",
"125 899 CURVE SMOOTH",
"56 899 OFFCURVE",
"10 811 OFFCURVE",
"10 811 CURVE",
"21 800 OFFCURVE",
"33 794 OFFCURVE",
"44 793 CURVE",
"70 819 OFFCURVE",
"89 832 OFFCURVE",
"111 832 CURVE SMOOTH",
"164 832 OFFCURVE",
"172 778 OFFCURVE",
"243 778 CURVE SMOOTH",
"317 778 OFFCURVE",
"356 862 OFFCURVE",
"356 862 CURVE",
"347 870 OFFCURVE",
"338 876 OFFCURVE",
"324 876 CURVE",
"294 851 OFFCURVE",
"278 845 OFFCURVE",
"256 845 CURVE SMOOTH"
);
}
);
width = 383;
}
);
},
